<svg id="Layer_1" data-name="Layer 1" xmlns="http://www.w3.org/2000/svg" width="94" height="48" viewBox="0 0 94 48">
  <title>32_단어장_비활성화</title>
  <g id="Layer_2" data-name="Layer 2">
    <g>
      <path d="M0,8H15.1v2.3H2.6V21.2a115.4,115.4,0,0,0,15.5-.7l0.3,2.2c-5.4.7-8.3,0.8-18.4,0.8V8ZM7,36.1H25.1v2.3H4.4V27.5H7v8.6ZM24.1,14.8h5V17h-5V29.3H21.6V5.8h2.5v9Z" fill="#fff"/>
      <path d="M57.6,38.7H55V20H47.6v1.1c0,6-3,9.5-8.1,9.5s-8.1-3.5-8.1-9.5V17.7c0-6,3-9.5,8.1-9.5s8.1,3.5,8.1,9.5H55V5.8h2.5V38.7h0.1ZM45.2,18.2c0-5.5-2.2-7.6-5.6-7.6S34,12.7,34,18.2v2.5c0,5.5,2.2,7.6,5.6,7.6s5.6-2.2,5.6-7.6V18.2Z" fill="#fff"/>
      <path d="M72.5,17.3c-0.1.5-1.3,1.7-2.8,3.1a63.5,63.5,0,0,1-5.4,4.2l-1.5-1.8a61.5,61.5,0,0,0,6.2-5,5.9,5.9,0,0,0,2.2-4.9V10.2H63.8V8H80.9v2.2H73.8v2.6c0,2.1.3,3.1,2.6,5.1s3.2,2.5,5.2,3.9L80,23.5c-1.4-1-3.2-2.3-4.2-3.2s-3.2-2.5-3.3-3h0ZM88.3,32.1v1.4c0,3.8-4.4,6.2-9.8,6.2s-9.8-2.4-9.8-6.2V32.1c0-3.9,4.4-6.2,9.8-6.2S88.3,28.3,88.3,32.1Zm-2.4,1.2V32.1c0-2.6-3.5-4.1-7.3-4.1s-7.3,1.5-7.3,4.1v1.2c0,2.6,3.5,4.1,7.3,4.1S85.9,35.9,85.9,33.3Zm2.3-19.1h5v2.2h-5v8.8H85.7V5.8h2.5v8.4Z" fill="#fff"/>
    </g>
  </g>
</svg>
