<?xml version="1.0" encoding="utf-8"?>
<!-- Generator: Adobe Illustrator 19.2.1, SVG Export Plug-In . SVG Version: 6.00 Build 0)  -->
<svg version="1.1" xmlns="http://www.w3.org/2000/svg" xmlns:xlink="http://www.w3.org/1999/xlink" x="0px" y="0px" width="184px"
	 height="48px" viewBox="0 0 184 48" style="enable-background:new 0 0 184 48;" xml:space="preserve">
<g id="Layer_1" style="display:none;">
	<polyline style="display:inline;opacity:0.2;fill:#FF0000;" points="184,4 0,4 0,0 184,0 	"/>
	<polyline style="display:inline;opacity:0.2;fill:#FF0000;" points="184,48 0,48 0,44 184,44 	"/>
</g>
<g id="Layer_2">
	<g>
		<path style="fill:#FFFFFF;" d="M0,25.3v-3.5h35.5v3.5H19.9v3.4c6.2,0.5,10,3.2,10,6.8v1.4c0,3.9-4.7,6.9-12.1,6.9
			c-7.4,0-12.1-2.9-12.1-6.9v-1.4c0-3.6,3.8-6.3,10-6.8v-3.4H0z M17.7,14.1c-0.4,0.9-3.3,2.3-5,3c-2.8,1.1-5.5,2.1-8.1,3L3,16.8
			c3.3-1,5.8-2,8-2.9c2.8-1.2,4.7-2.6,4.7-4.4V8.9h-11V5.4h26.3v3.4H19.8v0.6c0,1.8,1.8,3.1,4.7,4.4c2.2,1,4.7,1.9,8,2.9L31,20.1
			c-2.8-1-5.4-1.9-8.1-3C21.1,16.3,18.2,15,17.7,14.1L17.7,14.1z M9.8,35.8v0.9c0,2,3.2,3.7,8,3.7c4.7,0,8-1.7,8-3.7v-0.9
			c0-2-3.2-3.7-8-3.7C13,32,9.8,33.7,9.8,35.8z"/>
		<path style="fill:#FFFFFF;" d="M42,29.5h11v-6.7H37.4v-3.5h25c0.7-3.1,1-6.1,1-8.7V9.1H42.1V5.6h25.5v5.3c0,2.4-0.3,5.5-0.8,8.5
			h6.2v3.5H57.1v6.7H68v13.6h-4.2v-10H42V29.5z"/>
		<path style="fill:#FFFFFF;" d="M103,42.7V21.3h-7.5v1c0,7.4-4.1,11.2-9.7,11.2c-5.7,0-9.7-3.8-9.7-11.2v-4.4
			c0-7.4,4.1-11.2,9.7-11.2c5.6,0,9.7,3.7,9.7,11h7.5V4h4.2v38.7H103z M91.5,21.6v-3.2c0-5.9-2.7-8-5.8-8c-3,0-5.8,2.1-5.8,8v3.2
			c0,5.9,2.7,8,5.8,8C88.8,29.7,91.5,27.6,91.5,21.6z"/>
		<path style="fill:#FFFFFF;" d="M123.6,23.3c-0.4,0.9-1.1,1.8-2.4,3.2c-1.7,1.9-3.9,4.1-6.8,6.7l-2.7-2.8c2.6-2.3,4.7-4.4,6.6-6.5
			c2.6-2.9,3.2-4.8,3.2-7.8V6.8h4.2v9.3c0,3.3,0.8,5,3.4,7.9c1.8,2,3.7,3.7,6.2,6l-2.7,2.9c-2.9-2.7-4.8-4.6-6.4-6.3
			C125,25.3,124,24.1,123.6,23.3L123.6,23.3z M148.4,21.6h-6v21.1h-4.2V4h4.2v14h6V21.6z"/>
		<path style="fill:#FFFFFF;" d="M162,19.2c-0.3,0.7-1.5,2.1-2.8,3.3c-1.8,1.6-4.1,3.4-6.4,5l-2.4-3c2.7-1.9,5.3-3.9,6.7-5.3
			c2.1-1.9,2.7-3.6,2.7-6.7V10h-8.1V6.5h20V10H164v2.4c0,2.7,0.4,4.3,2.2,5.8c2,1.8,4.2,3.4,6.6,5l-2.4,3c-2.2-1.5-4-2.9-6-4.6
			C163.2,20.7,162.3,19.9,162,19.2L162,19.2z M161.8,38.7h20.8v3.6h-25V29.4h4.2V38.7z M177.8,31.6V17.4h-7.1v-3.6h7.1V4h4.1v27.6
			H177.8z"/>
	</g>
</g>
</svg>
