<svg id="icon" xmlns="http://www.w3.org/2000/svg" width="300" height="300" viewBox="0 0 300 300">
  <title>사전GNB_icon</title>
  <path d="M0,0H30V2H0V0ZM0,14H30v2H0V14ZM0,28H30v2H0V28Z" fill="#fff"/>
  <g>
    <path d="M94.6,24.7L73,2.8,51.4,24.7,50,23.3,73,0,96,23.3Z" fill="#fff"/>
    <path d="M55,18.4h2V40H55V18.4Zm34,0h2V40H89V18.4ZM79,40H77V27H69V40H67V25H79V40Z" fill="#fff"/>
  </g>
  <path d="M25,136L12.8,117.4V136H0V100H13l12.2,18.6V100H38v36H25Z" fill="#fff"/>
  <path d="M15,80A15,15,0,1,1,30,65,15,15,0,0,1,15,80Zm0-28A13,13,0,1,0,28,65,13,13,0,0,0,15,52Zm9.2,23.7,1.4-1.4L36,84.6l-1.4,1.4Z" fill="#fff"/>
  <path d="M65,80A15,15,0,1,1,80,65,15,15,0,0,1,65,80Zm0-28A13,13,0,1,0,78,65,13,13,0,0,0,65,52Zm9.2,23.7,1.4-1.4L86,84.6l-1.4,1.4Z" fill="#00c73c"/>
  <g>
    <g>
      <rect x="57" y="107.4" width="2" height="2" fill="#fff"/>
      <rect x="63" y="107.4" width="2" height="2" fill="#fff"/>
      <rect x="69" y="107.4" width="2" height="2" fill="#fff"/>
      <rect x="75" y="107.4" width="2" height="2" fill="#fff"/>
      <rect x="81" y="107.4" width="2" height="2" fill="#fff"/>
      <rect x="87" y="107.4" width="2" height="2" fill="#fff"/>
      <rect x="61" y="113.4" width="2" height="2" fill="#fff"/>
      <rect x="67" y="113.4" width="2" height="2" fill="#fff"/>
      <rect x="73" y="113.4" width="2" height="2" fill="#fff"/>
      <rect x="79" y="113.4" width="2" height="2" fill="#fff"/>
      <rect x="85" y="113.4" width="2" height="2" fill="#fff"/>
    </g>
    <path d="M94,102v24H52V102H94m2-2H50v28H96V100h0Z" fill="#fff"/>
    <rect x="61" y="119.4" width="24" height="2" fill="#fff"/>
  </g>
  <g>
    <g>
      <rect x="107" y="107.4" width="2" height="2" fill="#f4ff3c"/>
      <rect x="113" y="107.4" width="2" height="2" fill="#f4ff3c"/>
      <rect x="119" y="107.4" width="2" height="2" fill="#f4ff3c"/>
      <rect x="125" y="107.4" width="2" height="2" fill="#f4ff3c"/>
      <rect x="131" y="107.4" width="2" height="2" fill="#f4ff3c"/>
      <rect x="137" y="107.4" width="2" height="2" fill="#f4ff3c"/>
      <rect x="111" y="113.4" width="2" height="2" fill="#f4ff3c"/>
      <rect x="117" y="113.4" width="2" height="2" fill="#f4ff3c"/>
      <rect x="123" y="113.4" width="2" height="2" fill="#f4ff3c"/>
      <rect x="129" y="113.4" width="2" height="2" fill="#f4ff3c"/>
      <rect x="135" y="113.4" width="2" height="2" fill="#f4ff3c"/>
    </g>
    <path d="M144,102v24H102V102h42m2-2H100v28h46V100h0Z" fill="#f4ff3c"/>
    <rect x="111" y="119.4" width="24" height="2" fill="#f4ff3c"/>
  </g>
  <g>
    <g>
      <rect x="7" y="157.4" width="2" height="2" fill="#fff"/>
      <rect x="13" y="157.4" width="2" height="2" fill="#fff"/>
      <rect x="19" y="157.4" width="2" height="2" fill="#fff"/>
      <rect x="25" y="157.4" width="2" height="2" fill="#fff"/>
      <rect x="31" y="157.4" width="2" height="2" fill="#fff"/>
      <rect x="37" y="157.4" width="2" height="2" fill="#fff"/>
      <rect x="11" y="163.4" width="2" height="2" fill="#fff"/>
      <rect x="17" y="163.4" width="2" height="2" fill="#fff"/>
      <rect x="23" y="163.4" width="2" height="2" fill="#fff"/>
      <rect x="29" y="163.4" width="2" height="2" fill="#fff"/>
      <rect x="35" y="163.4" width="2" height="2" fill="#fff"/>
    </g>
    <path d="M44,152v24H2V152H44m2-2H0v28H46V150h0Z" fill="#fff"/>
    <rect x="11" y="169.4" width="24" height="2" fill="#fff"/>
  </g>
  <g>
    <polyline points="181.1 12 181.1 38 153.1 38 153.1 12" fill="none" stroke="#fff" stroke-miterlimit="10" stroke-width="2.01"/>
    <line x1="167.1" y1="33.9" x2="167.1" y2="12" fill="none" stroke="#fff" stroke-miterlimit="10" stroke-width="2"/>
    <line x1="160.1" y1="33.9" x2="160.1" y2="12" fill="none" stroke="#fff" stroke-miterlimit="10" stroke-width="2"/>
    <line x1="174.1" y1="33.9" x2="174.1" y2="12" fill="none" stroke="#fff" stroke-miterlimit="10" stroke-width="2"/>
    <g>
      <line x1="150" y1="6.7" x2="184" y2="6.7" fill="none" stroke="#fff" stroke-miterlimit="10" stroke-width="2"/>
      <polyline points="162 7 162 1 172 1 172 7" fill="none" stroke="#fff" stroke-miterlimit="10" stroke-width="2.17"/>
    </g>
  </g>
  <g>
    <polyline points="119.2 38.5 101 20.3 119 2" fill="none" stroke="#fff" stroke-miterlimit="10" stroke-width="2"/>
    <line x1="101.5" y1="20.3" x2="142.5" y2="20.3" fill="none" stroke="#fff" stroke-miterlimit="10" stroke-width="2"/>
  </g>
  <g>
    <g>
      <path d="M163.3,117h2.1a8,8,0,0,0,0-16h-2.4" fill="none" stroke="#fff" stroke-linejoin="round" stroke-width="2"/>
      <path d="M164,117h-2.8a10,10,0,1,0,0,20H164" fill="none" stroke="#fff" stroke-linejoin="round" stroke-width="2"/>
    </g>
    <g>
      <path d="M191.9,119.9a5.6,5.6,0,0,0-4.2-9,5.5,5.5,0,0,0-3.5,1.3L167,129.2V137h7.8Z" fill="none" stroke="#fff" stroke-miterlimit="10" stroke-width="2"/>
      <line x1="181.7" y1="115.1" x2="188.7" y2="122.2" fill="none" stroke="#fff" stroke-miterlimit="10" stroke-width="2"/>
    </g>
  </g>
  <g>
    <g>
      <path d="M164.3,67h2.1a8,8,0,0,0,0-16h-2.4" fill="none" stroke="#00c73c" stroke-linejoin="round" stroke-width="2"/>
      <path d="M165,67h-2.8a10,10,0,1,0,0,20H165" fill="none" stroke="#00c73c" stroke-linejoin="round" stroke-width="2"/>
    </g>
    <g>
      <path d="M192.9,69.9a5.6,5.6,0,0,0-4.2-9,5.5,5.5,0,0,0-3.5,1.3L168,79.2V87h7.8Z" fill="none" stroke="#00c73c" stroke-miterlimit="10" stroke-width="2"/>
      <line x1="182.7" y1="65.1" x2="189.7" y2="72.2" fill="none" stroke="#00c73c" stroke-miterlimit="10" stroke-width="2"/>
    </g>
  </g>
  <polygon points="59 192 59 200 51 200 59 192" fill="#fff"/>
  <g>
    <g>
      <g>
        <rect x="7" y="217.4" width="2" height="2" fill="#f4ff3c"/>
        <rect x="13" y="217.4" width="2" height="2" fill="#f4ff3c"/>
        <rect x="19" y="217.4" width="2" height="2" fill="#f4ff3c"/>
        <rect x="25" y="217.4" width="2" height="2" fill="#f4ff3c"/>
        <rect x="31" y="217.4" width="2" height="2" fill="#f4ff3c"/>
        <rect x="37" y="217.4" width="2" height="2" fill="#f4ff3c"/>
        <rect x="11" y="223.4" width="2" height="2" fill="#f4ff3c"/>
        <rect x="17" y="223.4" width="2" height="2" fill="#f4ff3c"/>
        <rect x="23" y="223.4" width="2" height="2" fill="#f4ff3c"/>
        <rect x="29" y="223.4" width="2" height="2" fill="#f4ff3c"/>
        <rect x="35" y="223.4" width="2" height="2" fill="#f4ff3c"/>
      </g>
      <path d="M44,212v24H2V212H44m2-2H0v28H46V210h0Z" fill="#f4ff3c"/>
      <rect x="11" y="229.4" width="24" height="2" fill="#f4ff3c"/>
    </g>
    <polygon points="59 252 59 260 51 260 59 252" fill="#f4ff3c"/>
  </g>
  <g>
    <polygon points="126 199 126 207 118 207 126 199" fill="#fff"/>
    <g>
      <g>
        <line x1="102.4" y1="158.6" x2="74.4" y2="158.6" fill="none" stroke="#fff" stroke-linejoin="round" stroke-width="1.94"/>
        <path d="M97.9,189.1c6.7-.9,11.2-5.8,11.1-11.1s-6.7-8.7-13.1-10" fill="none" stroke="#fff" stroke-linejoin="round" stroke-width="2"/>
        <path d="M95.9,168a36.2,36.2,0,0,0-7.6-.4c-9.6.5-17.7,5.4-17.3,12.4,0.3,4.4,3.9,8.5,10.6,8.4,9.6-.2,15.6-12.2,16.4-19.3" fill="none" stroke="#fff" stroke-linejoin="round" stroke-width="2"/>
      </g>
      <path d="M84.5,150c-2.7,16.1-.2,30.7,3.6,35.8" fill="none" stroke="#fff" stroke-linejoin="round" stroke-width="2"/>
    </g>
  </g>
  <g>
    <polygon points="126 259 126 267 118 267 126 259" fill="#f4ff3c"/>
    <g>
      <g>
        <line x1="102.4" y1="218.6" x2="74.4" y2="218.6" fill="none" stroke="#f4ff3c" stroke-linejoin="round" stroke-width="1.94"/>
        <path d="M97.9,249.1c6.7-.9,11.2-5.8,11.1-11.1s-6.7-8.7-13.1-10" fill="none" stroke="#f4ff3c" stroke-linejoin="round" stroke-width="2"/>
        <path d="M95.9,228a36.2,36.2,0,0,0-7.6-.4c-9.6.5-17.7,5.4-17.3,12.4,0.3,4.4,3.9,8.5,10.6,8.4,9.6-.2,15.6-12.2,16.4-19.3" fill="none" stroke="#f4ff3c" stroke-linejoin="round" stroke-width="2"/>
      </g>
      <path d="M84.5,210c-2.7,16.1-.2,30.7,3.6,35.8" fill="none" stroke="#f4ff3c" stroke-linejoin="round" stroke-width="2"/>
    </g>
  </g>
  <circle cx="118" cy="68" r="18" fill="#e9ecef"/>
  <g>
    <line x1="111" y1="60.8" x2="125" y2="74.8" fill="none" stroke="#a7a9aa" stroke-miterlimit="10" stroke-width="2"/>
    <line x1="125" y1="60.8" x2="111" y2="74.8" fill="none" stroke="#a7a9aa" stroke-miterlimit="10" stroke-width="2"/>
  </g>
  <g>
    <path d="M206.8,17.7l-1.8-.2a5.2,5.2,0,0,1-1.7-.7L202.1,22H200l3.8-16.4A7,7,0,0,1,206,1.7,6.1,6.1,0,0,1,210.1.3a4.3,4.3,0,0,1,2.9.9,3.1,3.1,0,0,1,1,2.4A4.3,4.3,0,0,1,213,6.6a5.5,5.5,0,0,1-2.8,1.8V8.5a3.9,3.9,0,0,1,2.2,1.1,3,3,0,0,1,.8,2.1,5.5,5.5,0,0,1-1.9,4.3A6.3,6.3,0,0,1,206.8,17.7Zm4.1-5.8a2.3,2.3,0,0,0-.3-1.2,2.2,2.2,0,0,0-.8-0.8l-1.2-.4h-1.9l0.4-1.7h0.4l1.7-.2a3.8,3.8,0,0,0,1.4-.6,3.3,3.3,0,0,0,1-1.1,3.5,3.5,0,0,0,.4-1.7,1.8,1.8,0,0,0-.6-1.5,2.6,2.6,0,0,0-1.7-.5,3.3,3.3,0,0,0-1.4.3,3.8,3.8,0,0,0-1.1.8,4.2,4.2,0,0,0-.7,1.1,8.7,8.7,0,0,0-.5,1.4l-2.1,9.4a4.7,4.7,0,0,0,1.5.6l1.6,0.2a3.9,3.9,0,0,0,3-1.2A4.1,4.1,0,0,0,210.9,11.8Z" fill="#fdfe5f"/>
    <path d="M219,17.7a5.4,5.4,0,0,1-3.6-1.1,3.8,3.8,0,0,1-1.3-3.1A7.5,7.5,0,0,1,216,8.4a6,6,0,0,1,4.7-2.1,4,4,0,0,1,2.8.9,3.4,3.4,0,0,1,1,2.6,8,8,0,0,1-.1.9q-0.1.6-.3,1.5h-8v0.6c0,0.2,0,.4,0,0.5a2.8,2.8,0,0,0,.8,2.2,3.4,3.4,0,0,0,2.4.8,6.4,6.4,0,0,0,2.2-.4l1.9-.9h0.1l-0.4,2-0.9.3-1,.3-1.1.2H219Zm3.7-6.9V10.3c0-.1,0-0.3,0-0.4a2.2,2.2,0,0,0-.6-1.6,2.5,2.5,0,0,0-1.8-.6,3.8,3.8,0,0,0-2.5.9,4.2,4.2,0,0,0-1.5,2.3h6.2Z" fill="#fdfe5f"/>
    <path d="M232.8,6.6l-0.3,1.5h-3.8l-1.2,5-0.2.9a5.4,5.4,0,0,0-.1.8,1.4,1.4,0,0,0,.4,1.1,1.9,1.9,0,0,0,1.3.3h1l0.7-.2h0.1l-0.3,1.6-1.2.2h-1.1a3.3,3.3,0,0,1-2.1-.6,2.3,2.3,0,0,1-.7-1.9,4.4,4.4,0,0,1,0-.6V14l1.4-5.9h-1.2l0.3-1.5h1.2l0.7-3.1h1.8L229,6.6h3.8Z" fill="#fdfe5f"/>
    <path d="M238.4,16.3l-0.7.4-0.9.5-1.1.4-1.4.2a3,3,0,0,1-2.1-.8,2.6,2.6,0,0,1-.8-2,4,4,0,0,1,.6-2.2,4.2,4.2,0,0,1,1.7-1.5,9.1,9.1,0,0,1,2.7-.8l3.5-.3V9.8a2.1,2.1,0,0,0,0-.4,1.4,1.4,0,0,0-.2-0.8l-0.5-.5-0.8-.2h-1l-1.9.3-1.7.5h-0.1l0.4-1.8,1.6-.3,2.1-.2a5.8,5.8,0,0,1,3,.6,2.2,2.2,0,0,1,1,2,3.9,3.9,0,0,1,0,.6V10L240,17.4h-1.8Zm1.1-4.6-2.7.2-1.9.5a2.7,2.7,0,0,0-1.2.9,2.2,2.2,0,0,0-.4,1.4,1.3,1.3,0,0,0,.5,1.1,2.4,2.4,0,0,0,1.5.4,4.6,4.6,0,0,0,1.8-.4l1.7-1Z" fill="#fdfe5f"/>
  </g>
  <polyline points="201 61 211 51 221 61" fill="none" stroke="#575756" stroke-miterlimit="10" stroke-width="2"/>
  <polyline points="201 31 211 41 221 31" fill="none" stroke="#575756" stroke-miterlimit="10" stroke-width="2"/>
  <g>
    <circle cx="274" cy="24" r="24" fill="#00c73c"/>
    <polyline points="262.4 24 271.2 32.7 287.1 16.8" fill="none" stroke="#fff" stroke-miterlimit="10" stroke-width="2"/>
  </g>
  <g>
    <g>
      <g>
        <path d="M143.3,167h2.1a8,8,0,0,0,0-16h-2.4" fill="none" stroke="#fff" stroke-linejoin="round" stroke-width="2"/>
        <path d="M144,167h-2.8a10,10,0,1,0,0,20H144" fill="none" stroke="#fff" stroke-linejoin="round" stroke-width="2"/>
      </g>
      <g>
        <path d="M171.9,169.9a5.6,5.6,0,0,0-4.2-9,5.5,5.5,0,0,0-3.5,1.3L147,179.2V187h7.8Z" fill="none" stroke="#fff" stroke-miterlimit="10" stroke-width="2"/>
        <line x1="161.7" y1="165.1" x2="168.7" y2="172.2" fill="none" stroke="#fff" stroke-miterlimit="10" stroke-width="2"/>
      </g>
    </g>
    <polygon points="188 198 188 206 180 206 188 198" fill="#fff"/>
  </g>
  <g>
    <g>
      <g>
        <path d="M143.3,227h2.1a8,8,0,0,0,0-16h-2.4" fill="none" stroke="#f4ff3c" stroke-linejoin="round" stroke-width="2"/>
        <path d="M144,227h-2.8a10,10,0,1,0,0,20H144" fill="none" stroke="#f4ff3c" stroke-linejoin="round" stroke-width="2"/>
      </g>
      <g>
        <path d="M171.9,229.9a5.6,5.6,0,0,0-4.2-9,5.5,5.5,0,0,0-3.5,1.3L147,239.2V247h7.8Z" fill="none" stroke="#f4ff3c" stroke-miterlimit="10" stroke-width="2"/>
        <line x1="161.7" y1="225.1" x2="168.7" y2="232.2" fill="none" stroke="#f4ff3c" stroke-miterlimit="10" stroke-width="2"/>
      </g>
    </g>
    <polygon points="188 258 188 266 180 266 188 258" fill="#f4ff3c"/>
  </g>
</svg>
