<?xml version="1.0" encoding="utf-8"?>
<!-- Generator: Adobe Illustrator 19.2.1, SVG Export Plug-In . SVG Version: 6.00 Build 0)  -->
<svg version="1.1" xmlns="http://www.w3.org/2000/svg" xmlns:xlink="http://www.w3.org/1999/xlink" x="0px" y="0px" width="220px"
	 height="48px" viewBox="0 0 220 48" style="enable-background:new 0 0 220 48;" xml:space="preserve">
<g id="Layer_1" style="display:none;">
	<polyline style="display:inline;opacity:0.2;fill:#FF0000;" points="239,4 -19,4 -19,0 239,0 	"/>
	<polyline style="display:inline;opacity:0.2;fill:#FF0000;" points="239,48 -19,48 -19,44 239,44 	"/>
</g>
<g id="Layer_2">
	<g>
		<path style="fill:#FFFFFF;" d="M0,32.4V7.4h4v9h7.5v-9h4v10.3h4.8V4.8h4.1v36h-4.1V21.3h-4.8v11.1H0z M4,28.9h7.5v-9.1H4V28.9z
			 M32.1,42.7H28V4h4.1V42.7z"/>
		<path style="fill:#FFFFFF;" d="M71.3,34v3.5H35.7V34H71.3z M66.7,27.6H40.5V6.9h25.6v3.5H44.7v5.1h21.1V19H44.7v5.1h22V27.6z"/>
		<path style="fill:#FFFFFF;" d="M79.3,6.1V19c6.9,0,10.8-0.1,17-0.9l0.4,3.5c-6,0.8-10.3,1-21.5,1V6.1H79.3z M103.7,27.2v15.5H80.1
			V27.2H103.7z M84.2,39.2h15.4v-8.4H84.2V39.2z M109.2,16.1h-5.5v9.3h-4.1V4h4.1v8.4h5.5V16.1z"/>
		<path style="fill:#FFFFFF;" d="M138.7,42.7V21.3h-7.5v1c0,7.4-4.1,11.2-9.7,11.2s-9.7-3.8-9.7-11.2v-4.4c0-7.4,4.1-11.2,9.7-11.2
			c5.6,0,9.7,3.7,9.7,11h7.5V4h4.2v38.7H138.7z M127.3,21.6v-3.2c0-5.9-2.7-8-5.8-8c-3,0-5.8,2.1-5.8,8v3.2c0,5.9,2.7,8,5.8,8
			C124.5,29.7,127.3,27.6,127.3,21.6z"/>
		<path style="fill:#FFFFFF;" d="M159.3,23.3c-0.4,0.9-1.1,1.8-2.4,3.2c-1.7,1.9-3.9,4.1-6.8,6.7l-2.7-2.8c2.6-2.3,4.7-4.4,6.6-6.5
			c2.6-2.9,3.2-4.8,3.2-7.8V6.8h4.2v9.3c0,3.3,0.8,5,3.4,7.9c1.8,2,3.7,3.7,6.2,6l-2.7,2.9c-2.9-2.7-4.8-4.6-6.4-6.3
			C160.7,25.3,159.7,24.1,159.3,23.3L159.3,23.3z M184.1,21.6h-6v21.1H174V4h4.2v14h6V21.6z"/>
		<path style="fill:#FFFFFF;" d="M197.7,19.2c-0.3,0.7-1.5,2.1-2.8,3.3c-1.8,1.6-4.1,3.4-6.4,5l-2.4-3c2.7-1.9,5.3-3.9,6.7-5.3
			c2.1-1.9,2.7-3.6,2.7-6.7V10h-8.1V6.5h20V10h-7.6v2.4c0,2.7,0.4,4.3,2.2,5.8c2,1.8,4.2,3.4,6.6,5l-2.4,3c-2.2-1.5-4-2.9-6-4.6
			C198.9,20.7,198.1,19.9,197.7,19.2L197.7,19.2z M197.6,38.7h20.8v3.6h-25V29.4h4.2V38.7z M213.5,31.6V17.4h-7.1v-3.6h7.1V4h4.1
			v27.6H213.5z"/>
	</g>
</g>
</svg>
