<?xml version="1.0" encoding="utf-8"?>
<!-- Generator: Adobe Illustrator 19.2.1, SVG Export Plug-In . SVG Version: 6.00 Build 0)  -->
<svg version="1.1" xmlns="http://www.w3.org/2000/svg" xmlns:xlink="http://www.w3.org/1999/xlink" x="0px" y="0px" width="260px"
	 height="48px" viewBox="0 0 260 48" style="enable-background:new 0 0 260 48;" xml:space="preserve">
<g id="Layer_1" style="display:none;">
	<polyline style="display:inline;opacity:0.2;fill:#FF0000;" points="258,4 0,4 0,0 258,0 	"/>
	<polyline style="display:inline;opacity:0.2;fill:#FF0000;" points="258,48 0,48 0,44 258,44 	"/>
</g>
<g id="Layer_2">
	<g>
		<path style="fill:#FFFFFF;" d="M35.6,34.7v3.5H0.1v-3.5H35.6z M17.9,19.3c-0.4,1-2.1,2.4-5,4.2c-2.4,1.6-5.1,3.2-8.6,5.1l-2.1-3.3
			c3.4-1.8,6-3.4,8.8-5.3c3.8-2.6,4.7-4.4,4.7-8.5V7.4H20v4.2c0,4.1,0.6,5.8,5.2,8.8c2.6,1.7,5.1,3.1,8.4,4.9l-2,3.2
			c-3.1-1.8-6.2-3.5-8.7-5.1C20.1,21.8,18.4,20.3,17.9,19.3L17.9,19.3z"/>
		<path style="fill:#FFFFFF;" d="M62.4,34.5c-7.1,0.7-13.8,1-24.8,1v-3.6c3.7,0,6.9,0,9.7,0v-6.6c-5-0.8-8.1-4.5-8.1-8.1v-1.9
			c0-4.1,3.9-8.3,10.2-8.3c6.3,0,10.2,4.2,10.2,8.3v1.9c0,3.6-3.1,7.3-8.1,8.1v6.5c3.7-0.1,7-0.4,10.5-0.7L62.4,34.5z M55.7,16.9
			v-1.4c0-2.7-2.7-5-6.2-5c-3.5,0-6.2,2.3-6.2,5v1.4c0,2.6,2.7,5,6.2,5C53,21.8,55.7,19.4,55.7,16.9z M74.3,23.1h-5.8v20.3h-4.1V4.7
			h4.1v14.8h5.8V23.1z"/>
		<path style="fill:#FFFFFF;" d="M97.9,11.4H75.5V8h9.1V4h4.1v4h9.2V11.4z M77.6,19.5v-0.8c0-2.8,2.3-5.9,9.1-5.9s9.1,3.2,9.1,5.9
			v0.8c0,2.8-2.3,5.9-9.1,5.9S77.6,22.3,77.6,19.5z M91.8,19.4v-0.5c0-1.1-1.3-2.8-5.2-2.8c-3.9,0-5.2,1.7-5.2,2.8v0.5
			c0,1.1,1.3,2.8,5.2,2.8C90.5,22.2,91.8,20.5,91.8,19.4z M82.9,43.7V34h20V31H82.7v-3.4h24.2v9.7H87v3h21v3.4H82.9z M102.8,25.7
			v-21h4.1v21H102.8z"/>
		<path style="fill:#FFFFFF;" d="M119.2,22.2v8.2h3.9c5.6,0,8.9-0.2,13.3-0.8l0.4,3.5c-3.9,0.6-7.7,0.9-14.7,0.9H115V18.7h13.2v-7.4
			h-13.3V7.7h17.4v14.5H119.2z M140.1,43.4V4.7h4.2v38.7H140.1z"/>
		<path style="fill:#FFFFFF;" d="M177.8,43.4V21.9h-7.5v1c0,7.4-4.1,11.2-9.7,11.2s-9.7-3.8-9.7-11.2v-4.4c0-7.4,4.1-11.2,9.7-11.2
			c5.6,0,9.7,3.7,9.7,11h7.5V4.7h4.2v38.7H177.8z M166.4,22.3v-3.2c0-5.9-2.7-8-5.8-8s-5.8,2.1-5.8,8v3.2c0,5.9,2.7,8,5.8,8
			S166.4,28.2,166.4,22.3z"/>
		<path style="fill:#FFFFFF;" d="M198.4,24c-0.4,0.9-1.1,1.8-2.4,3.2c-1.7,1.9-3.9,4.1-6.8,6.7l-2.7-2.8c2.6-2.3,4.7-4.4,6.6-6.5
			c2.6-2.9,3.2-4.8,3.2-7.8V7.5h4.2v9.3c0,3.3,0.8,5,3.4,7.9c1.8,2,3.7,3.7,6.2,6l-2.7,2.9c-2.9-2.7-4.8-4.6-6.4-6.3
			C199.8,26,198.8,24.8,198.4,24L198.4,24z M223.2,22.3h-6v21.1h-4.2V4.7h4.2v14h6V22.3z"/>
		<path style="fill:#FFFFFF;" d="M236.8,19.9c-0.3,0.7-1.5,2.1-2.8,3.3c-1.8,1.6-4.1,3.4-6.4,5l-2.4-3c2.7-1.9,5.3-3.9,6.7-5.3
			c2.1-1.9,2.7-3.6,2.7-6.7v-2.6h-8.1V7.2h20v3.6h-7.6v2.4c0,2.7,0.4,4.3,2.2,5.8c2,1.8,4.2,3.4,6.6,5l-2.4,3c-2.2-1.5-4-2.9-6-4.6
			C238,21.3,237.2,20.6,236.8,19.9L236.8,19.9z M236.7,39.4h20.8V43h-25V30h4.2V39.4z M252.6,32.3V18.1h-7.1v-3.6h7.1V4.7h4.1v27.6
			H252.6z"/>
	</g>
</g>
</svg>
