<?xml version="1.0" encoding="utf-8"?>
<!-- Generator: Adobe Illustrator 19.2.1, SVG Export Plug-In . SVG Version: 6.00 Build 0)  -->
<svg version="1.1" xmlns="http://www.w3.org/2000/svg" xmlns:xlink="http://www.w3.org/1999/xlink" x="0px" y="0px" width="222px"
	 height="48px" viewBox="0 0 222 48" style="enable-background:new 0 0 222 48;" xml:space="preserve">
<g id="Layer_1" style="display:none;">
	<polyline style="display:inline;opacity:0.2;fill:#FF0000;" points="222,4 -36,4 -36,0 222,0 	"/>
	<polyline style="display:inline;opacity:0.2;fill:#FF0000;" points="222,48 -36,48 -36,44 222,44 	"/>
</g>
<g id="Layer_2">
	<g>
		<path style="fill:#FFFFFF;" d="M35.5,34v3.5H0V34h15.7v-8.3h4.2V34H35.5z M17.8,18.6c-0.5,0.8-1.9,2.1-4.7,3.8
			c-2.9,1.8-5.4,3.2-8.6,4.9L2.5,24c3.6-1.8,6.1-3.2,8.8-4.9c3.2-2.1,4.4-4,4.4-7.2v-1H4.4V7.3h26.7v3.6H19.9v1c0,3.2,1,5,4.4,7.1
			c3.2,2.1,5.3,3.2,8.8,5L31,27.3c-3.6-1.9-5.8-3.2-8.6-4.9C19.6,20.6,18.2,19.3,17.8,18.6L17.8,18.6z"/>
		<path style="fill:#FFFFFF;" d="M50.3,23.7c-0.4,0.9-1.1,1.8-2.5,3.3c-1.7,1.9-3.8,4-6.6,6.6l-2.7-2.8c2.5-2.3,4.6-4.3,6.5-6.4
			c2.8-3.1,3.2-4.7,3.2-7.8v-5.5h-8.3V7.5h20.6v3.6h-8.1v5.5c0,3.3,0.5,4.6,3.4,7.8c1.8,2,3.6,3.6,6,5.8L59.1,33
			c-2.9-2.6-4.6-4.4-6.2-6.1C51.7,25.7,50.7,24.5,50.3,23.7L50.3,23.7z M65.7,42.7V4h4.2v38.7H65.7z"/>
		<path style="fill:#FFFFFF;" d="M95.4,17.9v4.4c0,7.4-4.1,11.2-9.7,11.2s-9.7-3.8-9.7-11.2v-4.4c0-7.4,4.1-11.2,9.7-11.2
			S95.4,10.5,95.4,17.9z M91.4,21.6v-3.2c0-5.9-2.7-8-5.8-8s-5.8,2.1-5.8,8v3.2c0,5.9,2.7,8,5.8,8S91.4,27.6,91.4,21.6z M111.1,21.6
			h-6v21.1h-4.2V4h4.2v14h6V21.6z"/>
		<path style="fill:#FFFFFF;" d="M140.4,42.7V21.3h-7.5v1c0,7.4-4.1,11.2-9.7,11.2s-9.7-3.8-9.7-11.2v-4.4c0-7.4,4.1-11.2,9.7-11.2
			c5.6,0,9.7,3.7,9.7,11h7.5V4h4.2v38.7H140.4z M128.9,21.6v-3.2c0-5.9-2.7-8-5.8-8s-5.8,2.1-5.8,8v3.2c0,5.9,2.7,8,5.8,8
			S128.9,27.6,128.9,21.6z"/>
		<path style="fill:#FFFFFF;" d="M161,23.3c-0.4,0.9-1.1,1.8-2.4,3.2c-1.7,1.9-3.9,4.1-6.8,6.7l-2.7-2.8c2.6-2.3,4.7-4.4,6.6-6.5
			c2.6-2.9,3.2-4.8,3.2-7.8V6.8h4.2v9.3c0,3.3,0.8,5,3.4,7.9c1.8,2,3.7,3.7,6.2,6l-2.7,2.9c-2.9-2.7-4.8-4.6-6.4-6.3
			C162.4,25.3,161.4,24.1,161,23.3L161,23.3z M185.8,21.6h-6v21.1h-4.2V4h4.2v14h6V21.6z"/>
		<path style="fill:#FFFFFF;" d="M199.4,19.2c-0.3,0.7-1.5,2.1-2.8,3.3c-1.8,1.6-4.1,3.4-6.4,5l-2.4-3c2.7-1.9,5.3-3.9,6.7-5.3
			c2.1-1.9,2.7-3.6,2.7-6.7V10H189V6.5h20V10h-7.6v2.4c0,2.7,0.4,4.3,2.2,5.8c2,1.8,4.2,3.4,6.6,5l-2.4,3c-2.2-1.5-4-2.9-6-4.6
			C200.5,20.7,199.7,19.9,199.4,19.2L199.4,19.2z M199.2,38.7H220v3.6h-25V29.4h4.2V38.7z M215.1,31.6V17.4H208v-3.6h7.1V4h4.1v27.6
			H215.1z"/>
	</g>
</g>
</svg>
