<?xml version="1.0" encoding="utf-8"?>
<!-- Generator: Adobe Illustrator 19.2.1, SVG Export Plug-In . SVG Version: 6.00 Build 0)  -->
<svg version="1.1" xmlns="http://www.w3.org/2000/svg" xmlns:xlink="http://www.w3.org/1999/xlink" x="0px" y="0px" width="260px"
	 height="48px" viewBox="0 0 260 48" style="enable-background:new 0 0 260 48;" xml:space="preserve">
<g id="Layer_1" style="display:none;">
	<polyline style="display:inline;opacity:0.2;fill:#FF0000;" points="259,4 1,4 1,0 259,0 	"/>
	<polyline style="display:inline;opacity:0.2;fill:#FF0000;" points="259,48 1,48 1,44 259,44 	"/>
</g>
<g id="Layer_2">
	<g>
		<path style="fill:#FFFFFF;" d="M0,32.2v-3.4h3.7V11.2H0V7.8h19.4v3.4H16v17.4c1.3-0.1,2.7-0.2,4-0.4l0.3,3.3
			c-3.5,0.5-7.3,0.7-11.4,0.7H0z M10,28.8H12V11.2H7.7v17.6H10z M22.6,4.8h4v36.1h-4V21.5H18v-3.7h4.6V4.8z M33.9,42.7h-4V4h4V42.7z
			"/>
		<path style="fill:#FFFFFF;" d="M72.7,34v3.5H37.2V34H72.7z M42.2,28.1V15.8h21.3v-5.1H42V7.2h25.5v12.1H46.3v5.3h22.2v3.5H42.2z"
			/>
		<path style="fill:#FFFFFF;" d="M86.7,23.4c-0.4,0.9-1.1,1.8-2.4,3.2c-1.7,1.9-3.9,4.1-6.8,6.7l-2.7-2.8c2.6-2.3,4.7-4.4,6.6-6.5
			c2.6-2.9,3.2-4.8,3.2-7.8V6.8h4.2v9.5c0,3.3,0.8,5,3.4,7.9c1.8,2,3.7,3.7,6.2,6l-2.7,2.9c-2.9-2.7-4.8-4.6-6.4-6.3
			C88.1,25.4,87.1,24.2,86.7,23.4L86.7,23.4z M102.5,42.7V4h4.2v38.7H102.5z"/>
		<path style="fill:#FFFFFF;" d="M132.6,17.9v4.4c0,7.4-4.1,11.2-9.7,11.2s-9.7-3.8-9.7-11.2v-4.4c0-7.4,4.1-11.2,9.7-11.2
			S132.6,10.5,132.6,17.9z M128.6,21.6v-3.2c0-5.9-2.7-8-5.8-8s-5.8,2.1-5.8,8v3.2c0,5.9,2.7,8,5.8,8S128.6,27.6,128.6,21.6z
			 M148.2,21.6h-6v21.1h-4.2V4h4.2v14h6V21.6z"/>
		<path style="fill:#FFFFFF;" d="M177.5,42.7V21.3h-7.5v1c0,7.4-4.1,11.2-9.7,11.2s-9.7-3.8-9.7-11.2v-4.4c0-7.4,4.1-11.2,9.7-11.2
			c5.6,0,9.7,3.7,9.7,11h7.5V4h4.2v38.7H177.5z M166.1,21.6v-3.2c0-5.9-2.7-8-5.8-8s-5.8,2.1-5.8,8v3.2c0,5.9,2.7,8,5.8,8
			S166.1,27.6,166.1,21.6z"/>
		<path style="fill:#FFFFFF;" d="M198.2,23.3c-0.4,0.9-1.1,1.8-2.4,3.2c-1.7,1.9-3.9,4.1-6.8,6.7l-2.7-2.8c2.6-2.3,4.7-4.4,6.6-6.5
			c2.6-2.9,3.2-4.8,3.2-7.8V6.8h4.2v9.3c0,3.3,0.8,5,3.4,7.9c1.8,2,3.7,3.7,6.2,6l-2.7,2.9c-2.9-2.7-4.8-4.6-6.4-6.3
			C199.5,25.3,198.5,24.1,198.2,23.3L198.2,23.3z M222.9,21.6h-6v21.1h-4.2V4h4.2v14h6V21.6z"/>
		<path style="fill:#FFFFFF;" d="M236.5,19.2c-0.3,0.7-1.5,2.1-2.8,3.3c-1.8,1.6-4.1,3.4-6.4,5l-2.4-3c2.7-1.9,5.3-3.9,6.7-5.3
			c2.1-1.9,2.7-3.6,2.7-6.7V10h-8.1V6.5h20V10h-7.6v2.4c0,2.7,0.4,4.3,2.2,5.8c2,1.8,4.2,3.4,6.6,5l-2.4,3c-2.2-1.5-4-2.9-6-4.6
			C237.7,20.7,236.9,19.9,236.5,19.2L236.5,19.2z M236.4,38.7h20.8v3.6h-25V29.4h4.2V38.7z M252.3,31.6V17.4h-7.1v-3.6h7.1V4h4.1
			v27.6H252.3z"/>
	</g>
</g>
</svg>
