<?xml version="1.0" encoding="utf-8"?>
<!-- Generator: Adobe Illustrator 19.2.1, SVG Export Plug-In . SVG Version: 6.00 Build 0)  -->
<svg version="1.1" xmlns="http://www.w3.org/2000/svg" xmlns:xlink="http://www.w3.org/1999/xlink" x="0px" y="0px" width="182px"
	 height="48px" viewBox="0 0 182 48" style="enable-background:new 0 0 182 48;" xml:space="preserve">
<g id="Layer_1" style="display:none;">
	<polyline style="display:inline;opacity:0.2;fill:#FF0000;" points="220,4 -38,4 -38,0 220,0 	"/>
	<polyline style="display:inline;opacity:0.2;fill:#FF0000;" points="220,48 -38,48 -38,44 220,44 	"/>
</g>
<g id="Layer_2">
	<g>
		<path style="fill:#FFFFFF;" d="M4.2,7.7v20.8h1.7c3,0,7-0.2,10.4-0.8l0.4,3.5c-3.9,0.7-8.1,0.9-12.1,0.9H0V7.7H4.2z M19.2,4.8h4.1
			v36h-4.1v-21h-7.9v-3.7h7.9V4.8z M31.7,42.7h-4.1V4h4.1V42.7z"/>
		<path style="fill:#FFFFFF;" d="M36.1,18.7H40V9h-3.7V5.6h21.2V9H54v9.4c1.7-0.1,3.3-0.2,5-0.4l0.3,3.2c-5.1,0.5-9.7,0.7-23.1,0.8
			V18.7z M42.4,43V32.5h19.7v-3.7H42.2v-3.4h24v10.5H46.5v3.7h20.8V43H42.4z M50,18.5V9h-6v9.7L50,18.5z M71.7,15.3h-5.5v8.1H62V4
			h4.1v7.7h5.5V15.3z"/>
		<path style="fill:#FFFFFF;" d="M101.2,42.7V21.3h-7.5v1c0,7.4-4.1,11.2-9.7,11.2c-5.7,0-9.7-3.8-9.7-11.2v-4.4
			c0-7.4,4.1-11.2,9.7-11.2c5.6,0,9.7,3.7,9.7,11h7.5V4h4.2v38.7H101.2z M89.7,21.6v-3.2c0-5.9-2.7-8-5.8-8c-3,0-5.8,2.1-5.8,8v3.2
			c0,5.9,2.7,8,5.8,8C87,29.7,89.7,27.6,89.7,21.6z"/>
		<path style="fill:#FFFFFF;" d="M121.8,23.3c-0.4,0.9-1.1,1.8-2.4,3.2c-1.7,1.9-3.9,4.1-6.8,6.7l-2.7-2.8c2.6-2.3,4.7-4.4,6.6-6.5
			c2.6-2.9,3.2-4.8,3.2-7.8V6.8h4.2v9.3c0,3.3,0.8,5,3.4,7.9c1.8,2,3.7,3.7,6.2,6l-2.7,2.9c-2.9-2.7-4.8-4.6-6.4-6.3
			C123.2,25.3,122.2,24.1,121.8,23.3L121.8,23.3z M146.6,21.6h-6v21.1h-4.2V4h4.2v14h6V21.6z"/>
		<path style="fill:#FFFFFF;" d="M160.2,19.2c-0.3,0.7-1.5,2.1-2.8,3.3c-1.8,1.6-4.1,3.4-6.4,5l-2.4-3c2.7-1.9,5.3-3.9,6.7-5.3
			c2.1-1.9,2.7-3.6,2.7-6.7V10h-8.1V6.5h20V10h-7.6v2.4c0,2.7,0.4,4.3,2.2,5.8c2,1.8,4.2,3.4,6.6,5l-2.4,3c-2.2-1.5-4-2.9-6-4.6
			C161.4,20.7,160.5,19.9,160.2,19.2L160.2,19.2z M160,38.7h20.8v3.6h-25V29.4h4.2V38.7z M175.9,31.6V17.4h-7.1v-3.6h7.1V4h4.1v27.6
			H175.9z"/>
	</g>
</g>
</svg>
