<?xml version="1.0" encoding="utf-8"?>
<!-- Generator: Adobe Illustrator 19.2.1, SVG Export Plug-In . SVG Version: 6.00 Build 0)  -->
<svg version="1.1" xmlns="http://www.w3.org/2000/svg" xmlns:xlink="http://www.w3.org/1999/xlink" x="0px" y="0px" width="296px"
	 height="48px" viewBox="0 0 296 48" style="enable-background:new 0 0 296 48;" xml:space="preserve">
<g id="Layer_1" style="display:none;">
	<polyline style="display:inline;opacity:0.2;fill:#FF0000;" points="258,4 0,4 0,0 258,0 	"/>
	<polyline style="display:inline;opacity:0.2;fill:#FF0000;" points="258,48 0,48 0,44 258,44 	"/>
</g>
<g id="Layer_2">
	<g>
		<path style="fill:#FFFFFF;" d="M15.7,42.7V30H0v-3.5h35.5V30H19.9v12.7H15.7z M30.8,13.1v1.5c0,5-5.1,8.3-13,8.3
			c-7.9,0-13-3.4-13-8.3v-1.5c0-5,5.1-8.3,13-8.3C25.7,4.8,30.8,8.1,30.8,13.1z M26.7,14.5v-1.3c0-2.8-3.6-4.8-8.9-4.8
			c-5.4,0-8.9,2-8.9,4.8v1.3c0,2.8,3.6,4.8,8.9,4.8C23.1,19.3,26.7,17.3,26.7,14.5z"/>
		<path style="fill:#FFFFFF;" d="M72.9,34v3.5H37.4V34H72.9z M67.9,7.4V14c0,7.5-0.5,11.8-1.4,17l-4.2-0.5c0.6-3.1,1-5.9,1.2-8.8
			l-22.1,0.4l-0.1-3.5l22.4-0.3c0-0.9,0-1.8,0-2.8V11H42V7.4H67.9z"/>
		<path style="fill:#FFFFFF;" d="M81,21.6v8.1h3.5c5.6,0,8.9-0.2,13.2-0.8l0.5,3.5c-3.9,0.6-7.7,0.9-14.7,0.9h-6.6V18.1h13.2v-7.4
			H76.8V7.1h17.4v14.5H81z M111.1,21.8h-6v21H101V4h4.2v14.2h6V21.8z"/>
		<path style="fill:#FFFFFF;" d="M133.6,17.9v4.4c0,7.4-4.1,11.2-9.8,11.2s-9.8-3.8-9.8-11.2v-4.4c0-7.4,4.1-11.3,9.8-11.3
			S133.6,10.5,133.6,17.9z M129.7,21.6v-3.2c0-5.9-2.8-8.1-5.8-8.1c-3,0-5.8,2.1-5.8,8.1v3.2c0,5.9,2.8,8.1,5.8,8.1
			C126.9,29.7,129.7,27.6,129.7,21.6z M140.1,42.7V4h4.2v38.7H140.1z"/>
		<path style="fill:#FFFFFF;" d="M156,28.5h2.1c5.5,0,9.9-0.3,14.5-1.1l0.5,3.6c-5,0.9-9.4,1.2-15.7,1.2h-5.5v-25h4.2V28.5z
			 M185.8,21.4h-6v21.3h-4.2V4h4.2v13.8h6V21.4z"/>
		<path style="fill:#FFFFFF;" d="M215.1,42.7V21.3h-7.5v1c0,7.4-4.1,11.2-9.7,11.2c-5.7,0-9.7-3.8-9.7-11.2v-4.4
			c0-7.4,4.1-11.2,9.7-11.2c5.6,0,9.7,3.7,9.7,11h7.5V4h4.2v38.7H215.1z M203.7,21.6v-3.2c0-5.9-2.7-8-5.8-8c-3,0-5.8,2.1-5.8,8v3.2
			c0,5.9,2.7,8,5.8,8C200.9,29.7,203.7,27.6,203.7,21.6z"/>
		<path style="fill:#FFFFFF;" d="M235.7,23.3c-0.4,0.9-1.1,1.8-2.4,3.2c-1.7,1.9-3.9,4.1-6.8,6.7l-2.7-2.8c2.6-2.3,4.7-4.4,6.6-6.5
			c2.6-2.9,3.2-4.8,3.2-7.8V6.8h4.2v9.3c0,3.3,0.8,5,3.4,7.9c1.8,2,3.7,3.7,6.2,6l-2.7,2.9c-2.9-2.7-4.8-4.6-6.4-6.3
			C237.1,25.3,236.1,24.1,235.7,23.3L235.7,23.3z M260.5,21.6h-6v21.1h-4.2V4h4.2v14h6V21.6z"/>
		<path style="fill:#FFFFFF;" d="M274.1,19.2c-0.3,0.7-1.5,2.1-2.8,3.3c-1.8,1.6-4.1,3.4-6.4,5l-2.4-3c2.7-1.9,5.3-3.9,6.7-5.3
			c2.1-1.9,2.7-3.6,2.7-6.7V10h-8.1V6.5h20V10h-7.6v2.4c0,2.7,0.4,4.3,2.2,5.8c2,1.8,4.2,3.4,6.6,5l-2.4,3c-2.2-1.5-4-2.9-6-4.6
			C275.3,20.7,274.5,19.9,274.1,19.2L274.1,19.2z M274,38.7h20.8v3.6h-25V29.4h4.2V38.7z M289.9,31.6V17.4h-7.1v-3.6h7.1V4h4.1v27.6
			H289.9z"/>
	</g>
</g>
</svg>
