<?xml version="1.0" encoding="utf-8"?>
<!-- Generator: Adobe Illustrator 19.2.1, SVG Export Plug-In . SVG Version: 6.00 Build 0)  -->
<svg version="1.1" xmlns="http://www.w3.org/2000/svg" xmlns:xlink="http://www.w3.org/1999/xlink" x="0px" y="0px" width="260px"
	 height="48px" viewBox="0 0 260 48" style="enable-background:new 0 0 260 48;" xml:space="preserve">
<g id="Layer_1" style="display:none;">
	<polyline style="display:inline;opacity:0.2;fill:#FF0000;" points="259,4 1,4 1,0 259,0 	"/>
	<polyline style="display:inline;opacity:0.2;fill:#FF0000;" points="259,48 1,48 1,44 259,44 	"/>
</g>
<g id="Layer_2">
	<g>
		<path style="fill:#FFFFFF;" d="M31.8,22.9v3.4h-12V34h15.7v3.5H0V34h15.8v-7.6H3.7v-3.4h5.4V10.8H4V7.3h27.5v3.4h-5v12.2H31.8z
			 M13.3,22.9h9V10.8h-9V22.9z"/>
		<path style="fill:#FFFFFF;" d="M72.9,34v3.5H37.4V34H72.9z M42.4,28.1V15.8h21.3v-5.1H42.2V7.2h25.5v12.1H46.5v5.3h22.2v3.5H42.4z
			"/>
		<path style="fill:#FFFFFF;" d="M90.4,42.7v-12H74.8v-3.5h35.5v3.5H94.6v12H90.4z M105.7,23.7H79.5V6h25.6v3.5H83.7v3.6h21.2v3.5
			H83.7v3.6h22.1V23.7z"/>
		<path style="fill:#FFFFFF;" d="M126.8,9.2h-12.4V5.7h16.4v5.1c0,6.6-3.4,8.9-16.6,13.8l-1.4-3.4c11.9-4.5,13.9-6.3,13.9-10.7V9.2z
			 M118.9,43V32.4h19.7v-3.7h-19.9v-3.4h24v10.5H123v3.7h20.8V43H118.9z M148.2,15.4h-5.5v8h-4.1V4h4.1v7.8h5.5V15.4z"/>
		<path style="fill:#FFFFFF;" d="M177.7,42.7V21.3h-7.5v1c0,7.4-4.1,11.2-9.7,11.2s-9.7-3.8-9.7-11.2v-4.4c0-7.4,4.1-11.2,9.7-11.2
			c5.6,0,9.7,3.7,9.7,11h7.5V4h4.2v38.7H177.7z M166.3,21.6v-3.2c0-5.9-2.7-8-5.8-8s-5.8,2.1-5.8,8v3.2c0,5.9,2.7,8,5.8,8
			S166.3,27.6,166.3,21.6z"/>
		<path style="fill:#FFFFFF;" d="M198.4,23.3c-0.4,0.9-1.1,1.8-2.4,3.2c-1.7,1.9-3.9,4.1-6.8,6.7l-2.7-2.8c2.6-2.3,4.7-4.4,6.6-6.5
			c2.6-2.9,3.2-4.8,3.2-7.8V6.8h4.2v9.3c0,3.3,0.8,5,3.4,7.9c1.8,2,3.7,3.7,6.2,6l-2.7,2.9c-2.9-2.7-4.8-4.6-6.4-6.3
			C199.8,25.3,198.7,24.1,198.4,23.3L198.4,23.3z M223.1,21.6h-6v21.1H213V4h4.2v14h6V21.6z"/>
		<path style="fill:#FFFFFF;" d="M236.8,19.2c-0.3,0.7-1.5,2.1-2.8,3.3c-1.8,1.6-4.1,3.4-6.4,5l-2.4-3c2.7-1.9,5.3-3.9,6.7-5.3
			c2.1-1.9,2.7-3.6,2.7-6.7V10h-8.1V6.5h20V10h-7.6v2.4c0,2.7,0.4,4.3,2.2,5.8c2,1.8,4.2,3.4,6.6,5l-2.4,3c-2.2-1.5-4-2.9-6-4.6
			C237.9,20.7,237.1,19.9,236.8,19.2L236.8,19.2z M236.6,38.7h20.8v3.6h-25V29.4h4.2V38.7z M252.5,31.6V17.4h-7.1v-3.6h7.1V4h4.1
			v27.6H252.5z"/>
	</g>
</g>
</svg>
