<?xml version="1.0" encoding="utf-8"?>
<!-- Generator: Adobe Illustrator 19.2.1, SVG Export Plug-In . SVG Version: 6.00 Build 0)  -->
<svg version="1.1" xmlns="http://www.w3.org/2000/svg" xmlns:xlink="http://www.w3.org/1999/xlink" x="0px" y="0px" width="294px"
	 height="48px" viewBox="0 0 294 48" style="enable-background:new 0 0 294 48;" xml:space="preserve">
<g id="Layer_1" style="display:none;">
	<polyline style="display:inline;opacity:0.2;fill:#FF0000;" points="258,4 0,4 0,0 258,0 	"/>
	<polyline style="display:inline;opacity:0.2;fill:#FF0000;" points="258,48 0,48 0,44 258,44 	"/>
</g>
<g id="Layer_2">
	<g>
		<path style="fill:#FFFFFF;" d="M0,14.4c0-3.8,3.2-8.9,9.7-8.9c6.6,0,9.7,5,9.7,8.9v2.2c0,3.8-3.2,8.9-9.7,8.9
			c-6.6,0-9.7-5-9.7-8.9V14.4z M15.4,14.6c0-2.6-1.7-5.4-5.7-5.4S4,12,4,14.6v1.8c0,2.6,1.7,5.4,5.7,5.4c4,0,5.7-2.9,5.7-5.4V14.6z
			 M10.4,38.7h20.8v3.6h-25V29.5h4.2V38.7z M26.3,31.6V4h4.1v27.6H26.3z"/>
		<path style="fill:#FFFFFF;" d="M66.7,25.5H55.6V34h15.7v3.5H35.7V34h15.7v-8.6H40.5V7.2h25.8v3.5H44.7v11.2h22.1V25.5z"/>
		<path style="fill:#FFFFFF;" d="M79.1,7.7v20.8h1.7c3,0,7-0.2,10.4-0.8l0.4,3.5c-3.9,0.7-8.1,0.9-12.1,0.9h-4.5V7.7H79.1z
			 M94.1,4.8h4.1v36h-4.1v-21h-7.9v-3.7h7.9V4.8z M106.6,42.7h-4.1V4h4.1V42.7z"/>
		<path style="fill:#FFFFFF;" d="M122.6,23.4c-0.4,0.9-1.1,1.8-2.4,3.2c-1.7,1.9-3.9,4.1-6.8,6.7l-2.7-2.8c2.6-2.3,4.7-4.4,6.6-6.5
			c2.6-2.9,3.2-4.8,3.2-7.8V6.8h4.2v9.5c0,3.3,0.8,5,3.4,7.9c1.8,2,3.7,3.7,6.2,6l-2.7,2.9c-2.9-2.7-4.8-4.6-6.4-6.3
			C124,25.4,123,24.2,122.6,23.4L122.6,23.4z M138.4,42.7V4h4.2v38.7H138.4z"/>
		<path style="fill:#FFFFFF;" d="M168.5,17.9v4.4c0,7.4-4.1,11.2-9.7,11.2c-5.7,0-9.7-3.8-9.7-11.2v-4.4c0-7.4,4.1-11.2,9.7-11.2
			C164.5,6.6,168.5,10.5,168.5,17.9z M164.6,21.6v-3.2c0-5.9-2.7-8-5.8-8c-3,0-5.8,2.1-5.8,8v3.2c0,5.9,2.7,8,5.8,8
			C161.8,29.7,164.6,27.6,164.6,21.6z M184.2,21.6h-6v21.1h-4.2V4h4.2v14h6V21.6z"/>
		<path style="fill:#FFFFFF;" d="M213.5,42.7V21.3H206v1c0,7.4-4.1,11.2-9.7,11.2s-9.7-3.8-9.7-11.2v-4.4c0-7.4,4.1-11.2,9.7-11.2
			c5.6,0,9.7,3.7,9.7,11h7.5V4h4.2v38.7H213.5z M202,21.6v-3.2c0-5.9-2.7-8-5.8-8s-5.8,2.1-5.8,8v3.2c0,5.9,2.7,8,5.8,8
			S202,27.6,202,21.6z"/>
		<path style="fill:#FFFFFF;" d="M234.1,23.3c-0.4,0.9-1.1,1.8-2.4,3.2c-1.7,1.9-3.9,4.1-6.8,6.7l-2.7-2.8c2.6-2.3,4.7-4.4,6.6-6.5
			c2.6-2.9,3.2-4.8,3.2-7.8V6.8h4.2v9.3c0,3.3,0.8,5,3.4,7.9c1.8,2,3.7,3.7,6.2,6l-2.7,2.9c-2.9-2.7-4.8-4.6-6.4-6.3
			C235.5,25.3,234.5,24.1,234.1,23.3L234.1,23.3z M258.9,21.6h-6v21.1h-4.2V4h4.2v14h6V21.6z"/>
		<path style="fill:#FFFFFF;" d="M272.5,19.2c-0.3,0.7-1.5,2.1-2.8,3.3c-1.8,1.6-4.1,3.4-6.4,5l-2.4-3c2.7-1.9,5.2-3.9,6.7-5.3
			c2.1-1.9,2.7-3.6,2.7-6.7V10h-8.1V6.5h20V10h-7.6v2.4c0,2.7,0.4,4.3,2.2,5.8c2,1.8,4.2,3.4,6.6,5l-2.4,3c-2.2-1.5-4-2.9-6-4.6
			C273.7,20.7,272.8,19.9,272.5,19.2L272.5,19.2z M272.3,38.7h20.8v3.6h-25V29.4h4.2V38.7z M288.2,31.6V17.4h-7.1v-3.6h7.1V4h4.1
			v27.6H288.2z"/>
	</g>
</g>
</svg>
