<?xml version="1.0" encoding="utf-8"?>
<!-- Generator: Adobe Illustrator 19.2.1, SVG Export Plug-In . SVG Version: 6.00 Build 0)  -->
<svg version="1.1" xmlns="http://www.w3.org/2000/svg" xmlns:xlink="http://www.w3.org/1999/xlink" x="0px" y="0px" width="184px"
	 height="48px" viewBox="0 0 184 48" style="enable-background:new 0 0 184 48;" xml:space="preserve">
<g id="Layer_1" style="display:none;">
	<polyline style="display:inline;opacity:0.2;fill:#FF0000;" points="221,4 -37,4 -37,0 221,0 	"/>
	<polyline style="display:inline;opacity:0.2;fill:#FF0000;" points="221,48 -37,48 -37,44 221,44 	"/>
</g>
<g id="Layer_2">
	<g>
		<path style="fill:#FFFFFF;" d="M19.5,17.9v4.4c0,7.4-4.1,11.2-9.7,11.2C4.1,33.4,0,29.6,0,22.2v-4.4C0,10.4,4.1,6.6,9.7,6.6
			C15.4,6.6,19.5,10.5,19.5,17.9z M15.5,21.6v-3.2c0-5.9-2.7-8-5.8-8c-3,0-5.8,2.1-5.8,8v3.2c0,5.9,2.7,8,5.8,8
			C12.8,29.7,15.5,27.6,15.5,21.6z M35.1,21.6h-6v21.1H25V4h4.2v14h6V21.6z"/>
		<path style="fill:#FFFFFF;" d="M38,24.2v-11h13.1v-4H37.9V5.7h17.3v10.9H42.1v4.1h3.5c4.6,0,8.5-0.1,13.7-0.8l0.4,3.4
			c-4.7,0.6-8.4,0.8-14.5,0.8H38z M66.8,26.8v15.9H43.2V26.8h4.1v4.5h15.4v-4.5H66.8z M62.7,39.2v-4.5H47.3v4.5H62.7z M72.3,16.3
			h-5.5v8.7h-4.1V4h4.1v8.7h5.5V16.3z"/>
		<path style="fill:#FFFFFF;" d="M101.8,42.7V21.3h-7.5v1c0,7.4-4.1,11.2-9.7,11.2s-9.7-3.8-9.7-11.2v-4.4c0-7.4,4.1-11.2,9.7-11.2
			c5.6,0,9.7,3.7,9.7,11h7.5V4h4.2v38.7H101.8z M90.3,21.6v-3.2c0-5.9-2.7-8-5.8-8s-5.8,2.1-5.8,8v3.2c0,5.9,2.7,8,5.8,8
			S90.3,27.6,90.3,21.6z"/>
		<path style="fill:#FFFFFF;" d="M122.4,23.3c-0.4,0.9-1.1,1.8-2.4,3.2c-1.7,1.9-3.9,4.1-6.8,6.7l-2.7-2.8c2.6-2.3,4.7-4.4,6.6-6.5
			c2.6-2.9,3.2-4.8,3.2-7.8V6.8h4.2v9.3c0,3.3,0.8,5,3.4,7.9c1.8,2,3.7,3.7,6.2,6l-2.7,2.9c-2.9-2.7-4.8-4.6-6.4-6.3
			C123.8,25.3,122.8,24.1,122.4,23.3L122.4,23.3z M147.2,21.6h-6v21.1h-4.2V4h4.2v14h6V21.6z"/>
		<path style="fill:#FFFFFF;" d="M160.8,19.2c-0.3,0.7-1.5,2.1-2.8,3.3c-1.8,1.6-4.1,3.4-6.4,5l-2.4-3c2.7-1.9,5.3-3.9,6.7-5.3
			c2.1-1.9,2.7-3.6,2.7-6.7V10h-8.1V6.5h20V10h-7.6v2.4c0,2.7,0.4,4.3,2.2,5.8c2,1.8,4.2,3.4,6.6,5l-2.4,3c-2.2-1.5-4-2.9-6-4.6
			C162,20.7,161.2,19.9,160.8,19.2L160.8,19.2z M160.6,38.7h20.8v3.6h-25V29.4h4.2V38.7z M176.6,31.6V17.4h-7.1v-3.6h7.1V4h4.1v27.6
			H176.6z"/>
	</g>
</g>
</svg>
