<?xml version="1.0" encoding="utf-8"?>
<!-- Generator: Adobe Illustrator 19.2.1, SVG Export Plug-In . SVG Version: 6.00 Build 0)  -->
<svg version="1.1" xmlns="http://www.w3.org/2000/svg" xmlns:xlink="http://www.w3.org/1999/xlink" x="0px" y="0px" width="146px"
	 height="48px" viewBox="0 0 146 48" style="enable-background:new 0 0 146 48;" xml:space="preserve">
<g id="Layer_1" style="display:none;">
	<polyline style="display:inline;opacity:0.2;fill:#FF0000;" points="146,4 0,4 0,0 146,0 	"/>
	<polyline style="display:inline;opacity:0.2;fill:#FF0000;" points="146,48 0,48 0,44 146,44 	"/>
</g>
<g id="Layer_2">
	<g>
		<path style="fill:#FFFFFF;" d="M19.2,16.1c0,3.7-3,8.5-9.6,8.5C3,24.6,0,19.8,0,16.1V14c0-3.7,3-8.5,9.6-8.5
			c6.6,0,9.6,4.7,9.6,8.5V16.1z M15.2,14.2c0-2.5-1.8-5.1-5.6-5.1C5.8,9.1,4,11.7,4,14.2v1.7C4,18.4,5.8,21,9.6,21
			c3.9,0,5.6-2.6,5.6-5.1V14.2z M7.5,34.7c0-4.1,4.5-7.4,11.9-7.4c7.4,0,11.9,3.3,11.9,7.4v1.7c0,4.1-4.5,7.4-11.9,7.4
			c-7.4,0-11.9-3.3-11.9-7.4V34.7z M27.2,35c0-2.1-3-4.2-7.8-4.2c-4.8,0-7.8,2.2-7.8,4.2v1.2c0,2.1,3,4.2,7.8,4.2
			c4.8,0,7.8-2.2,7.8-4.2V35z M27.1,26.9v-5.7H21v-3.6h6.1v-5.2H21V8.8h6.1V4h4.1v22.9H27.1z"/>
		<path style="fill:#FFFFFF;" d="M64.4,42.7V21.3h-7.5v1c0,7.4-4.1,11.2-9.7,11.2s-9.7-3.8-9.7-11.2v-4.4c0-7.4,4.1-11.2,9.7-11.2
			c5.6,0,9.7,3.7,9.7,11h7.5V4h4.2v38.7H64.4z M52.9,21.6v-3.2c0-5.9-2.7-8-5.8-8s-5.8,2.1-5.8,8v3.2c0,5.9,2.7,8,5.8,8
			S52.9,27.6,52.9,21.6z"/>
		<path style="fill:#FFFFFF;" d="M85,23.3c-0.4,0.9-1.1,1.8-2.4,3.2c-1.7,1.9-3.9,4.1-6.8,6.7L73,30.4c2.6-2.3,4.7-4.4,6.6-6.5
			c2.6-2.9,3.2-4.8,3.2-7.8V6.8h4.2v9.3c0,3.3,0.8,5,3.4,7.9c1.8,2,3.7,3.7,6.2,6L94,32.9c-2.9-2.7-4.8-4.6-6.4-6.3
			C86.4,25.3,85.4,24.1,85,23.3L85,23.3z M109.8,21.6h-6v21.1h-4.2V4h4.2v14h6V21.6z"/>
		<path style="fill:#FFFFFF;" d="M123.4,19.2c-0.3,0.7-1.5,2.1-2.8,3.3c-1.8,1.6-4.1,3.4-6.4,5l-2.4-3c2.7-1.9,5.3-3.9,6.7-5.3
			c2.1-1.9,2.7-3.6,2.7-6.7V10H113V6.5h20V10h-7.6v2.4c0,2.7,0.4,4.3,2.2,5.8c2,1.8,4.2,3.4,6.6,5l-2.4,3c-2.2-1.5-4-2.9-6-4.6
			C124.6,20.7,123.7,19.9,123.4,19.2L123.4,19.2z M123.2,38.7h20.8v3.6h-25V29.4h4.2V38.7z M139.1,31.6V17.4H132v-3.6h7.1V4h4.1
			v27.6H139.1z"/>
	</g>
</g>
</svg>
