<svg id="Layer_1" data-name="Layer 1" xmlns="http://www.w3.org/2000/svg" width="56" height="48" viewBox="0 0 56 48">
  <title>33_번역기2_비활성화</title>
  <path d="M15,14.4h7.7V5.8h2.5V29.3H22.7V16.6H15v7.2H0V7.5H2.4v6H12.5v-6H15v6.9ZM2.4,21.7H12.5V15.8H2.4v5.9ZM7.6,36.1H26v2.2H5V27.8H7.6v8.3Z" fill="#fff"/>
  <path d="M30.1,16.1v-2a7.4,7.4,0,0,1,7.6-7,7.3,7.3,0,0,1,7.6,7v2a7.3,7.3,0,0,1-7.6,7A7.3,7.3,0,0,1,30.1,16.1Zm2.4-1.8v1.6c0,2.8,2.2,4.9,5.3,4.9a5,5,0,0,0,5.3-4.9V14.3c0-2.8-2.2-4.9-5.3-4.9A5,5,0,0,0,32.5,14.3Zm2.4,12.5H55V39H52.6V29H34.9V26.8ZM52.7,10.3V5.8h2.4v19H52.7V20H47.1V17.8h5.6V12.5H47.1V10.3h5.6Z" fill="#fff"/>
</svg>
