<svg id="Layer_1" data-name="Layer 1" xmlns="http://www.w3.org/2000/svg" width="124" height="48" viewBox="0 0 124 48">
  <title>01_영어사전_비활성화</title>
  <g id="Layer_2" data-name="Layer 2">
    <g>
      <path d="M0,16.2V14.1c0-3.3,3-6.9,8-6.9s8,3.7,8,6.9v2.1c0,3.3-3,6.9-8,6.9S0,19.5,0,16.2Zm2.4-1.9V16c0,2.8,2.3,4.9,5.6,4.9s5.6-2.1,5.6-4.9V14.3c0-2.8-2.3-4.9-5.6-4.9S2.4,11.6,2.4,14.3ZM26.3,32v1.4c0,3.8-4.6,6.2-10,6.2s-10-2.4-10-6.2V32c0-3.9,4.6-6.1,10-6.1S26.3,28.3,26.3,32Zm-2.4,1.4V32.2c0-2.6-3.7-4.1-7.5-4.1s-7.5,1.5-7.5,4.1v1.2c0,2.6,3.7,4.1,7.5,4.1S23.9,35.9,23.9,33.4ZM23.7,10.3V5.8h2.5V25.2H23.7V20H17.8V17.8h5.9V12.5H17.8V10.3h5.9Z" fill="#fff"/>
      <path d="M58.1,38.7H55.6V20H48.2v1.1c0,6-3,9.5-8.1,9.5S32,27.1,32,21.1V17.7c0-6,3-9.5,8.1-9.5s8.1,3.5,8.1,9.5h7.4V5.8h2.5V38.7ZM45.8,18.2c0-5.5-2.2-7.6-5.6-7.6s-5.6,2.1-5.6,7.6v2.5c0,5.5,2.2,7.6,5.6,7.6s5.6-2.2,5.6-7.6V18.2Z" fill="#fff"/>
      <path d="M71.3,16V8.3h2.6v7.6c0,2.8.2,4,2.2,6.2a73.7,73.7,0,0,0,6.3,6.3L80.7,30c-2.3-2.2-4.3-4.1-5.7-5.7a16.6,16.6,0,0,1-2.3-2.8h0a13.8,13.8,0,0,1-2.6,3.3,79.8,79.8,0,0,1-5.8,5.7l-1.7-1.8a56.3,56.3,0,0,0,6-5.9C70.9,20.2,71.3,18.8,71.3,16Zm17.1,2.1h5.5v2.3H88.4V38.8H85.8V5.8h2.6V18.1Z" fill="#fff"/>
      <path d="M105.5,18.3c-0.1.5-1.3,1.7-2.8,3.1a63.5,63.5,0,0,1-5.4,4.2l-1.5-1.8a61.5,61.5,0,0,0,6.2-5,5.9,5.9,0,0,0,2.2-4.9V10.2H96.8V8h17v2.2h-7.1v3.6c0,2.1.3,3.1,2.6,5.1s3.2,2.5,5.2,3.9L113,24.6c-1.5-1-3.2-2.3-4.2-3.1a19.9,19.9,0,0,1-3.3-3.2h0Zm-0.8,17.8h18.4v2.2h-21V27.4h2.6v8.7Zm15.1-21.5V5.8h2.5V29.3h-2.5V16.8h-6.9V14.6h6.9Z" fill="#fff"/>
    </g>
  </g>
</svg>
