<svg id="Layer_4" data-name="Layer 4" xmlns="http://www.w3.org/2000/svg" width="276" height="48" viewBox="0 0 276 48">
  <title>43_이용자참여번역_활성화</title>
  <g>
    <path d="M9.8,7.1a10.5,10.5,0,0,1,3.9.7,8.3,8.3,0,0,1,3.1,2.1,10.1,10.1,0,0,1,2,3.5,14.7,14.7,0,0,1,.7,4.9v4.4a14.7,14.7,0,0,1-.7,4.9,9.9,9.9,0,0,1-2,3.5,8.4,8.4,0,0,1-3.1,2.1,10.5,10.5,0,0,1-3.9.7,10.5,10.5,0,0,1-3.9-.7,8.4,8.4,0,0,1-3.1-2.1,9.9,9.9,0,0,1-2-3.5A14.7,14.7,0,0,1,0,22.7V18.3a14.9,14.9,0,0,1,.7-4.9,9.9,9.9,0,0,1,2-3.5A8.4,8.4,0,0,1,5.9,7.8,10.5,10.5,0,0,1,9.8,7.1Zm0,23.1a5.8,5.8,0,0,0,2.2-.4,4.6,4.6,0,0,0,1.8-1.4,7.4,7.4,0,0,0,1.3-2.5,12.7,12.7,0,0,0,.5-3.8V18.9a12.7,12.7,0,0,0-.5-3.8,7.1,7.1,0,0,0-1.3-2.5,4.8,4.8,0,0,0-1.8-1.4,5.7,5.7,0,0,0-2.2-.4,5.8,5.8,0,0,0-2.2.4,4.6,4.6,0,0,0-1.8,1.4,7.3,7.3,0,0,0-1.3,2.5A12.6,12.6,0,0,0,4,18.9v3.2a12.6,12.6,0,0,0,.5,3.8,7.3,7.3,0,0,0,1.3,2.5,4.6,4.6,0,0,0,1.8,1.4A5.8,5.8,0,0,0,9.8,30.2ZM26,43.2V4.5h4.2V43.2H26Z" fill="#fff"/>
    <path d="M53.2,5a24.6,24.6,0,0,1,5.1.5,14.2,14.2,0,0,1,3.9,1.4A7.3,7.3,0,0,1,64.7,9a5,5,0,0,1,.9,2.9v1.2a5.1,5.1,0,0,1-1,3.1,7.4,7.4,0,0,1-2.8,2.2v5.1H71v3.5H35.4V23.6h9.2V18.5a7.7,7.7,0,0,1-2.8-2.3,5.1,5.1,0,0,1-1-3.1V12A5,5,0,0,1,41.7,9a7.3,7.3,0,0,1,2.5-2.2,14.2,14.2,0,0,1,3.9-1.4A24.6,24.6,0,0,1,53.2,5Zm0,39.3a21.2,21.2,0,0,1-5.3-.6,13.3,13.3,0,0,1-3.8-1.6,7.3,7.3,0,0,1-2.3-2.2,4.7,4.7,0,0,1-.8-2.5V35.9a4.8,4.8,0,0,1,.8-2.5,7,7,0,0,1,2.3-2.2,14.2,14.2,0,0,1,3.8-1.6,20.6,20.6,0,0,1,5.3-.6,20.6,20.6,0,0,1,5.3.6,13.9,13.9,0,0,1,3.8,1.6,7.3,7.3,0,0,1,2.3,2.2,4.7,4.7,0,0,1,.8,2.5v1.4a4.7,4.7,0,0,1-.8,2.5,7.3,7.3,0,0,1-2.3,2.2,13.9,13.9,0,0,1-3.8,1.6A20.6,20.6,0,0,1,53.2,44.3Zm0-27.6,3.4-.3a11.5,11.5,0,0,0,2.6-.8,5,5,0,0,0,1.7-1.2,2.2,2.2,0,0,0,.6-1.5V12.1a2.2,2.2,0,0,0-.6-1.5,5.1,5.1,0,0,0-1.7-1.2,11.6,11.6,0,0,0-2.6-.8l-3.4-.3-3.4.3a11.6,11.6,0,0,0-2.6.8,5,5,0,0,0-1.7,1.2,2.2,2.2,0,0,0-.6,1.5V13a2.2,2.2,0,0,0,.6,1.5,5,5,0,0,0,1.7,1.2,11.5,11.5,0,0,0,2.6.8A19.3,19.3,0,0,0,53.2,16.7Zm0,15.7a14.9,14.9,0,0,0-3.4.4,10.7,10.7,0,0,0-2.5.9,5.1,5.1,0,0,0-1.6,1.2,2.2,2.2,0,0,0-.6,1.4V37a2.2,2.2,0,0,0,.6,1.4,5.1,5.1,0,0,0,1.6,1.2,10.7,10.7,0,0,0,2.5.9,16.4,16.4,0,0,0,6.8,0,10.7,10.7,0,0,0,2.5-.9,5.1,5.1,0,0,0,1.6-1.2,2.2,2.2,0,0,0,.6-1.4V36.3a2.2,2.2,0,0,0-.6-1.4,5.1,5.1,0,0,0-1.6-1.2,10.7,10.7,0,0,0-2.5-.9A14.9,14.9,0,0,0,53.2,32.4Zm0-12.2H50.9l-2.1-.3v3.8h9V19.8A25.6,25.6,0,0,1,53.2,20.2Z" fill="#fff"/>
    <path d="M85.4,24a6.4,6.4,0,0,1-.9,1.5l-1.6,1.8-2.9,3L76.3,34l-2.7-2.8L77,27.9l3-3.1a18.2,18.2,0,0,0,1.7-2.1,8.8,8.8,0,0,0,1-1.8,8.2,8.2,0,0,0,.5-1.8,15.7,15.7,0,0,0,.1-2.1V11.6H75V8H95.6v3.6H87.5V17a16.4,16.4,0,0,0,.1,2.2,6.9,6.9,0,0,0,.5,1.8,8.5,8.5,0,0,0,1,1.7l1.8,2.1,2.8,2.8,3.3,3-2.7,2.8L90.7,30,88,27.3l-1.6-1.8a5.7,5.7,0,0,1-1-1.5h0Zm24.7-1.6h-6V43.2H99.9V4.5h4.2V18.8h6v3.6Z" fill="#fff"/>
    <path d="M132.9,18.8a6,6,0,0,1-1,1.5,14.5,14.5,0,0,1-1.8,1.8l-3,2.5-3.4,2.5-2.4-3,3.8-2.8,2.9-2.5,1.3-1.5a6.7,6.7,0,0,0,.9-1.5,7.5,7.5,0,0,0,.5-1.6,12.4,12.4,0,0,0,.1-2V12h-8.4V8.4h8.4V4h4.2V8.4h7.9V12h-7.9a16.2,16.2,0,0,0,.1,1.7,6.7,6.7,0,0,0,.3,1.4,5.3,5.3,0,0,0,.7,1.3,6.9,6.9,0,0,0,1.1,1.2l3.1,2.6,3.5,2.5-2.4,3-3.1-2.2-2.9-2.4-1.6-1.4a3.9,3.9,0,0,1-.8-1.1h0Zm18.6,9.8V43.1H127.8V28.6h23.6ZM132,39.6h15.4V32.1H132v7.5Zm25-22.4h-5.5v9.5h-4.1V4.5h4.1v9.2h5.5v3.6Z" fill="#fff"/>
    <path d="M186.5,43.2v-16h-8.1a8.9,8.9,0,0,1-3.4,5,9.8,9.8,0,0,1-5.7,1.7,10.5,10.5,0,0,1-3.9-.7,8.3,8.3,0,0,1-3.1-2.1,9.8,9.8,0,0,1-2-3.5,14.7,14.7,0,0,1-.7-4.9V18.3a14.7,14.7,0,0,1,.7-4.9,10.1,10.1,0,0,1,2-3.5,8.2,8.2,0,0,1,3.1-2.1,10.5,10.5,0,0,1,3.9-.7,9.7,9.7,0,0,1,5.5,1.6,9,9,0,0,1,3.4,4.7h8.2V4.5h4.2V43.2h-4.2ZM169.2,30.1a5.8,5.8,0,0,0,2.2-.4,4.5,4.5,0,0,0,1.8-1.4,7.3,7.3,0,0,0,1.3-2.5,12.7,12.7,0,0,0,.5-3.8V18.9a12.7,12.7,0,0,0-.5-3.8,7.4,7.4,0,0,0-1.3-2.5,4.5,4.5,0,0,0-1.8-1.4,5.9,5.9,0,0,0-4.4,0,4.5,4.5,0,0,0-1.8,1.4,7.3,7.3,0,0,0-1.3,2.5,12.6,12.6,0,0,0-.5,3.8v3.2a12.6,12.6,0,0,0,.5,3.8,7.3,7.3,0,0,0,1.3,2.5,4.5,4.5,0,0,0,1.8,1.4A5.8,5.8,0,0,0,169.2,30.1Zm9.7-7.4v0.4a2.3,2.3,0,0,1,0,.4h7.5V17.1h-7.5q0,0.3,0,.6t0,0.6v4.4Z" fill="#fff"/>
    <path d="M233.5,32.1V17.8h-7.6v8.1H207.6V6.3h4.1v6.8h10.2V6.3h4.1v8h7.6V4.5h4.1V32.1h-4.1Zm-21.8-9.7h10.2V16.6H211.7v5.8Zm5.9,16.8h20.8v3.6h-25V30.2h4.2v8.9Z" fill="#fff"/>
    <path d="M263.1,16.5a8.2,8.2,0,0,1-.6,2.9,8,8,0,0,1-1.8,2.8,9.4,9.4,0,0,1-3,2,11.9,11.9,0,0,1-8.6,0,9.4,9.4,0,0,1-3-2,8,8,0,0,1-1.8-2.8,8.2,8.2,0,0,1-.6-2.9V14.3a8.2,8.2,0,0,1,.6-2.9,8,8,0,0,1,1.8-2.8,9.4,9.4,0,0,1,3-2,11.9,11.9,0,0,1,8.6,0,9.4,9.4,0,0,1,3,2,8,8,0,0,1,1.8,2.8,8.2,8.2,0,0,1,.6,2.9v2.1Zm-4-1.9a5.2,5.2,0,0,0-.3-1.8,4.8,4.8,0,0,0-1-1.6A5,5,0,0,0,256,9.9a7.4,7.4,0,0,0-5,0,5,5,0,0,0-1.7,1.2,4.8,4.8,0,0,0-1,1.6,5.2,5.2,0,0,0-.3,1.8v1.7a5.2,5.2,0,0,0,.3,1.8,4.8,4.8,0,0,0,1,1.6,5,5,0,0,0,1.7,1.2,7.4,7.4,0,0,0,5,0,5,5,0,0,0,1.8-1.2,4.8,4.8,0,0,0,1-1.6,5.2,5.2,0,0,0,.3-1.8V14.5Zm-9.6,14.4H275V43.6h-4.2v-11H249.5V28.9Zm21.4-2V21.7h-6.1V18.1h6.1V12.9h-6.1V9.4h6.1V4.5H275V26.9h-4.1Z" fill="#fff"/>
  </g>
</svg>
