<svg id="Layer_1" data-name="Layer 1" xmlns="http://www.w3.org/2000/svg" width="90" height="48" viewBox="0 0 90 48">
  <title>33_번역기_비활성화</title>
  <g id="Layer_2" data-name="Layer 2">
    <g>
      <path d="M15,14.4h7.7V5.8h2.5V29.3H22.7V16.6H15v7.2H0V7.5H2.4v6H12.5v-6H15v6.9ZM2.4,21.7H12.5V15.8H2.4v5.9ZM7.6,36.1H26v2.2H5V27.8H7.6v8.3Z" fill="#fff"/>
      <path d="M31.1,16.1v-2c0-3.2,3-7,8-7s8,3.7,8,7v2c0,3.3-3,7-8,7S31.1,19.4,31.1,16.1Zm2.5-1.8v1.6c0,2.8,2.3,4.9,5.6,4.9s5.6-2.2,5.6-4.9V14.3c0-2.8-2.3-4.9-5.6-4.9S33.6,11.6,33.6,14.3Zm2.5,12.5H57.2V39H54.7V29H36.1V26.8ZM54.8,10.3V5.8h2.5v19H54.8V20H48.9V17.8h5.9V12.5H48.9V10.3h5.9Z" fill="#fff"/>
      <path d="M63.6,29.2C74.7,22.9,76,20.7,76,15.4V11.3H64V9H78.4v6.5c0,6.6-1.8,9-13.5,15.8ZM89,38.7H86.4V5.8H89V38.7Z" fill="#fff"/>
    </g>
  </g>
</svg>
