<?xml version="1.0" encoding="utf-8"?>
<!-- Generator: Adobe Illustrator 19.2.1, SVG Export Plug-In . SVG Version: 6.00 Build 0)  -->
<svg version="1.1" xmlns="http://www.w3.org/2000/svg" xmlns:xlink="http://www.w3.org/1999/xlink" x="0px" y="0px" width="184px"
	 height="48px" viewBox="0 0 184 48" style="enable-background:new 0 0 184 48;" xml:space="preserve">
<g id="Layer_1" style="display:none;">
	<polyline style="display:inline;opacity:0.2;fill:#FF0000;" points="221,4 -37,4 -37,0 221,0 	"/>
	<polyline style="display:inline;opacity:0.2;fill:#FF0000;" points="221,48 -37,48 -37,44 221,44 	"/>
</g>
<g id="Layer_2">
	<g>
		<path style="fill:#FFFFFF;" d="M30.5,18.8H20v3.8h15.7v3.5H0.1v-3.5h15.7v-3.8H5.3V5.3h25.2V18.8z M5.8,36.8v-1.4
			c0-4,4.7-7,12.1-7c7.4,0,12.1,3,12.1,7v1.4c0,3.9-4.7,7-12.1,7C10.5,43.8,5.8,40.8,5.8,36.8z M26.4,8.8h-17v6.5h17V8.8z M9.9,35.7
			v0.9c0,2,3.2,3.8,8,3.8c4.7,0,8-1.8,8-3.8v-0.9c0-2-3.2-3.8-8-3.8C13.1,31.8,9.9,33.6,9.9,35.7z"/>
		<path style="fill:#FFFFFF;" d="M73,19.5V23H37.5v-3.5H51v-6.6h4.2v6.6H73z M42.1,5.1h25.6v4.5c0,1-0.1,5-0.8,8.1l-4.1-0.5
			c0.7-2.9,0.8-5.5,0.8-7.2V8.6H42.1V5.1z M42.6,43v-10h21.3v-3.3H42.4v-3.4h25.5v10H46.7v3.3h22.4V43H42.6z"/>
		<path style="fill:#FFFFFF;" d="M103.1,42.7V21.2h-7.5v1c0,7.4-4.1,11.2-9.7,11.2c-5.7,0-9.7-3.8-9.7-11.2v-4.4
			c0-7.4,4.1-11.2,9.7-11.2c5.6,0,9.7,3.7,9.7,11h7.5V4h4.2v38.7H103.1z M91.6,21.6v-3.2c0-5.9-2.7-8-5.8-8c-3,0-5.8,2.1-5.8,8v3.2
			c0,5.9,2.7,8,5.8,8C88.9,29.6,91.6,27.5,91.6,21.6z"/>
		<path style="fill:#FFFFFF;" d="M123.7,23.3c-0.4,0.9-1.1,1.8-2.4,3.2c-1.7,1.9-3.9,4.1-6.8,6.7l-2.7-2.8c2.6-2.3,4.7-4.4,6.6-6.5
			c2.6-2.9,3.2-4.8,3.2-7.8V6.8h4.2v9.3c0,3.3,0.8,5,3.4,7.9c1.8,2,3.7,3.7,6.2,6l-2.7,2.9c-2.9-2.7-4.8-4.6-6.4-6.3
			C125.1,25.3,124.1,24.1,123.7,23.3L123.7,23.3z M148.5,21.6h-6v21.1h-4.2V4h4.2v14h6V21.6z"/>
		<path style="fill:#FFFFFF;" d="M162.1,19.2c-0.3,0.7-1.5,2.1-2.8,3.3c-1.8,1.6-4.1,3.4-6.4,5l-2.4-3c2.7-1.9,5.3-3.9,6.7-5.3
			c2.1-1.9,2.7-3.6,2.7-6.7V10h-8.1V6.5h20V10h-7.6v2.4c0,2.7,0.4,4.3,2.2,5.8c2,1.8,4.2,3.4,6.6,5l-2.4,3c-2.2-1.5-4-2.9-6-4.6
			C163.3,20.7,162.4,19.9,162.1,19.2L162.1,19.2z M161.9,38.7h20.8v3.6h-25V29.4h4.2V38.7z M177.9,31.6V17.4h-7.1v-3.6h7.1V4h4.1
			v27.6H177.9z"/>
	</g>
</g>
</svg>
