<?xml version="1.0" encoding="utf-8"?>
<!-- Generator: Adobe Illustrator 19.2.1, SVG Export Plug-In . SVG Version: 6.00 Build 0)  -->
<svg version="1.1" xmlns="http://www.w3.org/2000/svg" xmlns:xlink="http://www.w3.org/1999/xlink" x="0px" y="0px" width="222px"
	 height="48px" viewBox="0 0 222 48" style="enable-background:new 0 0 222 48;" xml:space="preserve">
<g id="Layer_1" style="display:none;">
	<polyline style="display:inline;opacity:0.2;fill:#FF0000;" points="240,4 -18,4 -18,0 240,0 	"/>
	<polyline style="display:inline;opacity:0.2;fill:#FF0000;" points="240,48 -18,48 -18,44 240,44 	"/>
</g>
<g id="Layer_2">
	<g>
		<path style="fill:#FFFFFF;" d="M35.5,34v3.5H0V34H35.5z M17.8,18.7c-0.4,1-2.1,2.4-5,4.2c-2.4,1.6-5.1,3.2-8.6,5.1l-2.1-3.3
			c3.4-1.8,6-3.4,8.8-5.3c3.8-2.6,4.7-4.4,4.7-8.5V6.7h4.2V11c0,4.1,0.6,5.8,5.2,8.8c2.6,1.7,5.1,3.1,8.4,4.9l-2,3.2
			c-3.1-1.8-6.2-3.5-8.7-5.1C20,21.1,18.3,19.6,17.8,18.7L17.8,18.7z"/>
		<path style="fill:#FFFFFF;" d="M45.6,40.3V27c-2.4,0-5.1,0-8.2,0v-3.6c8.7,0,13.3,0,20.3-0.5l0.2,3.4c-3,0.3-5.5,0.4-8.1,0.5v13.3
			H45.6z M38.8,14v-1.5c0-3.2,2.8-7,8.8-7c6,0,8.8,3.8,8.8,7V14c0,3.2-2.8,7-8.8,7C41.6,20.9,38.8,17.1,38.8,14z M52.5,13.6v-0.8
			c0-1.7-1.5-4-4.9-4c-3.4,0-4.9,2.3-4.9,4v0.8c0,1.7,1.5,4,4.9,4C51,17.6,52.5,15.3,52.5,13.6z M59.7,4.7h4.1v37h-4.1v-8.6h-6.6
			v-3.5h6.6V4.7z M71.2,42.7h-4.1V4h4.1V42.7z"/>
		<path style="fill:#FFFFFF;" d="M91.1,10.1H80.3v11.8h2.3c3.7,0,6.5-0.2,10.3-0.7l0.4,3.4c-4.4,0.7-7.3,0.8-11.6,0.8h-5.5V6.6h14.8
			V10.1z M87,38.7h21.4v3.6H82.8V29.5H87V38.7z M89.1,13.7h7.4V4.5h3.9v26.1h-3.9V17.3h-7.4V13.7z M103.7,4h4v27.5h-4V4z"/>
		<path style="fill:#FFFFFF;" d="M140.4,42.7V21.3h-7.5v1c0,7.4-4.1,11.2-9.7,11.2s-9.7-3.8-9.7-11.2v-4.4c0-7.4,4.1-11.2,9.7-11.2
			c5.6,0,9.7,3.7,9.7,11h7.5V4h4.2v38.7H140.4z M128.9,21.6v-3.2c0-5.9-2.7-8-5.8-8s-5.8,2.1-5.8,8v3.2c0,5.9,2.7,8,5.8,8
			S128.9,27.6,128.9,21.6z"/>
		<path style="fill:#FFFFFF;" d="M161,23.3c-0.4,0.9-1.1,1.8-2.4,3.2c-1.7,1.9-3.9,4.1-6.8,6.7l-2.7-2.8c2.6-2.3,4.7-4.4,6.6-6.5
			c2.6-2.9,3.2-4.8,3.2-7.8V6.8h4.2v9.3c0,3.3,0.8,5,3.4,7.9c1.8,2,3.7,3.7,6.2,6l-2.7,2.9c-2.9-2.7-4.8-4.6-6.4-6.3
			C162.4,25.3,161.4,24.1,161,23.3L161,23.3z M185.8,21.6h-6v21.1h-4.2V4h4.2v14h6V21.6z"/>
		<path style="fill:#FFFFFF;" d="M199.4,19.2c-0.3,0.7-1.5,2.1-2.8,3.3c-1.8,1.6-4.1,3.4-6.4,5l-2.4-3c2.7-1.9,5.3-3.9,6.7-5.3
			c2.1-1.9,2.7-3.6,2.7-6.7V10H189V6.5h20V10h-7.6v2.4c0,2.7,0.4,4.3,2.2,5.8c2,1.8,4.2,3.4,6.6,5l-2.4,3c-2.2-1.5-4-2.9-6-4.6
			C200.5,20.7,199.7,19.9,199.4,19.2L199.4,19.2z M199.2,38.7H220v3.6h-25V29.4h4.2V38.7z M215.1,31.6V17.4H208v-3.6h7.1V4h4.1v27.6
			H215.1z"/>
	</g>
</g>
</svg>
