<?xml version="1.0" encoding="utf-8"?>
<!-- Generator: Adobe Illustrator 19.2.1, SVG Export Plug-In . SVG Version: 6.00 Build 0)  -->
<svg version="1.1" xmlns="http://www.w3.org/2000/svg" xmlns:xlink="http://www.w3.org/1999/xlink" x="0px" y="0px" width="184px"
	 height="48px" viewBox="0 0 184 48" style="enable-background:new 0 0 184 48;" xml:space="preserve">
<g id="Layer_1" style="display:none;">
	<polyline style="display:inline;opacity:0.2;fill:#FF0000;" points="184,4 0,4 0,0 184,0 	"/>
	<polyline style="display:inline;opacity:0.2;fill:#FF0000;" points="184,48 0,48 0,44 184,44 	"/>
</g>
<g id="Layer_2">
	<g>
		<path style="fill:#FFFFFF;" d="M19.2,12.5v1.7c0,3.9-3.3,8-9.6,8c-6.3,0-9.6-4.1-9.6-8v-1.7c0-3.9,3.3-8,9.6-8
			C15.9,4.5,19.2,8.7,19.2,12.5z M15.2,14v-1.2c0-2.4-2-4.6-5.6-4.6C6,8.2,4,10.4,4,12.8V14c0,2.4,2,4.7,5.6,4.7
			C13.2,18.6,15.2,16.4,15.2,14z M6.7,43V32.4h19.9v-3.7H6.5v-3.4h24.2v10.5H10.8v3.8h21V43H6.7z M26.6,23.3V4h4.1v19.3H26.6z"/>
		<path style="fill:#FFFFFF;" d="M66.4,20.8H55.9v4.1h15.7v3.5H36v-3.5h15.7v-4.1H41.1V5h4.1v4.7h17.1V5h4.1V20.8z M45.3,38.7h21.9
			v3.6h-26V31.2h4.2V38.7z M45.2,17.3h17.1v-4.2H45.2V17.3z"/>
		<path style="fill:#FFFFFF;" d="M101.6,42.7V21.3h-7.5v1c0,7.4-4.1,11.2-9.7,11.2c-5.7,0-9.7-3.8-9.7-11.2v-4.4
			c0-7.4,4.1-11.2,9.7-11.2c5.6,0,9.7,3.7,9.7,11h7.5V4h4.2v38.7H101.6z M90.1,21.6v-3.2c0-5.9-2.7-8-5.8-8c-3,0-5.8,2.1-5.8,8v3.2
			c0,5.9,2.7,8,5.8,8C87.4,29.7,90.1,27.6,90.1,21.6z"/>
		<path style="fill:#FFFFFF;" d="M122.2,23.3c-0.4,0.9-1.1,1.8-2.4,3.2c-1.7,1.9-3.9,4.1-6.8,6.7l-2.7-2.8c2.6-2.3,4.7-4.4,6.6-6.5
			c2.6-2.9,3.2-4.8,3.2-7.8V6.8h4.2v9.3c0,3.3,0.8,5,3.4,7.9c1.8,2,3.7,3.7,6.2,6l-2.7,2.9c-2.9-2.7-4.8-4.6-6.4-6.3
			C123.6,25.3,122.6,24.1,122.2,23.3L122.2,23.3z M147,21.6h-6v21.1h-4.2V4h4.2v14h6V21.6z"/>
		<path style="fill:#FFFFFF;" d="M160.6,19.2c-0.3,0.7-1.5,2.1-2.8,3.3c-1.8,1.6-4.1,3.4-6.4,5l-2.4-3c2.7-1.9,5.3-3.9,6.7-5.3
			c2.1-1.9,2.7-3.6,2.7-6.7V10h-8.1V6.5h20V10h-7.6v2.4c0,2.7,0.4,4.3,2.2,5.8c2,1.8,4.2,3.4,6.6,5l-2.4,3c-2.2-1.5-4-2.9-6-4.6
			C161.8,20.7,160.9,19.9,160.6,19.2L160.6,19.2z M160.4,38.7h20.8v3.6h-25V29.4h4.2V38.7z M176.4,31.6V17.4h-7.1v-3.6h7.1V4h4.1
			v27.6H176.4z"/>
	</g>
</g>
</svg>
