<?xml version="1.0" encoding="utf-8"?>
<!-- Generator: Adobe Illustrator 19.2.1, SVG Export Plug-In . SVG Version: 6.00 Build 0)  -->
<svg version="1.1" xmlns="http://www.w3.org/2000/svg" xmlns:xlink="http://www.w3.org/1999/xlink" x="0px" y="0px" width="222px"
	 height="48px" viewBox="0 0 222 48" style="enable-background:new 0 0 222 48;" xml:space="preserve">
<g id="Layer_1" style="display:none;">
	<polyline style="display:inline;opacity:0.2;fill:#FF0000;" points="240,4 -18,4 -18,0 240,0 	"/>
	<polyline style="display:inline;opacity:0.2;fill:#FF0000;" points="240,48 -18,48 -18,44 240,44 	"/>
</g>
<g id="Layer_2">
	<g>
		<path style="fill:#FFFFFF;" d="M22.4,11.9H0V8.3h9V3.8h4.1v4.6h9.2V11.9z M2.1,21.1v-1.3c0-3.2,3-6.6,9-6.6c6,0,9,3.4,9,6.6v1.3
			c0,3.2-3,6.6-9,6.6C5.1,27.7,2.1,24.3,2.1,21.1z M16.2,20.9v-0.8c0-1.6-1.6-3.4-5.1-3.4c-3.4,0-5.1,1.8-5.1,3.4v0.8
			c0,1.6,1.7,3.4,5.1,3.4C14.5,24.3,16.2,22.5,16.2,20.9z M32.1,36v1.3c0,3.7-4.2,6.6-11.9,6.6c-7.6,0-11.9-2.9-11.9-6.6V36
			c0-3.7,4.2-6.6,11.9-6.6C27.8,29.4,32.1,32.3,32.1,36z M28,37.1v-0.8c0-1.8-2.8-3.5-7.8-3.5c-5,0-7.8,1.7-7.8,3.5v0.8
			c0,1.8,2.8,3.5,7.8,3.5C25.2,40.6,28,39,28,37.1z M27.8,28.6v-8.9h-5.7v-3.6h5.7V4.2h4.1v24.4H27.8z"/>
		<path style="fill:#FFFFFF;" d="M37.7,31.1c13.4-7.9,13.9-10,13.9-16v-3.7H38.5V7.8h17.3v7.4c0,7.6-0.5,10-15.8,19.2L37.7,31.1z
			 M73.2,22.1h-6v20.8h-4.2V4.2h4.2v14.3h6V22.1z"/>
		<path style="fill:#FFFFFF;" d="M81.2,21.7V30h3.9c5.6,0,8.9-0.2,13.3-0.8l0.4,3.5c-3.9,0.6-7.7,0.9-14.7,0.9h-7.1V18.2h13.2v-7.4
			H77V7.2h17.4v14.5H81.2z M102.2,42.9V4.2h4.2v38.7H102.2z"/>
		<path style="fill:#FFFFFF;" d="M139.9,42.9V21.4h-7.5v1c0,7.4-4.1,11.2-9.7,11.2s-9.7-3.8-9.7-11.2V18c0-7.4,4.1-11.2,9.7-11.2
			c5.6,0,9.7,3.7,9.7,11h7.5V4.2h4.2v38.7H139.9z M128.4,21.8v-3.2c0-5.9-2.7-8-5.8-8s-5.8,2.1-5.8,8v3.2c0,5.9,2.7,8,5.8,8
			S128.4,27.7,128.4,21.8z"/>
		<path style="fill:#FFFFFF;" d="M160.5,23.5c-0.4,0.9-1.1,1.8-2.4,3.2c-1.7,1.9-3.9,4.1-6.8,6.7l-2.7-2.8c2.6-2.3,4.7-4.4,6.6-6.5
			c2.6-2.9,3.2-4.8,3.2-7.8V7h4.2v9.3c0,3.3,0.8,5,3.4,7.9c1.8,2,3.7,3.7,6.2,6l-2.7,2.9c-2.9-2.7-4.8-4.6-6.4-6.3
			C161.9,25.5,160.9,24.3,160.5,23.5L160.5,23.5z M185.3,21.8h-6v21.1h-4.2V4.2h4.2v14h6V21.8z"/>
		<path style="fill:#FFFFFF;" d="M198.9,19.4c-0.3,0.7-1.5,2.1-2.8,3.3c-1.8,1.6-4.1,3.4-6.4,5l-2.4-3c2.7-1.9,5.3-3.9,6.7-5.3
			c2.1-1.9,2.7-3.6,2.7-6.7v-2.6h-8.1V6.7h20v3.6h-7.6v2.4c0,2.7,0.4,4.3,2.2,5.8c2,1.8,4.2,3.4,6.6,5l-2.4,3c-2.2-1.5-4-2.9-6-4.6
			C200.1,20.9,199.2,20.1,198.9,19.4L198.9,19.4z M198.7,38.9h20.8v3.6h-25V29.5h4.2V38.9z M214.7,31.8V17.6h-7.1V14h7.1V4.2h4.1
			v27.6H214.7z"/>
	</g>
</g>
</svg>
