<?xml version="1.0" encoding="utf-8"?>
<!-- Generator: Adobe Illustrator 19.2.1, SVG Export Plug-In . SVG Version: 6.00 Build 0)  -->
<svg version="1.1" xmlns="http://www.w3.org/2000/svg" xmlns:xlink="http://www.w3.org/1999/xlink" x="0px" y="0px" width="222px"
	 height="48px" viewBox="0 0 222 48" style="enable-background:new 0 0 222 48;" xml:space="preserve">
<g id="Layer_1" style="display:none;">
	<polyline style="display:inline;opacity:0.2;fill:#FF0000;" points="240,4 -18,4 -18,0 240,0 	"/>
	<polyline style="display:inline;opacity:0.2;fill:#FF0000;" points="240,48 -18,48 -18,44 240,44 	"/>
</g>
<g id="Layer_2">
	<g>
		<path style="fill:#FFFFFF;" d="M4,14.6h5.2V8.3h-5V5h27.1v3.4h-5v6.3h5.2v3.4H19.9v3.2h15.7v3.4H0v-3.4h15.7v-3.2H4V14.6z M5.1,43
			v-9.5h21.3v-2.7H4.9v-3.4h25.5v9.5H9.2v2.8h22.4V43H5.1z M13.3,14.6h9V8.3h-9V14.6z"/>
		<path style="fill:#FFFFFF;" d="M39.2,26.8V14.6h13.1V9.5H39.1V6h17.3v12.1H43.3v5.2h3.5c4.2,0,10-0.3,13.7-0.8l0.3,3.5
			c-3.7,0.6-10,0.9-14.5,0.9H39.2z M48.5,38.7H69v3.6H44.3V30.7h4.2V38.7z M63.8,31.8V4H68v10.8h5.5v3.6H68v13.4H63.8z"/>
		<path style="fill:#FFFFFF;" d="M110.3,34v3.5H74.8V34H110.3z M105.8,25.8H79.5V7.3h25.8v3.6H83.7v11.4h22.1V25.8z"/>
		<path style="fill:#FFFFFF;" d="M140.4,42.7V21.3h-7.5v1c0,7.4-4.1,11.2-9.7,11.2s-9.7-3.8-9.7-11.2v-4.4c0-7.4,4.1-11.2,9.7-11.2
			c5.6,0,9.7,3.7,9.7,11h7.5V4h4.2v38.7H140.4z M128.9,21.6v-3.2c0-5.9-2.7-8-5.8-8s-5.8,2.1-5.8,8v3.2c0,5.9,2.7,8,5.8,8
			S128.9,27.6,128.9,21.6z"/>
		<path style="fill:#FFFFFF;" d="M161,23.3c-0.4,0.9-1.1,1.8-2.4,3.2c-1.7,1.9-3.9,4.1-6.8,6.7l-2.7-2.8c2.6-2.3,4.7-4.4,6.6-6.5
			c2.6-2.9,3.2-4.8,3.2-7.8V6.8h4.2v9.3c0,3.3,0.8,5,3.4,7.9c1.8,2,3.7,3.7,6.2,6l-2.7,2.9c-2.9-2.7-4.8-4.6-6.4-6.3
			C162.4,25.3,161.4,24.1,161,23.3L161,23.3z M185.8,21.6h-6v21.1h-4.2V4h4.2v14h6V21.6z"/>
		<path style="fill:#FFFFFF;" d="M199.4,19.2c-0.3,0.7-1.5,2.1-2.8,3.3c-1.8,1.6-4.1,3.4-6.4,5l-2.4-3c2.7-1.9,5.3-3.9,6.7-5.3
			c2.1-1.9,2.7-3.6,2.7-6.7V10H189V6.5h20V10h-7.6v2.4c0,2.7,0.4,4.3,2.2,5.8c2,1.8,4.2,3.4,6.6,5l-2.4,3c-2.2-1.5-4-2.9-6-4.6
			C200.5,20.7,199.7,19.9,199.4,19.2L199.4,19.2z M199.2,38.7H220v3.6h-25V29.4h4.2V38.7z M215.1,31.6V17.4H208v-3.6h7.1V4h4.1v27.6
			H215.1z"/>
	</g>
</g>
</svg>
