<?xml version="1.0" encoding="utf-8"?>
<!-- Generator: Adobe Illustrator 19.2.1, SVG Export Plug-In . SVG Version: 6.00 Build 0)  -->
<svg version="1.1" xmlns="http://www.w3.org/2000/svg" xmlns:xlink="http://www.w3.org/1999/xlink" x="0px" y="0px" width="260px"
	 height="48px" viewBox="0 0 260 48" style="enable-background:new 0 0 260 48;" xml:space="preserve">
<g id="Layer_1" style="display:none;">
	<polyline style="display:inline;opacity:0.2;fill:#FF0000;" points="259,4 1,4 1,0 259,0 	"/>
	<polyline style="display:inline;opacity:0.2;fill:#FF0000;" points="259,48 1,48 1,44 259,44 	"/>
</g>
<g id="Layer_2">
	<g>
		<path style="fill:#FFFFFF;" d="M15.7,42.7v-12H0v-3.5h35.5v3.5H19.9v12H15.7z M5,23.7V13.1h21.3V9.5H4.8V6h25.5v10.6H9.1v3.6h22.2
			v3.5H5z"/>
		<path style="fill:#FFFFFF;" d="M39.3,32.5v-25h18.3v25H39.3z M43.4,29h10.1V11.1H43.4V29z M73.7,21.6h-6v21.1h-4.2V4h4.2v14h6
			V21.6z"/>
		<path style="fill:#FFFFFF;" d="M82.1,7.2v21.5h3.7c4.6,0,8.9-0.3,13.2-1l0.5,3.6c-4.9,0.9-8.4,1.1-14.9,1.1h-6.8V7.2H82.1z
			 M102.9,42.7V4h4.2v38.7H102.9z"/>
		<path style="fill:#FFFFFF;" d="M132.8,17.9v4.4c0,7.4-4.1,11.2-9.7,11.2s-9.7-3.8-9.7-11.2v-4.4c0-7.4,4.1-11.2,9.7-11.2
			S132.8,10.5,132.8,17.9z M128.8,21.6v-3.2c0-5.9-2.7-8-5.8-8s-5.8,2.1-5.8,8v3.2c0,5.9,2.7,8,5.8,8S128.8,27.6,128.8,21.6z
			 M148.4,21.6h-6v21.1h-4.2V4h4.2v14h6V21.6z"/>
		<path style="fill:#FFFFFF;" d="M177.7,42.7V21.3h-7.5v1c0,7.4-4.1,11.2-9.7,11.2s-9.7-3.8-9.7-11.2v-4.4c0-7.4,4.1-11.2,9.7-11.2
			c5.6,0,9.7,3.7,9.7,11h7.5V4h4.2v38.7H177.7z M166.3,21.6v-3.2c0-5.9-2.7-8-5.8-8s-5.8,2.1-5.8,8v3.2c0,5.9,2.7,8,5.8,8
			S166.3,27.6,166.3,21.6z"/>
		<path style="fill:#FFFFFF;" d="M198.4,23.3c-0.4,0.9-1.1,1.8-2.4,3.2c-1.7,1.9-3.9,4.1-6.8,6.7l-2.7-2.8c2.6-2.3,4.7-4.4,6.6-6.5
			c2.6-2.9,3.2-4.8,3.2-7.8V6.8h4.2v9.3c0,3.3,0.8,5,3.4,7.9c1.8,2,3.7,3.7,6.2,6l-2.7,2.9c-2.9-2.7-4.8-4.6-6.4-6.3
			C199.8,25.3,198.7,24.1,198.4,23.3L198.4,23.3z M223.1,21.6h-6v21.1H213V4h4.2v14h6V21.6z"/>
		<path style="fill:#FFFFFF;" d="M236.8,19.2c-0.3,0.7-1.5,2.1-2.8,3.3c-1.8,1.6-4.1,3.4-6.4,5l-2.4-3c2.7-1.9,5.3-3.9,6.7-5.3
			c2.1-1.9,2.7-3.6,2.7-6.7V10h-8.1V6.5h20V10h-7.6v2.4c0,2.7,0.4,4.3,2.2,5.8c2,1.8,4.2,3.4,6.6,5l-2.4,3c-2.2-1.5-4-2.9-6-4.6
			C237.9,20.7,237.1,19.9,236.8,19.2L236.8,19.2z M236.6,38.7h20.8v3.6h-25V29.4h4.2V38.7z M252.5,31.6V17.4h-7.1v-3.6h7.1V4h4.1
			v27.6H252.5z"/>
	</g>
</g>
</svg>
