<?xml version="1.0" encoding="utf-8"?>
<!-- Generator: Adobe Illustrator 19.2.1, SVG Export Plug-In . SVG Version: 6.00 Build 0)  -->
<svg version="1.1" xmlns="http://www.w3.org/2000/svg" xmlns:xlink="http://www.w3.org/1999/xlink" x="0px" y="0px" width="218px"
	 height="48px" viewBox="0 0 218 48" style="enable-background:new 0 0 218 48;" xml:space="preserve">
<g id="Layer_1" style="display:none;">
	<polyline style="display:inline;opacity:0.2;fill:#FF0000;" points="238,4 -20,4 -20,0 238,0 	"/>
	<polyline style="display:inline;opacity:0.2;fill:#FF0000;" points="238,48 -20,48 -20,44 238,44 	"/>
</g>
<g id="Layer_2">
	<g>
		<path style="fill:#FFFFFF;" d="M4.2,21.6v8.1h3.7c5.6,0,8.9-0.2,13.2-0.8l0.5,3.5c-3.9,0.6-7.7,0.9-14.7,0.9H0.1V18.1h12.4v-7.4H0
			V7.1h16.6v14.5H4.2z M26,42.7V20.9h-6.7v-3.7H26V4h4.2v38.7H26z"/>
		<path style="fill:#FFFFFF;" d="M47.1,23.4c-0.4,0.9-1.1,1.8-2.4,3.2c-1.7,1.9-3.9,4.1-6.8,6.7l-2.7-2.8c2.6-2.3,4.7-4.4,6.6-6.5
			c2.6-2.9,3.2-4.8,3.2-7.8V6.8h4.2v9.5c0,3.3,0.8,5,3.4,7.9c1.8,2,3.7,3.7,6.2,6l-2.7,2.9c-2.9-2.7-4.8-4.6-6.4-6.3
			C48.5,25.4,47.5,24.2,47.1,23.4L47.1,23.4z M62.9,42.7V4h4.2v38.7H62.9z"/>
		<path style="fill:#FFFFFF;" d="M93,17.9v4.4c0,7.4-4.1,11.2-9.7,11.2c-5.7,0-9.7-3.8-9.7-11.2v-4.4c0-7.4,4.1-11.2,9.7-11.2
			C89,6.6,93,10.5,93,17.9z M89,21.6v-3.2c0-5.9-2.7-8-5.8-8s-5.8,2.1-5.8,8v3.2c0,5.9,2.7,8,5.8,8S89,27.6,89,21.6z M108.7,21.6h-6
			v21.1h-4.2V4h4.2v14h6V21.6z"/>
		<path style="fill:#FFFFFF;" d="M138,42.7V21.3h-7.5v1c0,7.4-4.1,11.2-9.7,11.2s-9.7-3.8-9.7-11.2v-4.4c0-7.4,4.1-11.2,9.7-11.2
			c5.6,0,9.7,3.7,9.7,11h7.5V4h4.2v38.7H138z M126.5,21.6v-3.2c0-5.9-2.7-8-5.8-8s-5.8,2.1-5.8,8v3.2c0,5.9,2.7,8,5.8,8
			S126.5,27.6,126.5,21.6z"/>
		<path style="fill:#FFFFFF;" d="M158.6,23.3c-0.4,0.9-1.1,1.8-2.4,3.2c-1.7,1.9-3.9,4.1-6.8,6.7l-2.7-2.8c2.6-2.3,4.7-4.4,6.6-6.5
			c2.6-2.9,3.2-4.8,3.2-7.8V6.8h4.2v9.3c0,3.3,0.8,5,3.4,7.9c1.8,2,3.7,3.7,6.2,6l-2.7,2.9c-2.9-2.7-4.8-4.6-6.4-6.3
			C160,25.3,159,24.1,158.6,23.3L158.6,23.3z M183.4,21.6h-6v21.1h-4.2V4h4.2v14h6V21.6z"/>
		<path style="fill:#FFFFFF;" d="M197,19.2c-0.3,0.7-1.5,2.1-2.8,3.3c-1.8,1.6-4.1,3.4-6.4,5l-2.4-3c2.7-1.9,5.3-3.9,6.7-5.3
			c2.1-1.9,2.7-3.6,2.7-6.7V10h-8.1V6.5h20V10H199v2.4c0,2.7,0.4,4.3,2.2,5.8c2,1.8,4.2,3.4,6.6,5l-2.4,3c-2.2-1.5-4-2.9-6-4.6
			C198.2,20.7,197.3,19.9,197,19.2L197,19.2z M196.8,38.7h20.8v3.6h-25V29.4h4.2V38.7z M212.7,31.6V17.4h-7.1v-3.6h7.1V4h4.1v27.6
			H212.7z"/>
	</g>
</g>
</svg>
