<?xml version="1.0" encoding="utf-8"?>
<!-- Generator: Adobe Illustrator 19.2.1, SVG Export Plug-In . SVG Version: 6.00 Build 0)  -->
<svg version="1.1" xmlns="http://www.w3.org/2000/svg" xmlns:xlink="http://www.w3.org/1999/xlink" x="0px" y="0px" width="258px"
	 height="48px" viewBox="0 0 258 48" style="enable-background:new 0 0 258 48;" xml:space="preserve">
<g id="Layer_1" style="display:none;">
	<polyline style="display:inline;opacity:0.2;fill:#FF0000;" points="258,4 0,4 0,0 258,0 	"/>
	<polyline style="display:inline;opacity:0.2;fill:#FF0000;" points="258,48 0,48 0,44 258,44 	"/>
</g>
<g id="Layer_2">
	<g>
		<path style="fill:#FFFFFF;" d="M19.6,17.9v4.4c0,7.4-4.1,11.2-9.8,11.2S0,29.6,0,22.2v-4.4C0,10.4,4.1,6.6,9.8,6.6
			S19.6,10.5,19.6,17.9z M15.6,21.6v-3.2c0-5.9-2.8-8.1-5.8-8.1c-3,0-5.8,2.1-5.8,8.1v3.2c0,5.9,2.8,8.1,5.8,8.1
			C12.8,29.7,15.6,27.6,15.6,21.6z M26,42.7V4h4.2v38.7H26z"/>
		<path style="fill:#FFFFFF;" d="M54.9,15.4H41.3v3.5c8.6,0,12.8-0.2,17.2-0.8l0.4,3.3c-5.4,0.7-10.4,0.9-21.7,0.9V5.3h18.4v3.4
			H41.3V12h13.6V15.4z M42.3,43V32.6H62v-3.5H42v-3.4h24V36H46.3v3.6h20.8V43H42.3z M71.5,15.3H66v8.4h-4.1V4H66v7.7h5.5V15.3z"/>
		<path style="fill:#FFFFFF;" d="M79.8,21.6v8.2h3.9c5.6,0,8.9-0.2,13.3-0.8l0.4,3.5c-3.9,0.6-7.7,0.9-14.7,0.9h-7.1V18.1h13.2v-7.4
			H75.5V7.1h17.4v14.5H79.8z M100.7,42.7V4h4.2v38.7H100.7z"/>
		<path style="fill:#FFFFFF;" d="M130.9,17.9v4.4c0,7.4-4.1,11.2-9.7,11.2c-5.7,0-9.7-3.8-9.7-11.2v-4.4c0-7.4,4.1-11.2,9.7-11.2
			C126.8,6.6,130.9,10.5,130.9,17.9z M126.9,21.6v-3.2c0-5.9-2.7-8-5.8-8c-3,0-5.8,2.1-5.8,8v3.2c0,5.9,2.7,8,5.8,8
			C124.2,29.7,126.9,27.6,126.9,21.6z M146.5,21.6h-6v21.1h-4.2V4h4.2v14h6V21.6z"/>
		<path style="fill:#FFFFFF;" d="M175.8,42.7V21.3h-7.5v1c0,7.4-4.1,11.2-9.7,11.2s-9.7-3.8-9.7-11.2v-4.4c0-7.4,4.1-11.2,9.7-11.2
			c5.6,0,9.7,3.7,9.7,11h7.5V4h4.2v38.7H175.8z M164.3,21.6v-3.2c0-5.9-2.7-8-5.8-8s-5.8,2.1-5.8,8v3.2c0,5.9,2.7,8,5.8,8
			S164.3,27.6,164.3,21.6z"/>
		<path style="fill:#FFFFFF;" d="M196.4,23.3c-0.4,0.9-1.1,1.8-2.4,3.2c-1.7,1.9-3.9,4.1-6.8,6.7l-2.7-2.8c2.6-2.3,4.7-4.4,6.6-6.5
			c2.6-2.9,3.2-4.8,3.2-7.8V6.8h4.2v9.3c0,3.3,0.8,5,3.4,7.9c1.8,2,3.7,3.7,6.2,6l-2.7,2.9c-2.9-2.7-4.8-4.6-6.4-6.3
			C197.8,25.3,196.8,24.1,196.4,23.3L196.4,23.3z M221.2,21.6h-6v21.1h-4.2V4h4.2v14h6V21.6z"/>
		<path style="fill:#FFFFFF;" d="M234.8,19.2c-0.3,0.7-1.5,2.1-2.8,3.3c-1.8,1.6-4.1,3.4-6.4,5l-2.4-3c2.7-1.9,5.3-3.9,6.7-5.3
			c2.1-1.9,2.7-3.6,2.7-6.7V10h-8.1V6.5h20V10h-7.6v2.4c0,2.7,0.4,4.3,2.2,5.8c2,1.8,4.2,3.4,6.6,5l-2.4,3c-2.2-1.5-4-2.9-6-4.6
			C236,20.7,235.2,19.9,234.8,19.2L234.8,19.2z M234.7,38.7h20.8v3.6h-25V29.4h4.2V38.7z M250.6,31.6V17.4h-7.1v-3.6h7.1V4h4.1v27.6
			H250.6z"/>
	</g>
</g>
</svg>
