<?xml version="1.0" encoding="utf-8"?>
<!-- Generator: Adobe Illustrator 19.2.1, SVG Export Plug-In . SVG Version: 6.00 Build 0)  -->
<svg version="1.1" xmlns="http://www.w3.org/2000/svg" xmlns:xlink="http://www.w3.org/1999/xlink" x="0px" y="0px" width="182px"
	 height="48px" viewBox="0 0 182 48" style="enable-background:new 0 0 182 48;" xml:space="preserve">
<g id="Layer_1" style="display:none;">
	<polyline style="display:inline;opacity:0.2;fill:#FF0000;" points="220,4 -38,4 -38,0 220,0 	"/>
	<polyline style="display:inline;opacity:0.2;fill:#FF0000;" points="220,48 -38,48 -38,44 220,44 	"/>
</g>
<g id="Layer_2">
	<g>
		<path style="fill:#FFFFFF;" d="M14.8,11H4.2v6.8h10v3.4h-10v7.8h2.2c3.8,0,6.6-0.1,10.6-0.6l0.4,3.5c-4.4,0.6-7.5,0.8-11.8,0.8H0
			V7.4h14.8V11z M32.2,42.7h-4.1V21.4h-4.6v19.5h-4.1v-36h4.1v13h4.6V4h4.1V42.7z"/>
		<path style="fill:#FFFFFF;" d="M40.4,29.5h11v-6.7H35.8v-3.5h25c0.7-3.1,1-6.1,1-8.7V9.1H40.4V5.6h25.5v5.3c0,2.4-0.3,5.5-0.8,8.5
			h6.2v3.5H55.5v6.7h10.8v13.6h-4.2v-10H40.4V29.5z"/>
		<path style="fill:#FFFFFF;" d="M101.4,42.7V21.3h-7.5v1c0,7.4-4.1,11.2-9.7,11.2c-5.7,0-9.7-3.8-9.7-11.2v-4.4
			c0-7.4,4.1-11.2,9.7-11.2c5.6,0,9.7,3.7,9.7,11h7.5V4h4.2v38.7H101.4z M89.9,21.6v-3.2c0-5.9-2.7-8-5.8-8c-3,0-5.8,2.1-5.8,8v3.2
			c0,5.9,2.7,8,5.8,8C87.2,29.7,89.9,27.6,89.9,21.6z"/>
		<path style="fill:#FFFFFF;" d="M122,23.3c-0.4,0.9-1.1,1.8-2.4,3.2c-1.7,1.9-3.9,4.1-6.8,6.7l-2.7-2.8c2.6-2.3,4.7-4.4,6.6-6.5
			c2.6-2.9,3.2-4.8,3.2-7.8V6.8h4.2v9.3c0,3.3,0.8,5,3.4,7.9c1.8,2,3.7,3.7,6.2,6l-2.7,2.9c-2.9-2.7-4.8-4.6-6.4-6.3
			C123.4,25.3,122.4,24.1,122,23.3L122,23.3z M146.8,21.6h-6v21.1h-4.2V4h4.2v14h6V21.6z"/>
		<path style="fill:#FFFFFF;" d="M160.4,19.2c-0.3,0.7-1.5,2.1-2.8,3.3c-1.8,1.6-4.1,3.4-6.4,5l-2.4-3c2.7-1.9,5.3-3.9,6.7-5.3
			c2.1-1.9,2.7-3.6,2.7-6.7V10H150V6.5h20V10h-7.6v2.4c0,2.7,0.4,4.3,2.2,5.8c2,1.8,4.2,3.4,6.6,5l-2.4,3c-2.2-1.5-4-2.9-6-4.6
			C161.6,20.7,160.7,19.9,160.4,19.2L160.4,19.2z M160.2,38.7h20.8v3.6h-25V29.4h4.2V38.7z M176.2,31.6V17.4H169v-3.6h7.1V4h4.1
			v27.6H176.2z"/>
	</g>
</g>
</svg>
