<?xml version="1.0" encoding="utf-8"?>
<!-- Generator: Adobe Illustrator 19.2.1, SVG Export Plug-In . SVG Version: 6.00 Build 0)  -->
<svg version="1.1" xmlns="http://www.w3.org/2000/svg" xmlns:xlink="http://www.w3.org/1999/xlink" x="0px" y="0px" width="184px"
	 height="48px" viewBox="0 0 184 48" style="enable-background:new 0 0 184 48;" xml:space="preserve">
<g id="Layer_1" style="display:none;">
	<polyline style="display:inline;opacity:0.2;fill:#FF0000;" points="203,4 -55,4 -55,0 203,0 	"/>
	<polyline style="display:inline;opacity:0.2;fill:#FF0000;" points="203,48 -55,48 -55,44 203,44 	"/>
</g>
<g id="Layer_2">
	<g>
		<path style="fill:#FFFFFF;" d="M10.3,24.2C10,25,9.3,26,8.5,27c-1.7,2-3.8,4.3-6,6.6l-2.8-2.8c2.5-2.4,4.7-4.7,6.5-7
			c1.7-2.2,2.1-4.2,2.1-6.6v-3.7h-7V9.9h7v-5h4v5h6.6v3.5h-6.6v3.7c0,2.4,0.5,4.4,2.2,6.6c1.8,2.3,3.6,4.2,6.1,6.6l-2.8,2.8
			c-2.2-2.2-4-4.1-5.7-6.1C11.2,26,10.6,25,10.3,24.2L10.3,24.2z M22.4,4.8h4.1v36h-4.1V21.5h-5.7v-3.6h5.7V4.8z M34.2,42.7h-4.1V4
			h4.1V42.7z"/>
		<path style="fill:#FFFFFF;" d="M73.4,34v3.5H37.8V34h12.9v-9h4.2v9H73.4z M68.4,7.3v5.5c0,8-0.5,12.2-1.4,17l-4.2-0.5
			c0.6-3,1-5.8,1.2-8.7l-22.1,0.4l-0.1-3.5l22.4-0.3c0-1,0-2,0-3v-3.4H42.4V7.3H68.4z"/>
		<path style="fill:#FFFFFF;" d="M103.4,42.7V21.3H96v1c0,7.4-4.1,11.2-9.7,11.2s-9.7-3.8-9.7-11.2v-4.4c0-7.4,4.1-11.2,9.7-11.2
			c5.6,0,9.7,3.7,9.7,11h7.5V4h4.2v38.7H103.4z M92,21.6v-3.2c0-5.9-2.7-8-5.8-8s-5.8,2.1-5.8,8v3.2c0,5.9,2.7,8,5.8,8
			S92,27.6,92,21.6z"/>
		<path style="fill:#FFFFFF;" d="M124,23.3c-0.4,0.9-1.1,1.8-2.4,3.2c-1.7,1.9-3.9,4.1-6.8,6.7l-2.7-2.8c2.6-2.3,4.7-4.4,6.6-6.5
			c2.6-2.9,3.2-4.8,3.2-7.8V6.8h4.2v9.3c0,3.3,0.8,5,3.4,7.9c1.8,2,3.7,3.7,6.2,6l-2.7,2.9c-2.9-2.7-4.8-4.6-6.4-6.3
			C125.4,25.3,124.4,24.1,124,23.3L124,23.3z M148.8,21.6h-6v21.1h-4.2V4h4.2v14h6V21.6z"/>
		<path style="fill:#FFFFFF;" d="M162.4,19.2c-0.3,0.7-1.5,2.1-2.8,3.3c-1.8,1.6-4.1,3.4-6.4,5l-2.4-3c2.7-1.9,5.3-3.9,6.7-5.3
			c2.1-1.9,2.7-3.6,2.7-6.7V10h-8.1V6.5h20V10h-7.6v2.4c0,2.7,0.4,4.3,2.2,5.8c2,1.8,4.2,3.4,6.6,5l-2.4,3c-2.2-1.5-4-2.9-6-4.6
			C163.6,20.7,162.8,19.9,162.4,19.2L162.4,19.2z M162.3,38.7h20.8v3.6h-25V29.4h4.2V38.7z M178.2,31.6V17.4H171v-3.6h7.1V4h4.1
			v27.6H178.2z"/>
	</g>
</g>
</svg>
