<?xml version="1.0" encoding="utf-8"?>
<!-- Generator: Adobe Illustrator 19.2.1, SVG Export Plug-In . SVG Version: 6.00 Build 0)  -->
<svg version="1.1" xmlns="http://www.w3.org/2000/svg" xmlns:xlink="http://www.w3.org/1999/xlink" x="0px" y="0px" width="184px"
	 height="48px" viewBox="0 0 184 48" style="enable-background:new 0 0 184 48;" xml:space="preserve">
<g id="Layer_1" style="display:none;">
	<polyline style="display:inline;opacity:0.2;fill:#FF0000;" points="221,4 -37,4 -37,0 221,0 	"/>
	<polyline style="display:inline;opacity:0.2;fill:#FF0000;" points="221,48 -37,48 -37,44 221,44 	"/>
</g>
<g id="Layer_2">
	<g>
		<path style="fill:#FFFFFF;" d="M22.5,12.2H0V8.7h9.1V4h4.1v4.7h9.2V12.2z M2.1,22.1v-1.3c0-3.7,3.1-7.1,9.1-7.1
			c6,0,9.1,3.5,9.1,7.1v1.3c0,3.6-3.1,7.1-9.1,7.1C5.2,29.2,2.1,25.7,2.1,22.1z M16.3,21.9v-0.8c0-2.1-1.7-4-5.1-4
			c-3.4,0-5.1,2-5.1,4v0.8c0,2.1,1.7,4,5.1,4C14.6,25.9,16.3,24,16.3,21.9z M11.4,39.1h20.8v3.6h-25V32h4.2V39.1z M27.3,32.5V4.4
			h4.1v28.1H27.3z"/>
		<path style="fill:#FFFFFF;" d="M57.8,11.5H43.7v17.8h2.6c5.5,0,10.2-0.4,14.7-1.2l0.5,3.6c-4.2,0.8-9.7,1.2-16.1,1.2h-5.9v-25
			h18.3V11.5z M64.7,43.1V4.4h4.2v38.7H64.7z"/>
		<path style="fill:#FFFFFF;" d="M102.4,43.1V21.6h-7.5v1c0,7.4-4.1,11.2-9.7,11.2c-5.7,0-9.7-3.8-9.7-11.2v-4.4
			c0-7.4,4.1-11.2,9.7-11.2c5.6,0,9.7,3.7,9.7,11h7.5V4.4h4.2v38.7H102.4z M90.9,22v-3.2c0-5.9-2.7-8-5.8-8c-3,0-5.8,2.1-5.8,8V22
			c0,5.9,2.7,8,5.8,8C88.2,30,90.9,27.9,90.9,22z"/>
		<path style="fill:#FFFFFF;" d="M123,23.7c-0.4,0.9-1.1,1.8-2.4,3.2c-1.7,1.9-3.9,4.1-6.8,6.7l-2.7-2.8c2.6-2.3,4.7-4.4,6.6-6.5
			c2.6-2.9,3.2-4.8,3.2-7.8V7.2h4.2v9.3c0,3.3,0.8,5,3.4,7.9c1.8,2,3.7,3.7,6.2,6l-2.7,2.9c-2.9-2.7-4.8-4.6-6.4-6.3
			C124.4,25.7,123.4,24.5,123,23.7L123,23.7z M147.8,22h-6v21.1h-4.2V4.4h4.2v14h6V22z"/>
		<path style="fill:#FFFFFF;" d="M161.4,19.6c-0.3,0.7-1.5,2.1-2.8,3.3c-1.8,1.6-4.1,3.4-6.4,5l-2.4-3c2.7-1.9,5.3-3.9,6.7-5.3
			c2.1-1.9,2.7-3.6,2.7-6.7v-2.6H151V6.9h20v3.6h-7.6v2.4c0,2.7,0.4,4.3,2.2,5.8c2,1.8,4.2,3.4,6.6,5l-2.4,3c-2.2-1.5-4-2.9-6-4.6
			C162.5,21.1,161.7,20.3,161.4,19.6L161.4,19.6z M161.2,39.1H182v3.6h-25V29.8h4.2V39.1z M177.1,32V17.8H170v-3.6h7.1V4.4h4.1V32
			H177.1z"/>
	</g>
</g>
</svg>
