<?xml version="1.0" encoding="utf-8"?>
<!-- Generator: Adobe Illustrator 19.2.1, SVG Export Plug-In . SVG Version: 6.00 Build 0)  -->
<svg version="1.1" xmlns="http://www.w3.org/2000/svg" xmlns:xlink="http://www.w3.org/1999/xlink" x="0px" y="0px" width="258px"
	 height="48px" viewBox="0 0 258 48" style="enable-background:new 0 0 258 48;" xml:space="preserve">
<g id="Layer_1" style="display:none;">
	<polyline style="display:inline;opacity:0.2;fill:#FF0000;" points="258,4 0,4 0,0 258,0 	"/>
	<polyline style="display:inline;opacity:0.2;fill:#FF0000;" points="258,48 0,48 0,44 258,44 	"/>
</g>
<g id="Layer_2">
	<g>
		<path style="fill:#FFFFFF;" d="M13.7,9.7H1.6V6.2h16.3v6.3c0,6.5-3,9.1-16.3,14.5L0,23.6c7.4-2.9,10.9-4.9,12.5-7L0.6,17.1
			l-0.1-3.4l13.2-0.3c0-0.3,0-0.7,0-1.1V9.7z M29.6,27.8v14.9H6V27.8H29.6z M10.1,39.2h15.4v-7.8H10.1V39.2z M35.1,16.8h-5.5v9.1
			h-4.1V4h4.1v9.2h5.5V16.8z"/>
		<path style="fill:#FFFFFF;" d="M66.9,26.7H56.2V34h15.7v3.5H36.4V34H52v-7.3H41.4V6.9h4.1v6.6h17.3V6.8h4.1V26.7z M45.5,23.2h17.3
			V17H45.5V23.2z"/>
		<path style="fill:#FFFFFF;" d="M94.8,11.1H80.7v17.8h2.6c5.5,0,10.2-0.4,14.7-1.2l0.5,3.6c-4.2,0.8-9.7,1.2-16.1,1.2h-5.9v-25
			h18.3V11.1z M101.7,42.7V4h4.2v38.7H101.7z"/>
		<path style="fill:#FFFFFF;" d="M131.8,17.9v4.4c0,7.4-4.1,11.2-9.7,11.2s-9.7-3.8-9.7-11.2v-4.4c0-7.4,4.1-11.2,9.7-11.2
			S131.8,10.5,131.8,17.9z M127.8,21.6v-3.2c0-5.9-2.7-8-5.8-8c-3,0-5.8,2.1-5.8,8v3.2c0,5.9,2.7,8,5.8,8
			C125.1,29.7,127.8,27.6,127.8,21.6z M147.4,21.6h-6v21.1h-4.2V4h4.2v14h6V21.6z"/>
		<path style="fill:#FFFFFF;" d="M176.7,42.7V21.3h-7.5v1c0,7.4-4.1,11.2-9.7,11.2s-9.7-3.8-9.7-11.2v-4.4c0-7.4,4.1-11.2,9.7-11.2
			c5.6,0,9.7,3.7,9.7,11h7.5V4h4.2v38.7H176.7z M165.3,21.6v-3.2c0-5.9-2.7-8-5.8-8s-5.8,2.1-5.8,8v3.2c0,5.9,2.7,8,5.8,8
			S165.3,27.6,165.3,21.6z"/>
		<path style="fill:#FFFFFF;" d="M197.4,23.3c-0.4,0.9-1.1,1.8-2.4,3.2c-1.7,1.9-3.9,4.1-6.8,6.7l-2.7-2.8c2.6-2.3,4.7-4.4,6.6-6.5
			c2.6-2.9,3.2-4.8,3.2-7.8V6.8h4.2v9.3c0,3.3,0.8,5,3.4,7.9c1.8,2,3.7,3.7,6.2,6l-2.7,2.9c-2.9-2.7-4.8-4.6-6.4-6.3
			C198.7,25.3,197.7,24.1,197.4,23.3L197.4,23.3z M222.1,21.6h-6v21.1H212V4h4.2v14h6V21.6z"/>
		<path style="fill:#FFFFFF;" d="M235.7,19.2c-0.3,0.7-1.5,2.1-2.8,3.3c-1.8,1.6-4.1,3.4-6.4,5l-2.4-3c2.7-1.9,5.3-3.9,6.7-5.3
			c2.1-1.9,2.7-3.6,2.7-6.7V10h-8.1V6.5h20V10h-7.6v2.4c0,2.7,0.4,4.3,2.2,5.8c2,1.8,4.2,3.4,6.6,5l-2.4,3c-2.2-1.5-4-2.9-6-4.6
			C236.9,20.7,236.1,19.9,235.7,19.2L235.7,19.2z M235.6,38.7h20.8v3.6h-25V29.4h4.2V38.7z M251.5,31.6V17.4h-7.1v-3.6h7.1V4h4.1
			v27.6H251.5z"/>
	</g>
</g>
</svg>
