<?xml version="1.0" encoding="utf-8"?>
<!-- Generator: Adobe Illustrator 19.2.1, SVG Export Plug-In . SVG Version: 6.00 Build 0)  -->
<svg version="1.1" xmlns="http://www.w3.org/2000/svg" xmlns:xlink="http://www.w3.org/1999/xlink" x="0px" y="0px" width="182px"
	 height="48px" viewBox="0 0 182 48" style="enable-background:new 0 0 182 48;" xml:space="preserve">
<g id="Layer_1" style="display:none;">
	<polyline style="display:inline;opacity:0.2;fill:#FF0000;" points="220,4 -38,4 -38,0 220,0 	"/>
	<polyline style="display:inline;opacity:0.2;fill:#FF0000;" points="220,48 -38,48 -38,44 220,44 	"/>
</g>
<g id="Layer_2">
	<g>
		<path style="fill:#FFFFFF;" d="M4.1,10.7v7.4h12.1v3.5H4.1v7.9h3.7c5.1,0,9.4-0.3,13.3-0.8l0.4,3.5c-4.5,0.7-8.7,0.9-14.7,0.9H0
			v-26h17.7v3.6H4.1z M25.5,42.7V21.6h-7V18h7V4h4.2v38.7H25.5z"/>
		<path style="fill:#FFFFFF;" d="M51.2,11H37.7V7.4h17.6v10.8c0,5.6-2.6,9.1-15.7,16.5l-2.1-3.4c10-5.5,12.9-8.4,13.5-10.9
			l-14.3,0.4l-0.1-3.6L51.2,17V11z M62.8,42.7V4H67v38.7H62.8z"/>
		<path style="fill:#FFFFFF;" d="M100.2,42.7V21.3h-7.5v1c0,7.4-4.1,11.2-9.7,11.2c-5.7,0-9.7-3.8-9.7-11.2v-4.4
			c0-7.4,4.1-11.2,9.7-11.2c5.6,0,9.7,3.7,9.7,11h7.5V4h4.2v38.7H100.2z M88.7,21.6v-3.2c0-5.9-2.7-8-5.8-8c-3,0-5.8,2.1-5.8,8v3.2
			c0,5.9,2.7,8,5.8,8C86,29.7,88.7,27.6,88.7,21.6z"/>
		<path style="fill:#FFFFFF;" d="M120.8,23.3c-0.4,0.9-1.1,1.8-2.4,3.2c-1.7,1.9-3.9,4.1-6.8,6.7l-2.7-2.8c2.6-2.3,4.7-4.4,6.6-6.5
			c2.6-2.9,3.2-4.8,3.2-7.8V6.8h4.2v9.3c0,3.3,0.8,5,3.4,7.9c1.8,2,3.7,3.7,6.2,6l-2.7,2.9c-2.9-2.7-4.8-4.6-6.4-6.3
			C122.2,25.3,121.2,24.1,120.8,23.3L120.8,23.3z M145.6,21.6h-6v21.1h-4.2V4h4.2v14h6V21.6z"/>
		<path style="fill:#FFFFFF;" d="M159.2,19.2c-0.3,0.7-1.5,2.1-2.8,3.3c-1.8,1.6-4.1,3.4-6.4,5l-2.4-3c2.7-1.9,5.3-3.9,6.7-5.3
			c2.1-1.9,2.7-3.6,2.7-6.7V10h-8.1V6.5h20V10h-7.6v2.4c0,2.7,0.4,4.3,2.2,5.8c2,1.8,4.2,3.4,6.6,5l-2.4,3c-2.2-1.5-4-2.9-6-4.6
			C160.4,20.7,159.6,19.9,159.2,19.2L159.2,19.2z M159.1,38.7h20.8v3.6h-25V29.4h4.2V38.7z M175,31.6V17.4h-7.1v-3.6h7.1V4h4.1v27.6
			H175z"/>
	</g>
</g>
</svg>
