<?xml version="1.0" encoding="utf-8"?>
<!-- Generator: Adobe Illustrator 19.2.1, SVG Export Plug-In . SVG Version: 6.00 Build 0)  -->
<svg version="1.1" xmlns="http://www.w3.org/2000/svg" xmlns:xlink="http://www.w3.org/1999/xlink" x="0px" y="0px" width="258px"
	 height="48px" viewBox="0 0 258 48" style="enable-background:new 0 0 258 48;" xml:space="preserve">
<g id="Layer_1" style="display:none;">
	<polyline style="display:inline;opacity:0.2;fill:#FF0000;" points="258,4 0,4 0,0 258,0 	"/>
	<polyline style="display:inline;opacity:0.2;fill:#FF0000;" points="258,48 0,48 0,44 258,44 	"/>
</g>
<g id="Layer_2">
	<g>
		<path style="fill:#FFFFFF;" d="M19.2,12.7v1.6c0,3.7-3.2,8-9.6,8c-6.4,0-9.6-4.4-9.6-8v-1.6c0-3.7,3.2-8,9.6-8
			C16,4.7,19.2,9.1,19.2,12.7z M15.2,14.2v-1.3c0-2.3-2.1-4.6-5.6-4.6S4,10.6,4,12.9v1.3c0,2.3,2.1,4.6,5.6,4.6S15.2,16.4,15.2,14.2
			z M5.8,43V32.4h19.7v-3.7H5.5v-3.4h24v10.5H9.8v3.8h20.8V43H5.8z M35,15.1h-5.5v8.1h-4.1V4h4.1v7.5H35V15.1z"/>
		<path style="fill:#FFFFFF;" d="M38.3,32.5V7.2h4.1v9.1h10V7.2h4.1v25.3H38.3z M42.4,29h10v-9.1h-10V29z M72.6,21.6h-6v21.2h-4.2V4
			h4.2v13.9h6V21.6z"/>
		<path style="fill:#FFFFFF;" d="M81,7.2v21.5h3.7c4.6,0,8.9-0.3,13.2-1.1l0.5,3.6c-4.9,0.9-8.4,1.1-14.9,1.1h-6.8V7.2H81z
			 M101.9,42.7V4h4.2v38.7H101.9z"/>
		<path style="fill:#FFFFFF;" d="M131.8,17.9v4.4c0,7.4-4.1,11.2-9.7,11.2s-9.7-3.8-9.7-11.2v-4.4c0-7.4,4.1-11.2,9.7-11.2
			S131.8,10.5,131.8,17.9z M127.8,21.6v-3.2c0-5.9-2.7-8-5.8-8c-3,0-5.8,2.1-5.8,8v3.2c0,5.9,2.7,8,5.8,8
			C125,29.7,127.8,27.6,127.8,21.6z M147.4,21.6h-6v21.1h-4.2V4h4.2v14h6V21.6z"/>
		<path style="fill:#FFFFFF;" d="M176.7,42.7V21.3h-7.5v1c0,7.4-4.1,11.2-9.7,11.2s-9.7-3.8-9.7-11.2v-4.4c0-7.4,4.1-11.2,9.7-11.2
			c5.6,0,9.7,3.7,9.7,11h7.5V4h4.2v38.7H176.7z M165.2,21.6v-3.2c0-5.9-2.7-8-5.8-8s-5.8,2.1-5.8,8v3.2c0,5.9,2.7,8,5.8,8
			S165.2,27.6,165.2,21.6z"/>
		<path style="fill:#FFFFFF;" d="M197.3,23.3c-0.4,0.9-1.1,1.8-2.4,3.2c-1.7,1.9-3.9,4.1-6.8,6.7l-2.7-2.8c2.6-2.3,4.7-4.4,6.6-6.5
			c2.6-2.9,3.2-4.8,3.2-7.8V6.8h4.2v9.3c0,3.3,0.8,5,3.4,7.9c1.8,2,3.7,3.7,6.2,6l-2.7,2.9c-2.9-2.7-4.8-4.6-6.4-6.3
			C198.7,25.3,197.7,24.1,197.3,23.3L197.3,23.3z M222.1,21.6h-6v21.1H212V4h4.2v14h6V21.6z"/>
		<path style="fill:#FFFFFF;" d="M235.7,19.2c-0.3,0.7-1.5,2.1-2.8,3.3c-1.8,1.6-4.1,3.4-6.4,5l-2.4-3c2.7-1.9,5.3-3.9,6.7-5.3
			c2.1-1.9,2.7-3.6,2.7-6.7V10h-8.1V6.5h20V10h-7.6v2.4c0,2.7,0.4,4.3,2.2,5.8c2,1.8,4.2,3.4,6.6,5l-2.4,3c-2.2-1.5-4-2.9-6-4.6
			C236.9,20.7,236,19.9,235.7,19.2L235.7,19.2z M235.5,38.7h20.8v3.6h-25V29.4h4.2V38.7z M251.5,31.6V17.4h-7.1v-3.6h7.1V4h4.1v27.6
			H251.5z"/>
	</g>
</g>
</svg>
