<?xml version="1.0" encoding="utf-8"?>
<!-- Generator: Adobe Illustrator 19.2.1, SVG Export Plug-In . SVG Version: 6.00 Build 0)  -->
<svg version="1.1" xmlns="http://www.w3.org/2000/svg" xmlns:xlink="http://www.w3.org/1999/xlink" x="0px" y="0px" width="110px"
	 height="48px" viewBox="0 0 110 48" style="enable-background:new 0 0 110 48;" xml:space="preserve">
<g id="Layer_1" style="display:none;">
	<polyline style="display:inline;opacity:0.2;fill:#FF0000;" points="184,4 -74,4 -74,0 184,0 	"/>
	<polyline style="display:inline;opacity:0.2;fill:#FF0000;" points="184,48 -74,48 -74,44 184,44 	"/>
</g>
<g id="Layer_2">
	<g>
		<path style="fill:#FFFFFF;" d="M21.5,24C15.6,24.8,12.1,25,0,25V6.5h17.9v3.6H4.1v11.3c8.6,0,11.2-0.2,17.1-0.8L21.5,24z
			 M9.3,38.7h20.5v3.6H5.1V29.5h4.2V38.7z M34.3,17.7h-5.5v13.9h-4.1V4h4.1v10.1h5.5V17.7z"/>
		<path style="fill:#FFFFFF;" d="M63.8,42.7V21.3h-7.5v1c0,7.4-4.1,11.2-9.7,11.2s-9.7-3.8-9.7-11.2v-4.4c0-7.4,4.1-11.2,9.7-11.2
			c5.6,0,9.7,3.7,9.7,11h7.5V4H68v38.7H63.8z M52.3,21.6v-3.2c0-5.9-2.7-8-5.8-8c-3,0-5.8,2.1-5.8,8v3.2c0,5.9,2.7,8,5.8,8
			C49.6,29.7,52.3,27.6,52.3,21.6z"/>
		<path style="fill:#FFFFFF;" d="M84.9,18.1c-0.3,0.7-1.5,2.1-2.8,3.3c-1.8,1.6-4.1,3.4-6.4,5l-2.4-3c2.7-1.9,5.2-3.8,6.7-5.3
			c2.1-2,2.8-3.6,2.8-6.7V10h-8.1V6.4h20V10h-7.7v1.3c0,2.7,0.3,4.1,2.2,5.8c2,1.8,4.2,3.4,6.6,5l-2.4,3c-2.2-1.5-4-2.9-6-4.6
			C86.1,19.5,85.3,18.7,84.9,18.1L84.9,18.1z M80.3,34.7c0-4.1,4.4-7.4,11.7-7.4c7.3,0,11.7,3.3,11.7,7.4v1.7
			c0,4.1-4.4,7.4-11.7,7.4c-7.3,0-11.7-3.3-11.7-7.4V34.7z M99.6,35c0-2.1-2.9-4.2-7.6-4.2c-4.7,0-7.6,2.2-7.6,4.2v1.2
			c0,2.1,2.9,4.2,7.6,4.2c4.7,0,7.6-2.2,7.6-4.2V35z M99.4,26.9V4h4.1v9.4h5.5V17h-5.5v9.9H99.4z"/>
	</g>
</g>
</svg>
