<?xml version="1.0" encoding="utf-8"?>
<!-- Generator: Adobe Illustrator 16.0.3, SVG Export Plug-In . SVG Version: 6.00 Build 0)  -->
<!DOCTYPE svg PUBLIC "-//W3C//DTD SVG 1.1//EN" "http://www.w3.org/Graphics/SVG/1.1/DTD/svg11.dtd">
<svg version="1.1" id="Layer_1" xmlns="http://www.w3.org/2000/svg" xmlns:xlink="http://www.w3.org/1999/xlink" x="0px" y="0px"
	 width="315.796px" height="357.316px" viewBox="0 0 315.796 357.316" style="enable-background:new 0 0 315.796 357.316;"
	 xml:space="preserve">
<g>
	<path style="fill:#FFFFFF;" d="M32.1,27.4v3.2H0v-3.2h14.2V21c-1.4-0.2-2.7-0.4-3.9-0.9c-1.2-0.4-2.2-1-3.1-1.7
		c-0.9-0.7-1.6-1.6-2.1-2.6s-0.8-2.1-0.8-3.3v-1.8c0-1.3,0.3-2.5,0.9-3.6c0.6-1.1,1.5-2,2.5-2.7c1.1-0.7,2.3-1.3,3.8-1.7
		c1.4-0.4,2.9-0.6,4.5-0.6s3.1,0.2,4.5,0.6c1.4,0.4,2.7,1,3.8,1.7c1.1,0.7,1.9,1.6,2.6,2.7c0.7,1.1,0.9,2.3,0.9,3.6v1.8
		c0,1.2-0.3,2.3-0.8,3.3s-1.2,1.8-2.1,2.6c-0.9,0.7-1.9,1.3-3.2,1.7c-1.2,0.4-2.5,0.7-3.9,0.9v6.4H32.1z M16.1,5.4
		C15,5.4,14,5.6,13,5.8c-1,0.3-1.8,0.6-2.6,1.1C9.7,7.4,9.1,8,8.7,8.7C8.2,9.3,8,10.1,8,10.9v1.4c0,0.8,0.2,1.6,0.6,2.3
		c0.4,0.7,1,1.3,1.8,1.7c0.7,0.5,1.6,0.8,2.6,1.1c1,0.3,2,0.4,3.1,0.4s2.1-0.1,3.1-0.4c1-0.3,1.8-0.6,2.6-1.1
		c0.7-0.5,1.3-1.1,1.8-1.7c0.4-0.7,0.6-1.4,0.6-2.3v-1.4c0-0.8-0.2-1.6-0.6-2.3c-0.4-0.7-1-1.3-1.8-1.7c-0.7-0.5-1.6-0.8-2.6-1.1
		C18.2,5.6,17.2,5.4,16.1,5.4z"/>
	<path style="fill:#FFFFFF;" d="M66.7,14.6v3.1H34.6v-3.1H66.7z M39.2,35.5v-9h19.2v-2.9H39v-3.1h23.1v9H42.9v2.9h20.3v3.1H39.2z
		 M43.2,1.2v7.4h19v3.2H39.4V1.2H43.2z"/>
	<path style="fill:#FFFFFF;" d="M93.1,27.1c-1.6,0.2-3.2,0.3-4.9,0.4c-1.7,0.1-3.4,0.2-5.3,0.3c-1.9,0.1-3.9,0.1-6,0.2
		c-2.1,0-4.4,0-6.9,0v-3.3c2.5,0,4.8,0,6.9,0s4-0.1,5.9-0.1c1.8-0.1,3.5-0.1,5.2-0.2c1.6-0.1,3.2-0.2,4.8-0.4L93.1,27.1z M81,19.5
		c-1.4,0-2.7-0.2-3.9-0.6c-1.1-0.4-2.1-1-2.9-1.7c-0.8-0.7-1.4-1.5-1.9-2.4c-0.4-0.9-0.6-1.9-0.6-2.9v-1.7c0-1,0.2-1.9,0.6-2.9
		c0.4-0.9,1.1-1.7,1.9-2.4C75,4.1,76,3.5,77.1,3.1s2.4-0.6,3.9-0.6c1.4,0,2.7,0.2,3.9,0.6c1.1,0.4,2.1,1,2.9,1.7
		c0.8,0.7,1.4,1.5,1.9,2.4c0.4,0.9,0.6,1.9,0.6,2.9v1.7c0,1-0.2,1.9-0.6,2.9c-0.4,0.9-1.1,1.7-1.9,2.4c-0.8,0.7-1.8,1.3-2.9,1.7
		C83.8,19.3,82.5,19.5,81,19.5z M81,16.2c0.8,0,1.5-0.1,2.2-0.4c0.7-0.3,1.3-0.6,1.8-1c0.5-0.4,0.9-0.9,1.2-1.5
		c0.3-0.6,0.4-1.1,0.4-1.7v-1.3c0-0.6-0.1-1.2-0.4-1.8c-0.2-0.5-0.6-1-1.1-1.4s-1.1-0.7-1.8-1c-0.7-0.2-1.4-0.4-2.2-0.4
		c-0.8,0-1.6,0.1-2.2,0.4c-0.6,0.3-1.3,0.6-1.8,1C76.4,7.5,76,8,75.8,8.5c-0.3,0.6-0.4,1.2-0.4,1.8v1.3c0,0.6,0.1,1.2,0.4,1.7
		c0.3,0.6,0.7,1,1.2,1.5c0.5,0.4,1.1,0.8,1.8,1C79.5,16.1,80.2,16.2,81,16.2z M94.9,35.3v-35h3.7v35H94.9z"/>
	<path style="fill:#FFFFFF;" d="M137.4,28.1c-1.6,0.2-3.1,0.3-4.6,0.4s-3.1,0.2-4.9,0.3c-1.8,0.1-3.7,0.1-5.9,0.2
		c-2.2,0-4.8,0-7.8,0v-3.2c1.9,0,3.6,0,5.2,0s3,0,4.4-0.1v-3.5c-1.1-0.1-2.1-0.4-2.9-0.7c-0.8-0.3-1.6-0.8-2.2-1.3
		c-0.6-0.5-1-1.1-1.3-1.8c-0.3-0.7-0.5-1.3-0.5-2V15c0-0.8,0.2-1.5,0.6-2.2c0.4-0.7,0.9-1.4,1.7-1.9c0.7-0.6,1.6-1,2.7-1.3
		c1.1-0.3,2.2-0.5,3.6-0.5s2.5,0.2,3.6,0.5c1.1,0.3,1.9,0.8,2.7,1.3c0.7,0.6,1.3,1.2,1.7,1.9c0.4,0.7,0.6,1.5,0.6,2.2v1.4
		c0,1.3-0.6,2.6-1.7,3.7s-2.7,1.8-4.8,2.1v3.4c1.8-0.1,3.5-0.1,5-0.2s3-0.2,4.6-0.4L137.4,28.1z M135.3,7.4H115V4.3h8.4V0h3.7v4.3
		h8.1v3.1H135.3z M125.4,19.2c0.8,0,1.5-0.1,2.1-0.3c0.6-0.2,1.1-0.4,1.5-0.7c0.4-0.3,0.7-0.6,0.9-1c0.2-0.4,0.3-0.8,0.3-1.2v-0.8
		c0-0.4-0.1-0.8-0.3-1.2c-0.2-0.4-0.5-0.7-0.9-1s-0.9-0.5-1.5-0.7c-0.6-0.2-1.3-0.3-2.1-0.3c-0.8,0-1.5,0.1-2.1,0.3
		c-0.6,0.2-1.1,0.4-1.5,0.7c-0.4,0.3-0.7,0.6-0.9,1c-0.2,0.4-0.3,0.8-0.3,1.2V16c0,0.4,0.1,0.8,0.3,1.2c0.2,0.4,0.5,0.7,0.9,1
		c0.4,0.3,0.9,0.5,1.5,0.7C123.9,19.1,124.6,19.2,125.4,19.2z M139.1,35.3v-35h3.7v35H139.1z"/>
	<path style="fill:#FFFFFF;" d="M170.4,28c-1.6,0.2-3.1,0.3-4.5,0.4s-3,0.2-4.6,0.3c-1.6,0.1-3.6,0.1-5.7,0.2s-4.7,0.1-7.7,0.1v-3.2
		c1.9,0,3.6,0,5.1,0s2.9,0,4.2-0.1v-3.5c-1.1-0.1-2-0.4-2.9-0.8c-0.8-0.4-1.6-0.8-2.1-1.4c-0.6-0.5-1-1.1-1.3-1.8
		c-0.3-0.7-0.5-1.3-0.5-2v-1.4c0-0.8,0.2-1.5,0.6-2.2c0.4-0.7,1-1.4,1.7-1.9c0.7-0.6,1.6-1,2.7-1.3c1.1-0.3,2.2-0.5,3.6-0.5
		s2.5,0.2,3.6,0.5c1.1,0.3,1.9,0.8,2.7,1.3c0.7,0.6,1.3,1.2,1.7,1.9c0.4,0.7,0.6,1.5,0.6,2.2v1.4c0,1.3-0.6,2.6-1.7,3.7
		s-2.7,1.8-4.7,2.1v3.4c1.7-0.1,3.3-0.1,4.7-0.2c1.4-0.1,2.9-0.2,4.4-0.4L170.4,28z M168.8,7.4h-20.1V4.3h8.4V0h3.7v4.3h8V7.4
		L168.8,7.4z M158.9,19.2c1.5,0,2.7-0.3,3.6-1c0.9-0.7,1.3-1.4,1.3-2.2v-0.8c0-0.8-0.4-1.6-1.3-2.2c-0.8-0.7-2-1-3.6-1
		c-1.5,0-2.7,0.3-3.6,1c-0.8,0.7-1.3,1.4-1.3,2.2V16c0,0.8,0.4,1.6,1.3,2.2C156.2,18.8,157.4,19.2,158.9,19.2z M172.1,35.3v-35h3.7
		v14h5.2v3.3h-5.2v17.7H172.1z"/>
</g>
<g>
	<path style="fill:#FFFFFF;" d="M23.4,67.6c-1.6,0.2-3.1,0.3-4.7,0.4c-1.5,0.1-3.2,0.2-5,0.3c-1.8,0.1-3.8,0.1-6,0.2
		c-2.2,0-4.7,0-7.7,0v-2.4c1.9,0,3.7,0,5.3,0c1.6,0,3.2,0,4.6-0.1v-4.3c-1.1-0.1-2-0.3-2.9-0.7c-0.9-0.3-1.6-0.8-2.3-1.3
		c-0.6-0.5-1.1-1.1-1.5-1.8c-0.3-0.6-0.5-1.3-0.5-2v-1.4c0-0.8,0.2-1.5,0.6-2.2c0.4-0.7,1-1.3,1.7-1.9c0.7-0.5,1.6-1,2.6-1.3
		c1-0.3,2.1-0.5,3.4-0.5c1.2,0,2.4,0.2,3.4,0.5c1,0.3,1.9,0.7,2.6,1.3c0.7,0.5,1.3,1.2,1.7,1.9c0.4,0.7,0.6,1.4,0.6,2.2v1.4
		c0,0.7-0.2,1.3-0.5,2c-0.3,0.6-0.8,1.2-1.3,1.7s-1.3,0.9-2.1,1.3c-0.8,0.4-1.7,0.6-2.8,0.7v4.3c2-0.1,3.8-0.1,5.5-0.2
		c1.7-0.1,3.3-0.3,4.9-0.4L23.4,67.6z M12.5,44.3h8.6v2.4h-20v-2.4h8.8V40h2.6V44.3z M11.2,50.9c-0.9,0-1.7,0.1-2.4,0.3
		c-0.7,0.2-1.3,0.5-1.8,0.9s-0.9,0.7-1.1,1.2c-0.3,0.4-0.4,0.9-0.4,1.3v1.1c0,0.5,0.1,0.9,0.4,1.3c0.3,0.4,0.6,0.8,1.1,1.2
		c0.5,0.4,1.1,0.6,1.8,0.9c0.7,0.2,1.5,0.3,2.4,0.3c0.9,0,1.7-0.1,2.4-0.3c0.7-0.2,1.3-0.5,1.8-0.9c0.5-0.4,0.9-0.8,1.1-1.2
		c0.3-0.4,0.4-0.9,0.4-1.3v-1.1c0-0.5-0.1-0.9-0.4-1.3c-0.3-0.4-0.6-0.8-1.1-1.2s-1.1-0.6-1.8-0.9C12.9,51,12.1,50.9,11.2,50.9z
		 M28.5,75h-2.7V40.3h2.7V75z"/>
	<path style="fill:#FFFFFF;" d="M56.4,67.6c-1.6,0.2-3.1,0.3-4.5,0.4s-3,0.2-4.7,0.3c-1.7,0.1-3.6,0.1-5.7,0.2c-2.1,0-4.6,0-7.5,0
		v-2.4c1.9,0,3.7,0,5.3,0c1.6,0,3.1,0,4.4-0.1v-4.3c-1.1-0.1-2-0.3-2.9-0.7c-0.9-0.3-1.6-0.8-2.2-1.3s-1.1-1.1-1.5-1.8
		c-0.4-0.7-0.5-1.3-0.5-2v-1.4c0-0.8,0.2-1.5,0.6-2.2c0.4-0.7,1-1.3,1.7-1.8c0.7-0.5,1.6-1,2.6-1.3c1-0.3,2.1-0.5,3.3-0.5
		c1.2,0,2.3,0.2,3.3,0.5c1,0.3,1.9,0.7,2.6,1.3c0.7,0.5,1.3,1.2,1.7,1.9c0.4,0.7,0.6,1.4,0.6,2.2V56c0,0.7-0.2,1.3-0.5,2
		s-0.8,1.2-1.4,1.7S49.8,60.6,49,61s-1.7,0.6-2.7,0.7V66c1.9-0.1,3.6-0.1,5.1-0.2c1.6-0.1,3.1-0.3,4.7-0.4L56.4,67.6z M46.1,44.3
		h8.5v2.4H34.7v-2.4h8.8V40h2.6V44.3L46.1,44.3z M44.8,50.9c-0.9,0-1.6,0.1-2.3,0.3c-0.7,0.2-1.3,0.5-1.8,0.8s-0.9,0.7-1.2,1.2
		s-0.4,0.9-0.4,1.4v1.1c0,0.5,0.1,0.9,0.4,1.4s0.7,0.9,1.2,1.2c0.5,0.4,1.1,0.6,1.8,0.9c0.7,0.2,1.5,0.3,2.3,0.3
		c0.8,0,1.6-0.1,2.3-0.3c0.7-0.2,1.3-0.5,1.8-0.9c0.5-0.4,0.9-0.8,1.2-1.2c0.3-0.5,0.4-0.9,0.4-1.4v-1.1c0-0.5-0.1-0.9-0.4-1.4
		c-0.3-0.5-0.7-0.9-1.2-1.2s-1.1-0.6-1.8-0.8C46.4,51,45.7,50.9,44.8,50.9z M61.5,54.7H67V57h-5.5v18h-2.7V40.3h2.7V54.7z"/>
	<path style="fill:#FFFFFF;" d="M105,41.6v12h-9.9V58h14.6v2.3H77.8V58h14.6v-4.3h-9.8v-12H105V41.6z M82,64.2h23.3v11.1h-2.7v-8.7
		H82V64.2z M85.3,51.4h17.1v-7.5H85.3V51.4z"/>
	<path style="fill:#FFFFFF;" d="M117.2,41.5h22.3v8.1h-19.6v3.6h20.4v2.2h-10.5V59h14.6v2.3h-31.9V59h14.6v-3.6h-9.8v-8.1h19.6v-3.6
		h-19.8v-2.2H117.2z M116.5,64.8h23.2v10.6h-2.6v-8.2h-20.6V64.8L116.5,64.8z"/>
</g>
<g>
	<path style="fill:#FFFFFF;" d="M4.5,90.6c0-1.2,0.3-2.4,0.9-3.4s1.4-1.9,2.5-2.6c1-0.7,2.2-1.3,3.6-1.7s2.9-0.6,4.4-0.6
		s3,0.2,4.4,0.6c1.4,0.4,2.6,1,3.6,1.7c1,0.7,1.9,1.6,2.5,2.6s0.9,2.1,0.9,3.4v1.9c0,1.1-0.3,2.2-0.8,3.2s-1.2,1.8-2.2,2.5
		c-0.9,0.7-2,1.3-3.2,1.7c-1.2,0.4-2.5,0.7-3.9,0.8v7.1h14.6v2.4H0v-2.4h14.6v-7.1c-1.4-0.1-2.7-0.4-4-0.8c-1.2-0.4-2.3-1-3.2-1.7
		c-0.9-0.7-1.6-1.5-2.1-2.5s-0.8-2-0.8-3.2V90.6z M15.9,84.9c-1.2,0-2.4,0.1-3.5,0.4c-1.1,0.3-2,0.7-2.8,1.2
		c-0.8,0.5-1.4,1.1-1.9,1.8C7.2,89,7,89.8,7,90.7v1.6c0,0.9,0.2,1.6,0.7,2.4c0.5,0.7,1.1,1.3,1.9,1.8c0.8,0.5,1.7,0.9,2.8,1.2
		c1.1,0.3,2.2,0.4,3.5,0.4c1.2,0,2.4-0.1,3.4-0.4c1.1-0.3,2-0.7,2.8-1.2c0.8-0.5,1.4-1.1,1.9-1.8c0.5-0.7,0.7-1.5,0.7-2.4v-1.6
		c0-0.9-0.2-1.6-0.7-2.4c-0.5-0.7-1.1-1.3-1.9-1.8c-0.8-0.5-1.7-0.9-2.8-1.2C18.3,85,17.2,84.9,15.9,84.9z"/>
	<path style="fill:#FFFFFF;" d="M66.5,95v2.3H34.6V95H66.5z M61.7,100.9v8.3H42v3.8h20.8v2.3H39.3V107h19.8v-3.8h-20v-2.3H61.7z
		 M42.1,89H62v2.4H39.4V81.1h2.7V89z"/>
	<path style="fill:#FFFFFF;" d="M93.3,106.5c-1.6,0.2-3.1,0.3-4.7,0.4c-1.5,0.1-3.2,0.2-5,0.3c-1.8,0.1-3.8,0.1-6,0.2
		c-2.2,0-4.7,0-7.7,0V105c2.8,0,5.2,0,7.4,0c2.2,0,4.2-0.1,6-0.1c1.8-0.1,3.5-0.2,5.1-0.3c1.5-0.1,3.1-0.2,4.5-0.4L93.3,106.5z
		 M80.9,99.1c-1.2,0-2.4-0.2-3.5-0.6s-2-0.9-2.9-1.6c-0.8-0.7-1.5-1.4-2-2.3s-0.7-1.8-0.7-2.9V90c0-1,0.2-2,0.7-2.9s1.1-1.7,2-2.3
		c0.8-0.7,1.8-1.2,2.9-1.6c1.1-0.4,2.3-0.6,3.5-0.6c1.2,0,2.4,0.2,3.5,0.6c1.1,0.4,2,0.9,2.9,1.6c0.8,0.7,1.5,1.4,2,2.3
		C89.7,88,90,88.9,90,90v1.8c0,1-0.2,2-0.7,2.9c-0.5,0.9-1.1,1.7-2,2.3c-0.8,0.7-1.8,1.2-2.9,1.6C83.3,98.9,82.2,99.1,80.9,99.1z
		 M80.9,85c-0.8,0-1.6,0.1-2.4,0.4c-0.8,0.3-1.5,0.6-2.1,1.1s-1.1,1-1.4,1.6c-0.4,0.6-0.5,1.3-0.5,2v1.5c0,0.7,0.2,1.4,0.5,2
		c0.4,0.6,0.8,1.2,1.4,1.6c0.6,0.4,1.3,0.8,2.1,1.1c0.8,0.3,1.6,0.4,2.4,0.4c0.8,0,1.6-0.1,2.4-0.4c0.8-0.3,1.5-0.6,2.1-1.1
		s1.1-1,1.4-1.6c0.4-0.6,0.5-1.3,0.5-2v-1.5c0-0.7-0.2-1.4-0.5-2c-0.4-0.6-0.8-1.2-1.4-1.6c-0.6-0.5-1.3-0.8-2.1-1.1
		C82.6,85.1,81.8,85,80.9,85z M98.4,115h-2.7V80.3h2.7V115z"/>
	<path style="fill:#FFFFFF;" d="M137.4,107.6c-1.6,0.2-3.1,0.3-4.7,0.4c-1.5,0.1-3.2,0.2-5,0.3c-1.8,0.1-3.8,0.1-6,0.2
		c-2.2,0.1-4.7,0-7.7,0v-2.4c1.9,0,3.7,0,5.3,0c1.6,0,3.2,0,4.6-0.1v-4.3c-1.1-0.1-2-0.3-2.9-0.7s-1.6-0.8-2.3-1.3
		c-0.6-0.5-1.1-1.1-1.5-1.8c-0.3-0.6-0.5-1.3-0.5-2v-1.4c0-0.8,0.2-1.5,0.6-2.2c0.4-0.7,1-1.3,1.7-1.9c0.7-0.5,1.6-1,2.6-1.3
		c1-0.3,2.1-0.5,3.4-0.5c1.2,0,2.4,0.2,3.4,0.5c1,0.3,1.9,0.7,2.6,1.3c0.7,0.5,1.3,1.2,1.7,1.9c0.4,0.7,0.6,1.4,0.6,2.2v1.4
		c0,0.7-0.2,1.3-0.5,2c-0.3,0.6-0.8,1.2-1.3,1.7c-0.6,0.5-1.3,0.9-2.1,1.3c-0.8,0.4-1.7,0.6-2.8,0.7v4.3c2,0,3.8-0.1,5.5-0.2
		c1.7-0.1,3.3-0.3,4.9-0.4L137.4,107.6z M126.5,84.3h8.6v2.4h-20v-2.4h8.8V80h2.6V84.3z M125.2,90.9c-0.9,0-1.7,0.1-2.4,0.3
		c-0.7,0.2-1.3,0.5-1.8,0.9s-0.9,0.7-1.1,1.2c-0.2,0.5-0.4,0.9-0.4,1.3v1.1c0,0.5,0.1,0.9,0.4,1.3c0.3,0.4,0.6,0.8,1.1,1.2
		c0.5,0.4,1.1,0.6,1.8,0.9c0.7,0.2,1.5,0.3,2.4,0.3c0.9,0,1.7-0.1,2.4-0.3c0.7-0.2,1.3-0.5,1.8-0.9c0.5-0.4,0.9-0.8,1.1-1.2
		c0.3-0.4,0.4-0.9,0.4-1.3v-1.1c0-0.5-0.1-0.9-0.4-1.3c-0.3-0.4-0.6-0.8-1.1-1.2s-1.1-0.6-1.8-0.9C126.9,91,126.1,90.9,125.2,90.9z
		 M142.5,115h-2.7V80.3h2.7V115z"/>
	<path style="fill:#FFFFFF;" d="M170.4,107.6c-1.6,0.2-3.1,0.3-4.5,0.4s-3,0.2-4.7,0.3c-1.7,0.1-3.6,0.1-5.7,0.2c-2.1,0-4.6,0-7.5,0
		v-2.4c1.9,0,3.7,0,5.3,0c1.6,0,3.1,0,4.4-0.1v-4.3c-1.1-0.1-2-0.3-2.9-0.7c-0.9-0.3-1.6-0.8-2.2-1.3s-1.1-1.1-1.5-1.8
		c-0.3-0.6-0.5-1.3-0.5-2v-1.4c0-0.8,0.2-1.5,0.6-2.2c0.4-0.7,1-1.3,1.7-1.8c0.7-0.5,1.6-1,2.6-1.3c1-0.3,2.1-0.5,3.3-0.5
		c1.2,0,2.3,0.2,3.3,0.5c1,0.3,1.9,0.7,2.6,1.3c0.7,0.5,1.3,1.2,1.7,1.9c0.4,0.7,0.6,1.4,0.6,2.2V96c0,0.7-0.2,1.3-0.5,2
		c-0.3,0.6-0.8,1.2-1.4,1.7s-1.3,0.9-2.1,1.3s-1.7,0.6-2.7,0.7v4.3c1.9,0,3.6-0.1,5.1-0.2c1.6-0.1,3.1-0.3,4.7-0.4L170.4,107.6z
		 M160.1,84.3h8.5v2.4h-19.9v-2.4h8.8V80h2.6V84.3L160.1,84.3z M158.8,90.9c-0.9,0-1.6,0.1-2.3,0.3c-0.7,0.2-1.3,0.5-1.8,0.8
		s-0.9,0.7-1.2,1.2s-0.4,0.9-0.4,1.4v1.1c0,0.5,0.1,0.9,0.4,1.4s0.7,0.9,1.2,1.2c0.5,0.4,1.1,0.6,1.8,0.9c0.7,0.2,1.5,0.3,2.3,0.3
		c0.8,0,1.6-0.1,2.3-0.3c0.7-0.2,1.3-0.5,1.8-0.9c0.5-0.4,0.9-0.8,1.2-1.2c0.3-0.5,0.4-0.9,0.4-1.4v-1.1c0-0.5-0.1-0.9-0.4-1.4
		c-0.3-0.5-0.7-0.9-1.2-1.2s-1.1-0.6-1.8-0.8C160.4,91,159.7,90.9,158.8,90.9z M175.5,94.7h5.5V97h-5.5v18h-2.7V80.3h2.7V94.7z"/>
	<path style="fill:#FFFFFF;" d="M211.8,82.1v5c0,2-0.1,3.9-0.3,5.7c-0.2,1.8-0.4,3.3-0.7,4.7c0.9-0.1,1.7-0.1,2.5-0.2
		c0.8-0.1,1.5-0.2,2.2-0.2l0.2,2.3c-1.7,0.2-3.4,0.3-5.2,0.4c-1.7,0.1-3.6,0.2-5.7,0.3V114h-2.7v-13.8c-1.397,0-2.8,0-4.397,0.1
		c-1.6,0-3.3,0-5.2,0v-2.4c3.2,0,6.1,0,8.7-0.1c2.6-0.1,4.8-0.1,6.897-0.2c0.2-1,0.4-1.9,0.5-2.9c0.103-1,0.301-2,0.4-3l-14.6,0.4
		l-0.1-2.4l14.8-0.3c0-0.3,0-0.6,0-0.9s0-0.6,0-1v-3.2h-14.3v-2.4h17V82.1L211.8,82.1z M221,115h-2.7V80.3h2.7V115z"/>
	<path style="fill:#FFFFFF;" d="M258.4,107.8v2.4h-31.9v-2.4H258.4z M230.5,83.5h23.9v2.4H243.8v1.7c0,1,0.101,1.8,0.2,2.5
		c0.1,0.6,0.3,1.2,0.6,1.7c0.301,0.5,0.801,1,1.301,1.4c0.5,0.4,1.302,1,2.199,1.6c0.9,0.6,2,1.3,3.4,2.1c1.4,0.8,2.9,1.6,4.5,2.4
		l-1.4,2c-1.3-0.7-2.699-1.4-4.199-2.3s-2.698-1.6-3.898-2.3c-1.3-0.9-2.3-1.6-3-2.1s-1.102-1-1.3-1.3l0,0
		c-0.2,0.4-0.603,0.8-1.2,1.3c-0.7,0.5-1.7,1.2-3,2.1c-1.102,0.7-2.398,1.5-3.898,2.4s-2.802,1.6-4.199,2.3l-1.4-2.1
		c1.6-0.8,3.1-1.6,4.5-2.4c1.4-0.8,2.6-1.5,3.5-2.1c0.9-0.6,1.7-1.1,2.2-1.6c0.601-0.5,1-0.9,1.3-1.4c0.301-0.5,0.5-1.1,0.6-1.7
		c0.103-0.6,0.201-1.5,0.201-2.5v-1.7h-10.601v-2.4H230.5z"/>
</g>
<g>
	<path style="fill:#FFFFFF;" d="M7.9,188.2v-22.9H0v-3h19.4v3h-7.9v22.9H7.9z"/>
	<path style="fill:#FFFFFF;" d="M28.4,168.2c2.7,0,4.9,0.8,6.4,2.3s2.4,3.8,2.4,6.6v2.4c0,2.9-0.8,5.1-2.4,6.6
		c-1.6,1.5-3.7,2.301-6.4,2.301c-2.7,0-4.9-0.801-6.4-2.301c-1.6-1.6-2.4-3.8-2.4-6.6v-2.4c0-2.897,0.8-5.1,2.4-6.6
		C23.5,169,25.7,168.2,28.4,168.2z M28.4,185.5c1.6,0,2.8-0.5,3.8-1.5s1.5-2.6,1.5-4.7v-1.8c0-2.1-0.5-3.7-1.5-4.7s-2.2-1.5-3.8-1.5
		s-2.8,0.5-3.8,1.5s-1.5,2.601-1.5,4.7v1.8c0,2.101,0.5,3.7,1.5,4.7S26.8,185.5,28.4,185.5z"/>
	<path style="fill:#FFFFFF;" d="M54.2,185.8c-0.6,1-1.3,1.7-2.4,2.101c-1,0.399-2.1,0.602-3.4,0.602c-2.5,0-4.4-0.7-5.7-2.2
		c-1.3-1.397-2-3.5-2-6.198v-3.5c0-1.302,0.2-2.5,0.6-3.602c0.4-1.102,0.9-1.898,1.6-2.7c0.7-0.8,1.5-1.3,2.5-1.698
		c1-0.399,2-0.602,3.2-0.602c1.5,0,2.7,0.3,3.6,0.8c0.9,0.5,1.5,1,1.9,1.603V161h3.5v27.2h-3.3L54.2,185.8L54.2,185.8z M54.2,175.4
		c0-0.5-0.1-1-0.4-1.5c-0.3-0.5-0.6-1-1.1-1.4s-1-0.7-1.7-1c-0.6-0.2-1.3-0.4-2.1-0.4c-1.5,0-2.6,0.5-3.5,1.603
		c-0.8,1-1.2,2.5-1.2,4.397v2.4c0,1.9,0.4,3.3,1.3,4.4c0.8,1,2,1.6,3.5,1.6c0.7,0,1.4-0.1,2-0.3s1.2-0.601,1.6-1
		c0.5-0.4,0.8-1,1.1-1.601c0.3-0.602,0.4-1.302,0.4-2.102v-5.102h0.1V175.4z"/>
	<path style="fill:#FFFFFF;" d="M68.7,188.5c-2,0-3.6-0.5-4.7-1.5s-1.7-2.3-1.7-4.1v-1c0-1.7,0.6-3,1.7-4.103c1.1-1.1,3-1.6,5.5-1.6
		h5V175c0-1.3-0.3-2.3-1-2.9c-0.6-0.6-1.7-1-3.1-1c-1.2,0-2.2,0.2-3,0.5c-0.9,0.4-1.7,0.801-2.6,1.4l-1.7-2.6c1-0.7,2-1.301,3.2-1.7
		c1.2-0.5,2.6-0.7,4.2-0.7c1.1,0,2.1,0.1,3,0.4c0.9,0.3,1.7,0.699,2.4,1.199c0.7,0.5,1.2,1.198,1.5,2c0.4,0.801,0.6,1.698,0.6,2.601
		V188h-3.3v-2.4l0,0c-0.2,0.4-0.5,0.7-0.8,1c-0.3,0.301-0.7,0.603-1.1,0.801c-0.5,0.302-1.1,0.5-1.7,0.699
		C70.3,188.4,69.6,188.5,68.7,188.5z M74.4,179.3h-4.9c-1.4,0-2.3,0.3-2.9,0.8s-0.9,1.301-0.9,2.2v0.5c0,1,0.3,1.7,1,2.101
		c0.7,0.399,1.5,0.602,2.4,0.602s1.6-0.102,2.2-0.3c0.6-0.2,1.2-0.5,1.7-0.9c0.5-0.397,0.8-0.8,1-1.198c0.2-0.5,0.3-1.102,0.3-1.802
		v-2L74.4,179.3L74.4,179.3z"/>
	<path style="fill:#FFFFFF;" d="M90,184.3l5.2-15.7h3.7L88.7,196.4l-3.2-1.103l2.6-6.698l-7.2-20h3.8l5.2,15.698L90,184.3L90,184.3z
		"/>
	<path style="fill:#FFFFFF;" d="M101.5,160h4l-2.7,8.2H100L101.5,160z"/>
	<path style="fill:#FFFFFF;" d="M115.4,185.5c1.3,0,2.3-0.2,3-0.7c0.7-0.5,1.1-1.1,1.1-1.899V182.6c0-0.397-0.1-0.8-0.2-1
		c-0.1-0.3-0.3-0.5-0.7-0.8s-0.8-0.399-1.4-0.6c-0.6-0.2-1.3-0.4-2.3-0.601c-1.1-0.199-2-0.5-2.9-0.802c-0.8-0.3-1.5-0.698-2.1-1.1
		s-1-1-1.3-1.603c-0.3-0.6-0.5-1.397-0.5-2.199v-0.398c0-0.7,0.1-1.3,0.4-2c0.3-0.602,0.7-1.2,1.3-1.7c0.6-0.5,1.4-0.897,2.3-1.198
		c0.9-0.302,2-0.5,3.3-0.5c1.3,0,2.6,0.198,3.8,0.5c1.2,0.301,2.2,0.801,3.2,1.5l-1.5,2.601c-0.6-0.5-1.4-0.9-2.3-1.2
		s-1.9-0.4-2.9-0.4c-1.5,0-2.5,0.2-3.2,0.7c-0.6,0.4-1,1-1,1.7v0.3c0,0.8,0.3,1.3,1,1.7s1.7,0.7,3.3,1c1.2,0.2,2.2,0.5,3.1,0.8
		s1.6,0.7,2.2,1.2s1,1,1.3,1.7c0.3,0.7,0.4,1.399,0.4,2.3v0.5c0,0.8-0.2,1.5-0.5,2.2c-0.3,0.7-0.8,1.3-1.5,1.7
		c-0.6,0.5-1.4,0.897-2.4,1.199c-1,0.301-2,0.398-3.1,0.398c-1.7,0-3.2-0.2-4.5-0.602c-1.3-0.398-2.5-1-3.4-1.698l1.6-2.7
		c0.9,0.602,1.8,1.102,2.8,1.5C113.1,185.3,114.2,185.5,115.4,185.5z"/>
	<path style="fill:#FFFFFF;" d="M152.5,162.3v3h-12.6v8.101h11.8v3h-11.8v8.699h12.9v3h-16.4V162.2h16.1V162.3z"/>
	<path style="fill:#FFFFFF;" d="M166.6,178l6.5,10.2h-4.2l-4.6-7.9l-4.7,7.9h-4l6.6-10.2l-6.3-9.5h4.2l4.4,7.3l4.4-7.3h3.9
		L166.6,178z"/>
	<path style="fill:#FFFFFF;" d="M180,171c0.6-1,1.4-1.7,2.4-2.1c1-0.4,2.2-0.603,3.3-0.603c2.5,0,4.4,0.7,5.7,2.2
		c1.3,1.5,2,3.5,2,6.102v3.5c0,1.398-0.2,2.601-0.6,3.601c-0.4,1-0.9,1.899-1.6,2.6c-0.7,0.7-1.5,1.3-2.5,1.601
		c-1,0.399-2,0.602-3.2,0.602c-1.5,0-2.6-0.3-3.5-0.8s-1.5-1.103-1.9-1.603v9.801h-3.5v-27.398h3.4V171L180,171z M180.1,181.2
		c0,0.5,0.1,1,0.4,1.5s0.6,1,1.1,1.399c0.5,0.398,1,0.698,1.6,1c0.6,0.301,1.3,0.398,2.1,0.398c1.5,0,2.6-0.5,3.5-1.602
		c0.9-1.101,1.2-2.5,1.2-4.398V177.1c0-1.898-0.4-3.301-1.3-4.398c-0.8-1-2-1.602-3.5-1.602c-0.7,0-1.4,0.102-2,0.399
		c-0.6,0.2-1.2,0.601-1.6,1s-0.8,1-1.1,1.601c-0.3,0.602-0.4,1.301-0.4,2.102V181.2z"/>
	<path style="fill:#FFFFFF;" d="M208.8,172c-0.3-0.1-0.7-0.3-1.1-0.3c-0.4-0.101-0.8-0.101-1.3-0.101
		c-0.603,0-1.301,0.101-1.9,0.398s-1.1,0.602-1.5,1.102s-0.8,1-1,1.698c-0.3,0.603-0.4,1.4-0.4,2.103v11.5h-3.5v-19.7h3.4v3.1l0,0
		c0.6-1.1,1.3-2,2.2-2.6c0.899-0.601,2.1-0.9,3.5-0.9c0.899,0,1.7,0.101,2.6,0.4L208.8,172z"/>
	<path style="fill:#FFFFFF;" d="M228.3,186.4c-0.899,0.6-1.899,1.1-3.1,1.5c-1.2,0.397-2.7,0.6-4.5,0.6c-1.2,0-2.4-0.2-3.4-0.5
		s-2-0.9-2.7-1.6c-0.8-0.7-1.397-1.7-1.8-2.801c-0.399-1.102-0.7-2.5-0.7-4.102v-2.2c0-1.5,0.2-2.8,0.603-3.897
		c0.397-1.103,1-2.103,1.8-2.801c0.8-0.802,1.602-1.302,2.7-1.699c1-0.4,2.198-0.603,3.397-0.603c2.5,0,4.5,0.802,6,2.302
		s2.2,3.698,2.2,6.5v2.601h-13.2v0.1c0,1.9,0.5,3.3,1.5,4.3s2.301,1.5,3.9,1.5c1.3,0,2.4-0.199,3.3-0.5c0.9-0.3,1.8-0.699,2.601-1.3
		L228.3,186.4z M220.5,171.2c-0.7,0-1.4,0.1-2,0.399c-0.6,0.301-1.1,0.601-1.6,1c-0.5,0.398-0.801,1-1,1.601
		c-0.301,0.6-0.4,1.3-0.4,2.1v0.5h9.9v-0.6c0-1.5-0.4-2.7-1.301-3.601C223.2,171.6,222,171.2,220.5,171.2z"/>
	<path style="fill:#FFFFFF;" d="M239.2,185.5c1.3,0,2.3-0.2,3-0.7s1.1-1.1,1.1-1.899V182.6c0-0.397-0.1-0.8-0.2-1
		c-0.1-0.3-0.3-0.5-0.699-0.8c-0.398-0.3-0.801-0.399-1.398-0.6c-0.6-0.201-1.3-0.4-2.3-0.601c-1.103-0.199-2-0.5-2.9-0.802
		c-0.8-0.3-1.5-0.698-2.1-1.1c-0.603-0.4-1-1-1.302-1.603c-0.301-0.6-0.5-1.397-0.5-2.199v-0.398c0-0.7,0.102-1.3,0.399-2
		c0.3-0.602,0.7-1.2,1.3-1.7c0.603-0.5,1.4-0.897,2.301-1.198c0.899-0.302,2-0.5,3.302-0.5c1.3,0,2.6,0.198,3.8,0.5
		c1.2,0.301,2.2,0.801,3.2,1.5l-1.5,2.601c-0.603-0.5-1.4-0.9-2.302-1.2c-0.898-0.3-1.898-0.4-2.898-0.4c-1.5,0-2.5,0.2-3.2,0.7
		c-0.6,0.4-1,1-1,1.7v0.3c0,0.8,0.302,1.3,1,1.7c0.7,0.4,1.7,0.7,3.302,1c1.198,0.2,2.198,0.5,3.101,0.8
		c0.899,0.3,1.601,0.7,2.2,1.2c0.599,0.5,1,1,1.3,1.7s0.399,1.399,0.399,2.3v0.5c0,0.8-0.199,1.5-0.5,2.2
		c-0.302,0.7-0.802,1.3-1.5,1.7c-0.602,0.5-1.399,0.897-2.399,1.199c-1,0.301-2,0.398-3.101,0.398c-1.699,0-3.199-0.2-4.5-0.602
		c-1.302-0.398-2.5-1-3.399-1.698l1.601-2.7c0.899,0.602,1.799,1.102,2.799,1.5C236.9,185.3,238,185.5,239.2,185.5z"/>
	<path style="fill:#FFFFFF;" d="M257.1,185.5c1.301,0,2.301-0.2,3-0.7c0.7-0.5,1.103-1.1,1.103-1.899V182.6c0-0.397-0.103-0.8-0.2-1
		c-0.102-0.3-0.3-0.5-0.7-0.8c-0.397-0.3-0.8-0.399-1.397-0.6c-0.603-0.2-1.301-0.4-2.301-0.601c-1.102-0.199-2-0.5-2.899-0.802
		c-0.8-0.3-1.5-0.698-2.101-1.1c-0.602-0.401-1-1-1.302-1.603c-0.3-0.6-0.5-1.397-0.5-2.199v-0.398c0-0.7,0.103-1.3,0.4-2
		c0.3-0.602,0.698-1.2,1.3-1.7s1.398-0.897,2.3-1.198c0.901-0.302,2-0.5,3.302-0.5c1.301,0,2.601,0.198,3.801,0.5
		c1.199,0.301,2.199,0.801,3.199,1.5l-1.5,2.601c-0.602-0.5-1.399-0.9-2.302-1.2c-0.897-0.3-1.897-0.4-2.897-0.4
		c-1.5,0-2.5,0.2-3.2,0.7c-0.601,0.4-1,1-1,1.7v0.3c0,0.8,0.3,1.3,1,1.7s1.7,0.7,3.3,1c1.2,0.2,2.2,0.5,3.1,0.8
		c0.9,0.3,1.603,0.7,2.201,1.2c0.602,0.5,1,1,1.299,1.7c0.301,0.7,0.4,1.399,0.4,2.3v0.5c0,0.8-0.199,1.5-0.5,2.2
		c-0.3,0.7-0.8,1.3-1.5,1.7c-0.6,0.5-1.4,0.897-2.4,1.199c-1,0.301-2,0.398-3.1,0.398c-1.699,0-3.199-0.2-4.5-0.602
		c-1.3-0.398-2.5-1-3.4-1.698l1.603-2.7c0.897,0.602,1.8,1.102,2.8,1.5C254.8,185.3,255.9,185.5,257.1,185.5z"/>
	<path style="fill:#FFFFFF;" d="M272.7,161.5v3.8H269v-3.8H272.7z M272.6,168.5v19.7h-3.5v-19.7H272.6z"/>
	<path style="fill:#FFFFFF;" d="M286.1,168.2c2.7,0,4.9,0.8,6.4,2.3s2.4,3.8,2.4,6.6v2.4c0,2.9-0.801,5.1-2.4,6.6
		s-3.7,2.301-6.4,2.301c-2.699,0-4.897-0.801-6.397-2.301c-1.603-1.6-2.4-3.8-2.4-6.6v-2.4c0-2.897,0.802-5.1,2.4-6.6
		C281.2,169,283.3,168.2,286.1,168.2z M286.1,185.5c1.603,0,2.801-0.5,3.801-1.5s1.5-2.6,1.5-4.7v-1.8c0-2.1-0.5-3.7-1.5-4.7
		s-2.198-1.5-3.801-1.5c-1.6,0-2.8,0.5-3.8,1.5s-1.5,2.601-1.5,4.7v1.8c0,2.101,0.5,3.7,1.5,4.7S284.5,185.5,286.1,185.5z"/>
	<path style="fill:#FFFFFF;" d="M315.7,188.2h-3.5V176c0-1.7-0.3-2.9-1-3.6c-0.7-0.7-1.8-1.103-3.2-1.103
		c-0.6,0-1.2,0.103-1.8,0.302c-0.601,0.198-1.101,0.5-1.601,0.898s-0.802,0.898-1.102,1.5s-0.398,1.3-0.398,2.102v12.198h-3.5V168.6
		h3.398v2.5l0,0c0.602-0.898,1.398-1.601,2.398-2.101c1.002-0.5,2.199-0.7,3.502-0.7c1,0,1.897,0.102,2.697,0.4
		c0.803,0.3,1.603,0.699,2.2,1.3c0.603,0.601,1.103,1.3,1.5,2.2c0.399,0.898,0.5,1.898,0.5,3.1v12.9L315.7,188.2L315.7,188.2z"/>
</g>
<g>
	<path style="fill:#FFFFFF;" d="M2.5,202.2V226h13v2.2H0v-26H2.5z"/>
	<path style="fill:#FFFFFF;" d="M19.2,202.3h2.7v2.7h-2.7V202.3z M19.301,208.8h2.5v19.4h-2.5V208.8z"/>
	<path style="fill:#FFFFFF;" d="M33.801,226.2c1.6,0,2.8-0.3,3.6-0.9c0.8-0.6,1.2-1.399,1.2-2.2V222.7c0-1-0.4-1.7-1.2-2.2
		c-0.8-0.5-2.1-0.9-4-1.3c-1-0.2-1.9-0.4-2.7-0.7c-0.8-0.3-1.5-0.6-2-1c-0.6-0.4-1-0.9-1.3-1.5c-0.3-0.6-0.5-1.2-0.5-2v-0.5
		c0-0.7,0.1-1.4,0.4-2c0.3-0.6,0.698-1.2,1.3-1.6c0.6-0.4,1.3-0.801,2.2-1.103c0.898-0.3,1.898-0.397,3.1-0.397
		c1.5,0,2.8,0.199,3.9,0.6c1.1,0.4,2,0.9,2.8,1.5l-1.102,1.8c-0.8-0.6-1.6-1-2.5-1.3c-0.8-0.3-1.898-0.4-3.1-0.4
		c-1.5,0-2.6,0.301-3.3,0.9c-0.8,0.6-1.2,1.3-1.2,2.1v0.4c0,0.8,0.4,1.5,1.3,2c0.9,0.5,2,0.9,3.602,1.2
		c2.398,0.5,4.1,1.1,5.198,1.899c1.102,0.801,1.602,2,1.602,3.601v0.5c0,0.8-0.2,1.5-0.5,2.1c-0.4,0.601-0.9,1.2-1.5,1.7
		c-0.602,0.5-1.4,0.8-2.3,1.1c-0.9,0.301-1.802,0.4-2.802,0.4c-1.6,0-3-0.2-4.198-0.6c-1.2-0.4-2.302-1-3.2-1.7l1.2-1.9
		c0.898,0.601,1.8,1.101,2.898,1.5C31.5,226.1,32.601,226.2,33.801,226.2z"/>
	<path style="fill:#FFFFFF;" d="M46.9,210.9h-3.3V208.8h3.3v-5h2.5v5h5.4v2.101h-5.4v11.802c0,1.3,0.2,2.198,0.6,2.8
		s1.102,0.8,2.102,0.8s1.898-0.1,2.7-0.397l0.398,2c-0.398,0.1-0.898,0.3-1.5,0.3c-0.6,0.101-1.2,0.101-1.7,0.101
		c-0.8,0-1.6-0.101-2.198-0.301c-0.602-0.199-1.2-0.5-1.602-0.9c-0.398-0.397-0.7-1-0.898-1.698c-0.2-0.699-0.302-1.601-0.302-2.601
		V210.9H46.9z"/>
</g>
<g>
	<path style="fill:#FFFFFF;" d="M4.522,130.64c0-1.24,0.303-2.361,0.91-3.362s1.429-1.862,2.466-2.584
		c1.037-0.722,2.245-1.279,3.623-1.673c1.379-0.392,2.852-0.588,4.42-0.588c1.542,0,3.003,0.196,4.382,0.588
		c1.378,0.394,2.592,0.951,3.642,1.673c1.05,0.722,1.878,1.583,2.485,2.584c0.607,1.001,0.911,2.122,0.911,3.362v1.862
		c0,1.141-0.265,2.191-0.795,3.154c-0.53,0.963-1.25,1.792-2.158,2.489c-0.909,0.696-1.969,1.267-3.18,1.71
		s-2.511,0.716-3.899,0.816v7.106H31.92v2.355H0v-2.355h14.592v-7.106c-1.419-0.101-2.736-0.373-3.952-0.816
		c-1.216-0.443-2.28-1.014-3.192-1.71c-0.912-0.697-1.628-1.526-2.147-2.489c-0.52-0.963-0.779-2.014-0.779-3.154V130.64z
		 M15.941,124.902c-1.245,0-2.399,0.146-3.466,0.437c-1.066,0.292-1.993,0.697-2.78,1.217c-0.788,0.52-1.409,1.134-1.866,1.842
		c-0.457,0.711-0.685,1.496-0.685,2.357v1.633c0,0.862,0.228,1.647,0.685,2.356c0.457,0.71,1.079,1.324,1.866,1.843
		c0.787,0.52,1.713,0.926,2.78,1.216c1.066,0.292,2.221,0.438,3.466,0.438c1.218,0,2.367-0.146,3.446-0.438
		c1.079-0.29,2.011-0.696,2.799-1.216c0.787-0.519,1.409-1.133,1.866-1.843c0.457-0.709,0.686-1.494,0.686-2.356v-1.633
		c0-0.861-0.229-1.646-0.686-2.357c-0.458-0.708-1.079-1.322-1.866-1.842c-0.788-0.52-1.72-0.925-2.799-1.217
		C18.308,125.048,17.159,124.902,15.941,124.902z"/>
	<path style="fill:#FFFFFF;" d="M66.5,134.972v2.28H34.58v-2.28H66.5z M61.75,140.862v8.284H41.952v3.762h20.824v2.28H39.33v-8.284
		h19.798v-3.762H39.14v-2.28H61.75z M42.142,128.968h19.836v2.356H39.443V121.14h2.698L42.142,128.968L42.142,128.968z"/>
	<path style="fill:#FFFFFF;" d="M93.289,146.524c-1.571,0.151-3.123,0.285-4.655,0.398c-1.533,0.114-3.192,0.209-4.978,0.285
		c-1.786,0.076-3.775,0.127-5.966,0.152s-4.744,0.038-7.657,0.038v-2.356c2.761,0,5.237-0.013,7.429-0.038
		c2.191-0.024,4.199-0.069,6.023-0.133c1.824-0.062,3.509-0.152,5.054-0.266s3.053-0.247,4.522-0.399L93.289,146.524z
		 M80.92,139.114c-1.244,0-2.412-0.19-3.503-0.57s-2.05-0.898-2.875-1.558c-0.825-0.658-1.479-1.431-1.961-2.318
		c-0.482-0.887-0.723-1.849-0.723-2.888v-1.824c0-1.039,0.241-2.001,0.723-2.888c0.482-0.887,1.136-1.659,1.961-2.318
		c0.825-0.658,1.784-1.178,2.875-1.558c1.091-0.381,2.259-0.57,3.503-0.57s2.412,0.189,3.503,0.57
		c1.091,0.38,2.049,0.899,2.875,1.558c0.825,0.659,1.479,1.438,1.961,2.337c0.482,0.9,0.724,1.856,0.724,2.869v1.824
		c0,1.039-0.242,2.001-0.724,2.888c-0.482,0.888-1.136,1.66-1.961,2.318c-0.826,0.659-1.784,1.178-2.875,1.558
		C83.332,138.924,82.164,139.114,80.92,139.114z M80.92,124.978c-0.833,0-1.636,0.134-2.406,0.399
		c-0.771,0.267-1.459,0.634-2.065,1.103c-0.606,0.469-1.086,1.014-1.44,1.634c-0.354,0.621-0.53,1.286-0.53,1.995v1.52
		c0,0.71,0.176,1.375,0.53,1.995c0.354,0.621,0.833,1.166,1.44,1.634c0.606,0.47,1.294,0.836,2.065,1.103
		c0.77,0.266,1.572,0.398,2.406,0.398s1.635-0.133,2.406-0.398c0.77-0.267,1.458-0.633,2.064-1.103
		c0.606-0.468,1.086-1.013,1.439-1.634c0.354-0.62,0.531-1.285,0.531-1.995v-1.52c0-0.709-0.177-1.374-0.531-1.995
		c-0.354-0.62-0.833-1.165-1.439-1.634s-1.294-0.836-2.064-1.103C82.555,125.111,81.754,124.978,80.92,124.978z M98.419,155.036
		h-2.698v-34.732h2.698V155.036z"/>
	<path style="fill:#FFFFFF;" d="M137.445,147.55c-1.571,0.152-3.123,0.285-4.655,0.399c-1.532,0.114-3.192,0.209-4.978,0.285
		c-1.786,0.076-3.775,0.127-5.966,0.151c-2.191,0.026-4.744,0.038-7.657,0.038v-2.355c1.925,0,3.705,0,5.339,0
		c1.634,0,3.173-0.025,4.617-0.076v-4.332c-1.064-0.101-2.04-0.323-2.926-0.665c-0.887-0.342-1.646-0.779-2.28-1.311
		c-0.633-0.532-1.121-1.121-1.463-1.768c-0.342-0.646-0.513-1.323-0.513-2.033v-1.443c0-0.761,0.202-1.495,0.608-2.204
		c0.405-0.709,0.969-1.33,1.691-1.862c0.722-0.531,1.596-0.955,2.622-1.273c1.026-0.316,2.147-0.475,3.363-0.475
		c1.241,0,2.369,0.158,3.382,0.475c1.013,0.318,1.881,0.742,2.603,1.273c0.722,0.532,1.285,1.153,1.691,1.862
		c0.405,0.709,0.608,1.443,0.608,2.204v1.443c0,0.685-0.159,1.344-0.475,1.977c-0.317,0.634-0.767,1.203-1.349,1.71
		c-0.583,0.507-1.286,0.944-2.109,1.311c-0.824,0.368-1.742,0.615-2.755,0.741v4.294c2.001-0.051,3.832-0.133,5.491-0.247
		c1.659-0.114,3.287-0.259,4.883-0.437L137.445,147.55z M126.5,124.332h8.588v2.356h-20.026v-2.356h8.816V120h2.622V124.332z
		 M125.247,130.906c-0.887,0-1.685,0.108-2.394,0.323s-1.311,0.5-1.805,0.854c-0.494,0.355-0.874,0.747-1.14,1.178
		c-0.266,0.432-0.399,0.874-0.399,1.33v1.141c0,0.456,0.133,0.906,0.399,1.349c0.266,0.443,0.646,0.843,1.14,1.197
		c0.494,0.354,1.095,0.64,1.805,0.854c0.709,0.216,1.507,0.323,2.394,0.323c0.887,0,1.685-0.107,2.394-0.323
		c0.709-0.215,1.311-0.5,1.805-0.854c0.494-0.354,0.874-0.754,1.14-1.197c0.266-0.442,0.399-0.893,0.399-1.349v-1.141
		c0-0.456-0.133-0.898-0.399-1.33c-0.266-0.431-0.646-0.822-1.14-1.178c-0.494-0.354-1.096-0.64-1.805-0.854
		C126.931,131.015,126.133,130.906,125.247,130.906z M142.537,155.036h-2.698v-34.732h2.698V155.036z"/>
	<path style="fill:#FFFFFF;" d="M170.391,147.55c-1.571,0.152-3.078,0.285-4.522,0.399c-1.444,0.114-3.011,0.209-4.7,0.285
		c-1.689,0.076-3.589,0.127-5.7,0.151c-2.11,0.026-4.623,0.038-7.536,0.038v-2.355c1.925,0,3.686,0,5.282,0
		c1.597,0,3.078-0.025,4.446-0.076v-4.332c-1.063-0.101-2.027-0.323-2.888-0.665c-0.861-0.342-1.609-0.779-2.242-1.311
		c-0.633-0.532-1.121-1.121-1.463-1.768c-0.342-0.646-0.513-1.323-0.513-2.033v-1.443c0-0.785,0.203-1.526,0.608-2.223
		c0.405-0.697,0.975-1.312,1.71-1.844c0.734-0.531,1.603-0.955,2.604-1.273c1-0.316,2.108-0.475,3.324-0.475
		c1.217,0,2.324,0.158,3.325,0.475c1.001,0.318,1.868,0.742,2.604,1.273c0.734,0.532,1.305,1.153,1.71,1.862
		c0.404,0.709,0.607,1.443,0.607,2.204v1.443c0,0.685-0.159,1.344-0.478,1.977c-0.318,0.634-0.777,1.203-1.376,1.71
		c-0.599,0.507-1.312,0.944-2.14,1.311c-0.828,0.368-1.739,0.615-2.732,0.741v4.294c1.874-0.051,3.591-0.133,5.149-0.247
		c1.558-0.114,3.121-0.259,4.692-0.437L170.391,147.55z M160.092,124.332h8.475v2.356h-19.912v-2.356h8.816V120h2.621V124.332z
		 M158.8,130.906c-0.861,0-1.64,0.108-2.337,0.323c-0.696,0.215-1.292,0.494-1.785,0.836c-0.494,0.342-0.881,0.74-1.159,1.196
		c-0.279,0.456-0.418,0.912-0.418,1.368v1.064c0,0.456,0.139,0.912,0.418,1.368c0.278,0.456,0.665,0.861,1.159,1.216
		c0.493,0.354,1.089,0.64,1.785,0.854c0.697,0.216,1.476,0.323,2.337,0.323c0.861,0,1.641-0.107,2.338-0.323
		c0.696-0.215,1.292-0.5,1.785-0.854c0.494-0.354,0.88-0.76,1.159-1.216c0.278-0.456,0.418-0.912,0.418-1.368v-1.064
		c0-0.456-0.14-0.912-0.418-1.368c-0.279-0.456-0.665-0.854-1.159-1.196c-0.493-0.342-1.089-0.621-1.785-0.836
		C160.44,131.015,159.661,130.906,158.8,130.906z M175.521,134.668h5.51v2.356h-5.51v18.012h-2.698v-34.732h2.698V134.668z"/>
	<path style="fill:#FFFFFF;" d="M197.18,144.054h5.206c1.925,0,3.882-0.057,5.871-0.171c1.988-0.113,3.869-0.31,5.644-0.589
		l0.305,2.293c-2.026,0.324-4.1,0.543-6.213,0.655c-2.115,0.112-4.213,0.168-6.289,0.168h-7.144v-13.3h12.58v-7.639h-12.58v-2.355
		h15.2v12.35H197.18V144.054z M220.55,155.036h-2.698v-34.732h2.698V155.036z"/>
	<path style="fill:#FFFFFF;" d="M258.396,147.778v2.355h-31.92v-2.355H258.396z M242.398,132.845
		c-0.151,0.38-0.588,0.895-1.312,1.538c-0.723,0.646-1.769,1.426-3.136,2.337c-1.141,0.761-2.438,1.577-3.896,2.451
		c-1.457,0.874-2.869,1.679-4.236,2.413l-1.442-2.128c1.672-0.86,3.204-1.703,4.599-2.527c1.394-0.822,2.532-1.538,3.42-2.146
		c0.938-0.633,1.711-1.203,2.317-1.71c0.606-0.507,1.083-1.045,1.427-1.615c0.342-0.569,0.574-1.202,0.701-1.899
		c0.126-0.697,0.188-1.564,0.188-2.604v-4.18h2.775v4.18c0,1.039,0.063,1.906,0.188,2.604c0.127,0.698,0.36,1.33,0.702,1.899
		c0.343,0.57,0.812,1.108,1.406,1.615c0.596,0.507,1.36,1.077,2.299,1.71c0.888,0.608,2.021,1.317,3.4,2.128
		c1.381,0.812,2.895,1.647,4.541,2.508l-1.404,2.09c-1.369-0.734-2.77-1.532-4.199-2.394c-1.433-0.862-2.717-1.672-3.856-2.432
		c-1.368-0.912-2.407-1.685-3.116-2.318c-0.709-0.633-1.152-1.14-1.33-1.521L242.398,132.845L242.398,132.845z"/>
	<path style="fill:#FFFFFF;" d="M266.339,122.318v12.653c1.849,0,3.496-0.012,4.938-0.037c1.445-0.025,2.807-0.07,4.086-0.134
		c1.279-0.062,2.546-0.151,3.8-0.266c1.255-0.114,2.604-0.271,4.048-0.475l0.305,2.394c-1.496,0.203-2.889,0.367-4.181,0.494
		c-1.292,0.127-2.667,0.222-4.123,0.285c-1.457,0.063-3.104,0.107-4.94,0.133c-1.836,0.026-4.047,0.038-6.631,0.038v-15.086
		L266.339,122.318L266.339,122.318z M289.822,149.412c0,0.963-0.26,1.843-0.777,2.641c-0.52,0.799-1.245,1.482-2.182,2.053
		c-0.938,0.569-2.049,1.02-3.338,1.349s-2.705,0.494-4.248,0.494s-2.959-0.165-4.248-0.494c-1.29-0.329-2.402-0.779-3.338-1.349
		c-0.938-0.57-1.664-1.254-2.184-2.053c-0.52-0.798-0.775-1.678-0.775-2.641v-1.52c0-0.938,0.259-1.812,0.775-2.622
		c0.52-0.81,1.246-1.501,2.184-2.071c0.936-0.57,2.048-1.02,3.338-1.349c1.289-0.329,2.705-0.494,4.248-0.494
		s2.959,0.165,4.248,0.494s2.4,0.778,3.338,1.349c0.937,0.57,1.662,1.261,2.182,2.071s0.777,1.685,0.777,2.622V149.412z
		 M279.314,153.668c1.138,0,2.191-0.12,3.166-0.36c0.973-0.241,1.812-0.564,2.521-0.97c0.708-0.406,1.265-0.874,1.668-1.405
		c0.404-0.532,0.606-1.103,0.606-1.711v-1.14c0-0.607-0.202-1.178-0.606-1.71c-0.403-0.532-0.96-1-1.668-1.406
		c-0.708-0.404-1.549-0.728-2.521-0.969c-0.975-0.24-2.028-0.361-3.166-0.361c-1.139,0-2.191,0.121-3.164,0.361
		c-0.976,0.241-1.813,0.564-2.521,0.969c-0.707,0.406-1.264,0.874-1.668,1.406c-0.404,0.532-0.605,1.103-0.605,1.71v1.14
		c0,0.608,0.201,1.179,0.605,1.711c0.404,0.531,0.961,1,1.668,1.405c0.708,0.405,1.548,0.729,2.521,0.97
		C277.123,153.548,278.178,153.668,279.314,153.668z M289.633,140.596h-2.622v-20.292h2.622V140.596z"/>
</g>
<g>
	<path style="fill:#FFFFFF;" d="M10.659,240c1.694,0,3.199,0.285,4.514,0.854c1.315,0.569,2.428,1.388,3.338,2.448
		c0.91,1.063,1.605,2.347,2.086,3.854c0.48,1.507,0.721,3.194,0.721,5.065v3.758c0,3.693-0.862,6.604-2.584,8.729l3.192,3.188
		l-1.71,1.782l-3.306-3.306c-1.723,1.216-3.8,1.822-6.232,1.822c-1.697,0-3.205-0.283-4.521-0.854
		c-1.317-0.568-2.432-1.384-3.344-2.447c-0.912-1.062-1.609-2.347-2.09-3.852C0.24,259.537,0,257.85,0,255.977v-3.756
		c0-1.873,0.234-3.562,0.702-5.065c0.468-1.507,1.157-2.789,2.067-3.854c0.91-1.062,2.029-1.879,3.357-2.448
		C7.454,240.285,8.964,240,10.659,240z M10.659,265.84c1.701,0,3.161-0.418,4.38-1.256l-3.542-3.578l1.714-1.788l3.619,3.615
		c0.583-0.837,1.041-1.847,1.371-3.024c0.33-1.18,0.495-2.531,0.495-4.055v-3.313c0-3.271-0.73-5.771-2.19-7.498
		c-1.46-1.726-3.409-2.588-5.847-2.588s-4.387,0.862-5.847,2.588c-1.46,1.728-2.19,4.227-2.19,7.498v3.313
		c0,3.273,0.73,5.771,2.19,7.498S8.221,265.84,10.659,265.84z"/>
	<path style="fill:#FFFFFF;" d="M33.857,268.082c-2.331,0-4.104-0.646-5.32-1.938c-1.216-1.293-1.824-3.002-1.824-5.131v-13.719
		h2.622v13.072c0,0.734,0.07,1.425,0.208,2.07c0.139,0.646,0.385,1.217,0.738,1.709c0.353,0.494,0.852,0.882,1.496,1.158
		c0.644,0.279,1.471,0.418,2.48,0.418c0.858,0,1.646-0.149,2.366-0.455c0.72-0.305,1.338-0.703,1.855-1.195
		c0.517-0.494,0.921-1.047,1.212-1.653s0.436-1.216,0.436-1.824v-13.3h2.622v20.48h-2.584v-2.851
		c-0.481,0.786-1.248,1.509-2.299,2.166C36.814,267.753,35.478,268.082,33.857,268.082z"/>
	<path style="fill:#FFFFFF;" d="M48.829,240.494h2.85v2.888h-2.85V240.494z M48.942,247.296h2.622v20.481h-2.622V247.296z"/>
	<path style="fill:#FFFFFF;" d="M71.363,249.044L58.861,265.65h13.034v2.127H55.821V265.8l12.35-16.378h-11.59v-2.128h14.782
		V249.044z"/>
</g>
<g>
	<path style="fill:#FFFFFF;" d="M2.622,280v25.042H16.34v2.356H0V280H2.622z"/>
	<path style="fill:#FFFFFF;" d="M20.178,280.114h2.85v2.888h-2.85V280.114z M20.292,286.916h2.622v20.482h-2.622V286.916z"/>
	<path style="fill:#FFFFFF;" d="M35.568,305.346c1.672,0,2.938-0.328,3.8-0.983c0.861-0.657,1.292-1.431,1.292-2.313v-0.379
		c0-1.037-0.424-1.819-1.273-2.353c-0.849-0.529-2.261-0.985-4.237-1.364c-1.039-0.202-1.976-0.442-2.812-0.723
		c-0.836-0.275-1.545-0.631-2.128-1.062s-1.039-0.942-1.368-1.536c-0.33-0.594-0.494-1.309-0.494-2.143v-0.531
		c0-0.732,0.154-1.428,0.463-2.085s0.771-1.233,1.387-1.726c0.616-0.494,1.386-0.886,2.312-1.176
		c0.924-0.291,2.021-0.438,3.287-0.438c1.57,0,2.926,0.194,4.066,0.589c1.14,0.395,2.128,0.904,2.964,1.539l-1.178,1.938
		c-0.862-0.584-1.736-1.025-2.622-1.33c-0.887-0.306-1.989-0.457-3.306-0.457c-1.545,0-2.724,0.313-3.534,0.933
		c-0.811,0.621-1.216,1.375-1.216,2.261v0.418c0,0.889,0.45,1.584,1.349,2.092s2.159,0.91,3.781,1.217
		c2.533,0.479,4.364,1.164,5.491,2.052c1.127,0.887,1.691,2.153,1.691,3.8v0.57c0,0.811-0.193,1.558-0.578,2.242
		c-0.386,0.684-0.918,1.271-1.596,1.767c-0.679,0.494-1.474,0.874-2.386,1.14c-0.912,0.269-1.913,0.399-3.002,0.399
		c-1.672,0-3.161-0.227-4.465-0.677c-1.305-0.45-2.438-1.035-3.401-1.757l1.254-2.053c0.937,0.635,1.944,1.146,3.021,1.539
		C33.205,305.15,34.352,305.346,35.568,305.346z"/>
	<path style="fill:#FFFFFF;" d="M49.476,289.12H45.98v-2.204h3.496v-5.282h2.622v5.282h5.662v2.204h-5.662v12.464
		c0,1.395,0.222,2.369,0.665,2.926c0.443,0.56,1.184,0.836,2.223,0.836c1.013,0,1.976-0.126,2.888-0.38l0.38,2.128
		c-0.406,0.152-0.944,0.272-1.615,0.361c-0.671,0.089-1.286,0.133-1.843,0.133c-0.887,0-1.667-0.102-2.342-0.304
		c-0.674-0.203-1.23-0.532-1.667-0.988s-0.765-1.058-0.983-1.805c-0.219-0.747-0.328-1.679-0.328-2.794V289.12z"/>
	<path style="fill:#FFFFFF;" d="M77.823,305.384c-0.813,0.583-1.824,1.115-3.04,1.597c-1.216,0.48-2.686,0.724-4.408,0.724
		c-2.736,0-4.871-0.817-6.403-2.451c-1.533-1.634-2.299-3.945-2.299-6.936v-2.546c0-2.914,0.742-5.182,2.228-6.804
		c1.485-1.62,3.523-2.432,6.113-2.432c2.691,0,4.742,0.83,6.151,2.489c1.409,1.658,2.114,3.933,2.114,6.819v2.129H64.295v0.343
		c0,2.278,0.544,4.032,1.634,5.263c1.089,1.229,2.584,1.843,4.484,1.843c1.368,0,2.571-0.201,3.61-0.606
		c1.039-0.404,1.925-0.873,2.66-1.405L77.823,305.384z M75.657,295.809v-0.343c0-2.151-0.493-3.8-1.478-4.938
		c-0.984-1.141-2.373-1.711-4.166-1.711c-1.818,0-3.226,0.604-4.224,1.807s-1.496,2.816-1.496,4.845v0.345h11.364V295.809z"/>
	<path style="fill:#FFFFFF;" d="M92.187,286.536c2.356,0,4.174,0.64,5.453,1.919c1.279,1.279,1.92,2.996,1.92,5.148v13.795h-2.622
		V294.25c0-0.734-0.076-1.425-0.228-2.07c-0.151-0.646-0.423-1.217-0.814-1.711c-0.392-0.492-0.922-0.88-1.591-1.158
		c-0.669-0.277-1.508-0.418-2.518-0.418c-0.858,0-1.647,0.158-2.367,0.477c-0.719,0.316-1.332,0.729-1.837,1.234
		s-0.902,1.063-1.193,1.672c-0.291,0.606-0.435,1.217-0.435,1.824v13.3h-2.622v-20.481h2.584v2.852
		c0.228-0.381,0.532-0.768,0.912-1.158c0.38-0.395,0.836-0.741,1.368-1.045c0.532-0.307,1.127-0.553,1.786-0.741
		C90.641,286.631,91.375,286.536,92.187,286.536z"/>
	<path style="fill:#FFFFFF;" d="M105.449,280.114h2.85v2.888h-2.85V280.114z M105.563,286.916h2.622v20.482h-2.622V286.916z"/>
	<path style="fill:#FFFFFF;" d="M123.194,286.536c2.355,0,4.174,0.64,5.453,1.919s1.919,2.996,1.919,5.148v13.795h-2.622V294.25
		c0-0.734-0.075-1.425-0.227-2.07c-0.151-0.646-0.423-1.217-0.814-1.711c-0.392-0.492-0.922-0.88-1.591-1.158
		c-0.669-0.277-1.509-0.418-2.518-0.418c-0.859,0-1.647,0.158-2.367,0.477c-0.72,0.316-1.332,0.729-1.837,1.234
		c-0.505,0.506-0.902,1.063-1.192,1.672c-0.291,0.606-0.436,1.217-0.436,1.824v13.3h-2.622v-20.481h2.584l-0.001,2.852
		c0.229-0.381,0.532-0.768,0.912-1.158c0.38-0.394,0.836-0.741,1.368-1.045c0.532-0.307,1.127-0.553,1.786-0.741
		C121.648,286.631,122.382,286.536,123.194,286.536z"/>
	<path style="fill:#FFFFFF;" d="M149.755,304.32h-0.038c-0.583,1.039-1.438,1.799-2.564,2.278c-1.128,0.48-2.287,0.724-3.478,0.724
		c-1.191,0-2.279-0.196-3.268-0.59c-0.989-0.394-1.85-0.964-2.584-1.709c-0.735-0.748-1.306-1.666-1.71-2.757
		c-0.406-1.088-0.608-2.329-0.608-3.725v-3.229c0-1.395,0.202-2.635,0.608-3.726c0.404-1.089,0.969-2.007,1.689-2.755
		c0.723-0.747,1.583-1.316,2.584-1.71c1.001-0.394,2.084-0.589,3.249-0.589c1.521,0,2.793,0.292,3.819,0.874
		c1.026,0.583,1.805,1.254,2.337,2.014v-2.508h2.584v20.142c0,2.911-0.754,5.109-2.261,6.592c-1.508,1.481-3.541,2.225-6.1,2.225
		c-1.443,0-2.729-0.188-3.856-0.57c-1.128-0.38-2.122-0.898-2.983-1.558l1.179-2.015c0.479,0.328,0.934,0.603,1.363,0.815
		c0.429,0.215,0.864,0.394,1.307,0.532c0.441,0.139,0.902,0.233,1.382,0.285c0.48,0.051,1.01,0.075,1.591,0.075
		c1.894,0,3.326-0.515,4.299-1.538c0.972-1.026,1.458-2.616,1.458-4.771V304.32z M138.127,298.164c0,2.204,0.518,3.9,1.553,5.092
		c1.035,1.191,2.412,1.786,4.129,1.786c0.833,0,1.609-0.106,2.329-0.323c0.72-0.215,1.345-0.544,1.875-0.985
		c0.53-0.443,0.953-1.002,1.269-1.673c0.316-0.672,0.474-1.465,0.474-2.375v-5.775c0-0.608-0.146-1.21-0.436-1.807
		c-0.29-0.596-0.701-1.141-1.23-1.635c-0.53-0.492-1.162-0.893-1.894-1.195c-0.733-0.306-1.528-0.457-2.387-0.457
		c-1.742,0-3.125,0.604-4.147,1.807s-1.534,2.896-1.534,5.073L138.127,298.164L138.127,298.164z"/>
</g>
<g>
	<path style="fill:#FFFFFF;" d="M12.844,324.864v2.355H2.698v10.299c1.368,0,2.584-0.013,3.647-0.039
		c1.064-0.024,2.046-0.063,2.945-0.113c0.898-0.051,1.761-0.127,2.584-0.229c0.823-0.101,1.703-0.228,2.641-0.379l0.305,2.317
		c-0.912,0.151-1.78,0.278-2.604,0.38s-1.773,0.184-2.85,0.247c-1.077,0.063-2.356,0.108-3.838,0.133
		c-1.482,0.026-3.325,0.038-5.529,0.038v-15.01H12.844z M14.82,343.028h2.622v3.04c0,0.785,0.069,1.457,0.209,2.014
		c0.139,0.558,0.366,1.059,0.684,1.501c0.316,0.443,0.728,0.843,1.235,1.197c0.506,0.354,1.127,0.722,1.861,1.102
		c0.988,0.507,2.141,1.051,3.458,1.634s2.546,1.103,3.687,1.559l-1.103,2.166c-1.241-0.507-2.482-1.059-3.724-1.653
		c-1.241-0.596-2.293-1.108-3.154-1.539c-2.526-1.267-4.016-2.368-4.465-3.306c-0.45,0.938-1.938,2.039-4.465,3.306
		c-0.861,0.431-1.913,0.943-3.154,1.539c-1.241,0.595-2.482,1.146-3.724,1.653l-1.14-2.166c0.557-0.229,1.158-0.476,1.805-0.741
		c0.646-0.266,1.278-0.538,1.899-0.817c0.621-0.278,1.229-0.557,1.824-0.836c0.595-0.278,1.146-0.545,1.653-0.798
		c0.709-0.354,1.311-0.709,1.805-1.063s0.905-0.754,1.235-1.197c0.329-0.443,0.57-0.95,0.722-1.52
		c0.152-0.57,0.229-1.248,0.229-2.033V343.028z M20.063,330.716h5.169v-8.283h2.621v22.115h-2.621v-11.476h-5.169v8.094h-2.584
		v-18.239h2.584V330.716z"/>
	<path style="fill:#FFFFFF;" d="M59.887,323.687v3.863c0,1.213-0.082,2.52-0.247,3.92c-0.165,1.402-0.36,2.709-0.589,3.92h5.738
		v2.356h-31.92v-2.356h23.37c0.329-1.361,0.569-2.712,0.722-4.049c0.152-1.338,0.229-2.649,0.229-3.936v-1.363H37.049v-2.355H59.887
		z M60.039,341.964v8.778H40.241v4.294h20.824v2.28H37.619V348.5h19.798v-4.256H37.429v-2.28H60.039z"/>
	<path style="fill:#FFFFFF;" d="M80.521,323.154l-11.477,33.592h-2.546l11.438-33.592H80.521z"/>
	<path style="fill:#FFFFFF;" d="M84.055,324.522h15.884v2.355H86.677v9.614c1.899,0,3.571-0.006,5.016-0.019
		c1.444-0.014,2.78-0.051,4.009-0.115c1.229-0.063,2.419-0.145,3.572-0.246c1.152-0.102,2.413-0.229,3.781-0.381l0.304,2.331
		c-0.938,0.124-1.824,0.225-2.66,0.3c-0.836,0.074-1.672,0.143-2.508,0.205s-1.717,0.113-2.641,0.15
		c-0.926,0.037-1.945,0.063-3.06,0.074c-1.115,0.013-2.362,0.025-3.743,0.037c-1.381,0.014-2.944,0.02-4.692,0.02V324.522z
		 M109.477,342.078v15.01H88.69v-15.01h2.622v4.826h15.58v-4.826H109.477z M106.893,354.732v-5.473h-15.58v5.473H106.893z
		 M109.477,329.994h5.357v2.356h-5.357v7.676h-2.622v-17.594h2.622V329.994z"/>
	<path style="fill:#FFFFFF;" d="M143.828,323.687v3.863c0,1.213-0.082,2.52-0.247,3.92c-0.165,1.402-0.36,2.709-0.589,3.92h5.738
		v2.356h-31.92v-2.356h23.37c0.329-1.361,0.569-2.712,0.722-4.049c0.152-1.338,0.229-2.649,0.229-3.936v-1.363H120.99v-2.355
		H143.828z M143.98,341.964v8.778h-19.798v4.294h20.824v2.28h-23.446V348.5h19.798v-4.256H121.37v-2.28H143.98z"/>
	<path style="fill:#FFFFFF;" d="M188.021,325.435v15.883h-9.88v8.589h14.63v2.355H160.89v-2.355h14.63v-8.589h-9.88v-15.883H188.021
		z M168.262,338.962h17.138V327.79h-17.138V338.962z"/>
	<path style="fill:#FFFFFF;" d="M227.389,339.304v2.356H195.47v-2.356H227.389z M200.143,345.384h22.611v11.704h-22.611V345.384z
		 M211.43,336.53c-1.42,0-2.787-0.133-4.105-0.399c-1.316-0.266-2.482-0.651-3.494-1.159c-1.014-0.506-1.818-1.14-2.414-1.899
		c-0.596-0.761-0.893-1.634-0.893-2.622v-1.292c0-0.988,0.297-1.862,0.893-2.622s1.4-1.393,2.414-1.9
		c1.012-0.506,2.178-0.893,3.494-1.158c1.318-0.267,2.686-0.399,4.105-0.399c1.418,0,2.785,0.133,4.104,0.399
		c1.316,0.266,2.477,0.652,3.477,1.158c1,0.508,1.805,1.141,2.414,1.9c0.607,0.76,0.912,1.634,0.912,2.622v1.292
		c0,0.988-0.305,1.861-0.912,2.622c-0.609,0.76-1.414,1.394-2.414,1.899c-1,0.508-2.16,0.894-3.477,1.159
		C214.215,336.397,212.848,336.53,211.43,336.53z M202.766,354.732h17.365v-6.992h-17.365V354.732z M211.43,325.358
		c-1.039,0-2.053,0.095-3.041,0.285c-0.988,0.189-1.875,0.455-2.66,0.797c-0.785,0.343-1.418,0.761-1.898,1.255
		c-0.482,0.493-0.723,1.045-0.723,1.653v0.912c0,0.607,0.24,1.158,0.723,1.652c0.48,0.494,1.113,0.912,1.898,1.254
		s1.672,0.607,2.66,0.799c0.988,0.189,2.002,0.284,3.041,0.284c1.012,0,2.02-0.095,3.02-0.284c1.002-0.191,1.895-0.457,2.68-0.799
		s1.418-0.76,1.9-1.254c0.48-0.494,0.723-1.045,0.723-1.652v-0.912c0-0.608-0.242-1.16-0.723-1.653
		c-0.482-0.494-1.115-0.912-1.9-1.255c-0.785-0.342-1.678-0.607-2.68-0.797C213.449,325.453,212.441,325.358,211.43,325.358z"/>
</g>
</svg>
