<?xml version="1.0" encoding="utf-8"?>
<!-- Generator: Adobe Illustrator 19.2.1, SVG Export Plug-In . SVG Version: 6.00 Build 0)  -->
<svg version="1.1" xmlns="http://www.w3.org/2000/svg" xmlns:xlink="http://www.w3.org/1999/xlink" x="0px" y="0px" width="260px"
	 height="48px" viewBox="0 0 260 48" style="enable-background:new 0 0 260 48;" xml:space="preserve">
<g id="Layer_1" style="display:none;">
	<polyline style="display:inline;opacity:0.2;fill:#FF0000;" points="259,4 1,4 1,0 259,0 	"/>
	<polyline style="display:inline;opacity:0.2;fill:#FF0000;" points="259,48 1,48 1,44 259,44 	"/>
</g>
<g id="Layer_2">
	<g>
		<path style="fill:#FFFFFF;" d="M15.7,42.7V30H0v-3.5h35.5V30H19.9v12.7H15.7z M30.8,13.1v1.5c0,5-5.1,8.3-13,8.3
			c-7.9,0-13-3.4-13-8.3v-1.5c0-5,5.1-8.3,13-8.3C25.7,4.8,30.8,8.1,30.8,13.1z M26.7,14.5v-1.3c0-2.8-3.6-4.8-8.9-4.8
			c-5.4,0-8.9,2-8.9,4.8v1.3c0,2.8,3.6,4.8,8.9,4.8C23.1,19.3,26.7,17.3,26.7,14.5z"/>
		<path style="fill:#FFFFFF;" d="M72.9,34v3.5H37.4V34H72.9z M41.8,11.1V7.4h26.7v3.6H57.4v2.6c0,2.3,0.6,3.9,4.2,6
			c3.2,2,5.3,3.1,8.8,5l-1.9,3.3c-3.6-1.9-5.9-3.1-8.7-4.9c-2.8-1.8-4.2-3-4.6-3.7c-0.5,0.8-1.9,2.1-4.7,3.8
			c-2.9,1.8-5.5,3.2-8.7,4.9l-2-3.3c3.7-2,6.2-3.3,8.8-5c3.4-2.2,4.2-3.8,4.2-6.1v-2.6H41.8z"/>
		<path style="fill:#FFFFFF;" d="M76.4,32.4V7.4h4v9h7.5v-9h4v10.3h4.8V4.8h4.1v36h-4.1V21.3h-4.8v11.1H76.4z M80.4,28.9h7.5v-9.1
			h-7.5V28.9z M108.5,42.7h-4.1V4h4.1V42.7z"/>
		<path style="fill:#FFFFFF;" d="M147.7,34v3.5h-35.5V34H147.7z M142.7,7.4V14c0,7.5-0.5,11.8-1.4,17l-4.2-0.5
			c0.6-3.1,1-5.9,1.2-8.8l-22.1,0.4l-0.1-3.5l22.4-0.3c0-0.9,0-1.8,0-2.8V11h-21.8V7.4H142.7z"/>
		<path style="fill:#FFFFFF;" d="M177.7,42.7V21.3h-7.5v1c0,7.4-4.1,11.2-9.7,11.2s-9.7-3.8-9.7-11.2v-4.4c0-7.4,4.1-11.2,9.7-11.2
			c5.6,0,9.7,3.7,9.7,11h7.5V4h4.2v38.7H177.7z M166.3,21.6v-3.2c0-5.9-2.7-8-5.8-8s-5.8,2.1-5.8,8v3.2c0,5.9,2.7,8,5.8,8
			S166.3,27.6,166.3,21.6z"/>
		<path style="fill:#FFFFFF;" d="M198.4,23.3c-0.4,0.9-1.1,1.8-2.4,3.2c-1.7,1.9-3.9,4.1-6.8,6.7l-2.7-2.8c2.6-2.3,4.7-4.4,6.6-6.5
			c2.6-2.9,3.2-4.8,3.2-7.8V6.8h4.2v9.3c0,3.3,0.8,5,3.4,7.9c1.8,2,3.7,3.7,6.2,6l-2.7,2.9c-2.9-2.7-4.8-4.6-6.4-6.3
			C199.8,25.3,198.7,24.1,198.4,23.3L198.4,23.3z M223.1,21.6h-6v21.1H213V4h4.2v14h6V21.6z"/>
		<path style="fill:#FFFFFF;" d="M236.8,19.2c-0.3,0.7-1.5,2.1-2.8,3.3c-1.8,1.6-4.1,3.4-6.4,5l-2.4-3c2.7-1.9,5.3-3.9,6.7-5.3
			c2.1-1.9,2.7-3.6,2.7-6.7V10h-8.1V6.5h20V10h-7.6v2.4c0,2.7,0.4,4.3,2.2,5.8c2,1.8,4.2,3.4,6.6,5l-2.4,3c-2.2-1.5-4-2.9-6-4.6
			C237.9,20.7,237.1,19.9,236.8,19.2L236.8,19.2z M236.6,38.7h20.8v3.6h-25V29.4h4.2V38.7z M252.5,31.6V17.4h-7.1v-3.6h7.1V4h4.1
			v27.6H252.5z"/>
	</g>
</g>
</svg>
