<?xml version="1.0" encoding="utf-8"?>
<!-- Generator: Adobe Illustrator 19.2.1, SVG Export Plug-In . SVG Version: 6.00 Build 0)  -->
<svg version="1.1" xmlns="http://www.w3.org/2000/svg" xmlns:xlink="http://www.w3.org/1999/xlink" x="0px" y="0px" width="258px"
	 height="48px" viewBox="0 0 258 48" style="enable-background:new 0 0 258 48;" xml:space="preserve">
<g id="Layer_1" style="display:none;">
	<polyline style="display:inline;opacity:0.2;fill:#FF0000;" points="258,4 0,4 0,0 258,0 	"/>
	<polyline style="display:inline;opacity:0.2;fill:#FF0000;" points="258,48 0,48 0,44 258,44 	"/>
</g>
<g id="Layer_2">
	<g>
		<path style="fill:#FFFFFF;" d="M4.2,7.7v20.8h1.7c3,0,7-0.2,10.4-0.8l0.4,3.5c-3.9,0.7-8.1,0.9-12.1,0.9H0V7.7H4.2z M19.2,4.8h4.1
			v36h-4.1v-21h-7.9v-3.7h7.9V4.8z M31.7,42.7h-4.1V4h4.1V42.7z"/>
		<path style="fill:#FFFFFF;" d="M59.5,21.1c-5.9,0.8-9.5,0.9-21.5,0.9V5.6h17.9v3.5H42v9.4c8.6,0,11.2-0.2,17.1-0.8L59.5,21.1z
			 M43.9,43V32.5h19.9v-3.7H43.7v-3.4h24.2v10.5H48v3.7h21V43H43.9z M63.8,23.4v-8.3H53.6v-3.5h10.2V4h4.1v19.4H63.8z"/>
		<path style="fill:#FFFFFF;" d="M74.8,26.8V14.6h13.1V9.5H74.6V6H92v12.1H78.9v5.2h3.5c4.2,0,10-0.3,13.7-0.8l0.3,3.5
			c-3.7,0.6-10,0.9-14.5,0.9H74.8z M84,38.7h20.5v3.6H79.9V30.7H84V38.7z M99.4,31.8V4h4.1v10.8h5.5v3.6h-5.5v13.4H99.4z"/>
		<path style="fill:#FFFFFF;" d="M145.9,34v3.5h-35.5V34H145.9z M141.3,25.8h-26.2V7.3h25.8v3.6h-21.6v11.4h22.1V25.8z"/>
		<path style="fill:#FFFFFF;" d="M175.9,42.7V21.3h-7.5v1c0,7.4-4.1,11.2-9.7,11.2s-9.7-3.8-9.7-11.2v-4.4c0-7.4,4.1-11.2,9.7-11.2
			c5.6,0,9.7,3.7,9.7,11h7.5V4h4.2v38.7H175.9z M164.5,21.6v-3.2c0-5.9-2.7-8-5.8-8s-5.8,2.1-5.8,8v3.2c0,5.9,2.7,8,5.8,8
			S164.5,27.6,164.5,21.6z"/>
		<path style="fill:#FFFFFF;" d="M196.6,23.3c-0.4,0.9-1.1,1.8-2.4,3.2c-1.7,1.9-3.9,4.1-6.8,6.7l-2.7-2.8c2.6-2.3,4.7-4.4,6.6-6.5
			c2.6-2.9,3.2-4.8,3.2-7.8V6.8h4.2v9.3c0,3.3,0.8,5,3.4,7.9c1.8,2,3.7,3.7,6.2,6l-2.7,2.9c-2.9-2.7-4.8-4.6-6.4-6.3
			C197.9,25.3,196.9,24.1,196.6,23.3L196.6,23.3z M221.3,21.6h-6v21.1h-4.2V4h4.2v14h6V21.6z"/>
		<path style="fill:#FFFFFF;" d="M234.9,19.2c-0.3,0.7-1.5,2.1-2.8,3.3c-1.8,1.6-4.1,3.4-6.4,5l-2.4-3c2.7-1.9,5.3-3.9,6.7-5.3
			c2.1-1.9,2.7-3.6,2.7-6.7V10h-8.1V6.5h20V10h-7.6v2.4c0,2.7,0.4,4.3,2.2,5.8c2,1.8,4.2,3.4,6.6,5l-2.4,3c-2.2-1.5-4-2.9-6-4.6
			C236.1,20.7,235.3,19.9,234.9,19.2L234.9,19.2z M234.8,38.7h20.8v3.6h-25V29.4h4.2V38.7z M250.7,31.6V17.4h-7.1v-3.6h7.1V4h4.1
			v27.6H250.7z"/>
	</g>
</g>
</svg>
